<?xml version="1.0" encoding="utf-8"?>
<!-- Generator: Adobe Illustrator 18.0.0, SVG Export Plug-In . SVG Version: 6.00 Build 0)  -->
<!DOCTYPE svg PUBLIC "-//W3C//DTD SVG 1.1//EN" "http://www.w3.org/Graphics/SVG/1.1/DTD/svg11.dtd">
<svg version="1.1" id="Layer_1" xmlns="http://www.w3.org/2000/svg" xmlns:xlink="http://www.w3.org/1999/xlink" x="0px" y="0px"
	 viewBox="0 0 100 100" enable-background="new 0 0 100 100" xml:space="preserve">
<g>
	<path fill="#FFFFFF" d="M49.8,0C22.1,0,0,22.1,0,49.8s22.1,49.8,49.8,49.8s49.8-22.1,49.8-49.8S77.1,0,49.8,0z M22.4,61.5
		c-6.5,0-12-5.5-11.8-12c0-6.5,5.5-12,12-11.8c6.5,0,12,5.5,11.8,12S29,61.5,22.4,61.5z M49.5,88.9c-6.5,0-12-5.5-11.8-12
		c0-6.5,5.5-12,12-11.8c6.5,0,12,5.5,11.8,12C61.6,83.3,56,88.9,49.5,88.9z M44.5,49.8c0-2.7,2.3-5.2,5.2-5.2c3,0,5.2,2.3,5.2,5.2
		S52.8,55,49.8,55C46.8,55,44.5,52.4,44.5,49.8z M49.8,34.4c-6.5,0-12-5.5-11.8-12c0-6.5,5.5-12,12-11.8c6.5,0,12,5.5,11.8,12
		C61.6,29.2,56.3,34.4,49.8,34.4z M76.9,61.8c-6.5,0-12-5.5-11.8-12c0-6.5,5.5-12,12-11.8c6.5,0,12,5.5,11.8,12
		C88.8,56.3,83.4,61.8,76.9,61.8z"/>
</g>
</svg>
