<?xml version="1.0" encoding="utf-8"?>
<!-- Generator: Adobe Illustrator 18.0.0, SVG Export Plug-In . SVG Version: 6.00 Build 0)  -->
<!DOCTYPE svg PUBLIC "-//W3C//DTD SVG 1.1//EN" "http://www.w3.org/Graphics/SVG/1.1/DTD/svg11.dtd">
<svg version="1.1" id="Layer_1" xmlns="http://www.w3.org/2000/svg" xmlns:xlink="http://www.w3.org/1999/xlink" x="0px" y="0px"
	 viewBox="0 0 1000 500" enable-background="new 0 0 1000 500" xml:space="preserve">
<g>
	<g>
		<linearGradient id="SVGID_1_" gradientUnits="userSpaceOnUse" x1="499.9984" y1="668.6559" x2="499.9984" y2="6.6194">
			<stop  offset="0.2092" style="stop-color:#5A73FF;stop-opacity:0"/>
			<stop  offset="0.3347" style="stop-color:#6078FF;stop-opacity:0.1587"/>
			<stop  offset="0.5004" style="stop-color:#7186FD;stop-opacity:0.3683"/>
			<stop  offset="0.6887" style="stop-color:#8C9DFB;stop-opacity:0.6064"/>
			<stop  offset="0.8921" style="stop-color:#B2BDF8;stop-opacity:0.8636"/>
			<stop  offset="1" style="stop-color:#C9D0F6"/>
		</linearGradient>
		<path fill="url(#SVGID_1_)" d="M500,6.6c-184.1,0-331,146.9-331,331s146.9,331,331,331s331-146.9,331-331S681.5,6.6,500,6.6z
			 M317.9,415.4c-43.2,0-79.8-36.6-78.4-79.8c0-43.2,36.6-79.8,79.8-78.4c43.2,0,79.8,36.6,78.4,79.8
			C396.3,380.2,361.7,415.4,317.9,415.4z M498,597.5c-43.2,0-79.8-36.6-78.4-79.8c0-43.2,36.6-79.8,79.8-78.4
			c43.2,0,79.8,36.6,78.4,79.8C578.4,560.3,541.2,597.5,498,597.5z M464.8,337.6c0-17.9,15.3-34.6,34.6-34.6
			c19.9,0,34.6,15.3,34.6,34.6c0,19.3-14,34.6-33.9,34.6S464.8,354.9,464.8,337.6z M500,235.3c-43.2,0-79.8-36.6-78.4-79.8
			c0-43.2,36.6-79.8,79.8-78.4c43.2,0,79.8,36.6,78.4,79.8C578.4,200.7,543.2,235.3,500,235.3z M680.1,417.4
			c-43.2,0-79.8-36.6-78.4-79.8c0-43.2,36.6-79.8,79.8-78.4c43.2,0,79.8,36.6,78.4,79.8C759.2,380.8,723.3,417.4,680.1,417.4z"/>
	</g>
	<text transform="matrix(1 0 0 1 68.7866 495.1292)" opacity="0.76"><tspan x="0" y="0" fill="#FFFFFF" font-family="'MyriadPro-Regular'" font-size="219.5634">Movi</tspan><tspan x="454" y="0" fill="#FFFFFF" font-family="'MyriadPro-Semibold'" font-size="219.5634">Reel</tspan></text>
</g>
</svg>
