<?xml version="1.0" encoding="utf-8"?>
<!-- Generator: Adobe Illustrator 18.0.0, SVG Export Plug-In . SVG Version: 6.00 Build 0)  -->
<!DOCTYPE svg PUBLIC "-//W3C//DTD SVG 1.1//EN" "http://www.w3.org/Graphics/SVG/1.1/DTD/svg11.dtd">
<svg version="1.1" id="Layer_1" xmlns="http://www.w3.org/2000/svg" xmlns:xlink="http://www.w3.org/1999/xlink" x="0px" y="0px"
	 viewBox="0 0 200 200" enable-background="new 0 0 200 200" xml:space="preserve">
<path fill="#5A73EF" d="M99.5,0.7c-55,0-99.6,44.6-99.6,99.6s44.6,99.6,99.6,99.6s99.6-44.6,99.6-99.6S154.5,0.7,99.5,0.7z
	 M41.8,126.8c-14.6,0-26.5-11.9-26.5-26.5s11.9-26.5,26.5-26.5s26.5,11.9,26.5,26.5S56.5,126.8,41.8,126.8z M99.7,184.5
	c-14.6,0-26.5-11.9-26.5-26.5s11.9-26.5,26.5-26.5c14.6,0,26.5,11.9,26.5,26.5S114.3,184.5,99.7,184.5z M89.1,100.4
	c0-5.8,4.7-10.6,10.6-10.6c5.8,0,10.6,4.7,10.6,10.6c0,5.8-4.7,10.6-10.6,10.6C93.8,110.9,89.1,106.2,89.1,100.4z M99.7,69.1
	c-14.6,0-26.5-11.9-26.5-26.5S85,16.1,99.7,16.1c14.6,0,26.5,11.9,26.5,26.5S114.3,69.1,99.7,69.1z M157.2,126.8
	c-14.6,0-26.5-11.9-26.5-26.5s11.9-26.5,26.5-26.5s26.5,11.9,26.5,26.5S171.8,126.8,157.2,126.8z"/>
</svg>
