<?xml version="1.0" encoding="utf-8"?>
<!-- Generator: Adobe Illustrator 18.0.0, SVG Export Plug-In . SVG Version: 6.00 Build 0)  -->
<!DOCTYPE svg PUBLIC "-//W3C//DTD SVG 1.1//EN" "http://www.w3.org/Graphics/SVG/1.1/DTD/svg11.dtd">
<svg version="1.1" id="iPhone_6" xmlns="http://www.w3.org/2000/svg" xmlns:xlink="http://www.w3.org/1999/xlink" x="0px" y="0px"
	 viewBox="0 0 100 100" enable-background="new 0 0 100 100" xml:space="preserve">
<pattern  y="100" width="0.1" height="0.2" patternUnits="userSpaceOnUse" id="New_Pattern_Swatch_8" viewBox="0 -0.2 0.1 0.2" overflow="visible">
	<g>
		<polygon fill="none" points="0,0 0.1,0 0.1,-0.2 0,-0.2 		"/>
		<g>
			<polygon fill="none" points="0,-0.2 0.1,-0.2 0.1,0 0,0 			"/>
			<polygon fill="#232323" points="0.1,-0.2 0,-0.2 0,-0.1 0.1,-0.1 			"/>
			<polygon fill="#232323" points="0.1,-0.1 0,-0.1 0,0 0.1,0 			"/>
			<polygon fill="#232323" points="0.1,-0.1 0.1,-0.1 0.1,-0.1 0.1,-0.1 			"/>
		</g>
	</g>
</pattern>
<g id="phone">
	<g>
		<g>
			<g>
				<g>
					
						<linearGradient id="SVGID_1_" gradientUnits="userSpaceOnUse" x1="219.5" y1="-261.1" x2="219.5" y2="-198.8" gradientTransform="matrix(5.555556e-02 0 0 -5.555556e-02 16.6667 5.5556)">
						<stop  offset="0" style="stop-color:#757678"/>
						<stop  offset="0.1413" style="stop-color:#DDDFDE"/>
						<stop  offset="0.8545" style="stop-color:#DDDFDE"/>
						<stop  offset="1" style="stop-color:#757678"/>
					</linearGradient>
					<path fill="url(#SVGID_1_)" d="M29,16.6C29,16.6,29,16.6,29,16.6L29,16.6c-0.2,0-0.3,0.1-0.3,0.3v2.9c0,0.2,0.1,0.3,0.2,0.3h0
						c0,0,0,0,0,0V16.6z"/>
					<rect x="28.9" y="16.6" fill="#FFFFFF" width="0.1" height="3.4"/>
				</g>
				<g>
					
						<linearGradient id="SVGID_2_" gradientUnits="userSpaceOnUse" x1="219.5" y1="-444.1" x2="219.5" y2="-331.8" gradientTransform="matrix(5.555556e-02 0 0 -5.555556e-02 16.6667 5.5556)">
						<stop  offset="0" style="stop-color:#757678"/>
						<stop  offset="0.1413" style="stop-color:#DDDFDE"/>
						<stop  offset="0.8545" style="stop-color:#DDDFDE"/>
						<stop  offset="1" style="stop-color:#757678"/>
					</linearGradient>
					<path fill="url(#SVGID_2_)" d="M29,24C29,24,29,24,29,24L29,24c-0.2,0-0.3,0.1-0.3,0.3v5.6c0,0.2,0.1,0.3,0.2,0.3h0
						c0,0,0,0,0,0V24z"/>
					<rect x="28.9" y="24" fill="#FFFFFF" width="0.1" height="6.2"/>
				</g>
				<g>
					
						<linearGradient id="SVGID_3_" gradientUnits="userSpaceOnUse" x1="219.5" y1="-586.1" x2="219.5" y2="-473.8" gradientTransform="matrix(5.555556e-02 0 0 -5.555556e-02 16.6667 5.5556)">
						<stop  offset="0" style="stop-color:#757678"/>
						<stop  offset="0.1413" style="stop-color:#DDDFDE"/>
						<stop  offset="0.8545" style="stop-color:#DDDFDE"/>
						<stop  offset="1" style="stop-color:#757678"/>
					</linearGradient>
					<path fill="url(#SVGID_3_)" d="M29,31.9C29,31.9,29,31.9,29,31.9L29,31.9c-0.2,0-0.3,0.1-0.3,0.3v5.6c0,0.2,0.1,0.3,0.2,0.3h0
						c0,0,0,0,0,0V31.9z"/>
					<rect x="28.9" y="31.9" fill="#FFFFFF" width="0.1" height="6.2"/>
				</g>
			</g>
			<g>
				
					<linearGradient id="SVGID_4_" gradientUnits="userSpaceOnUse" x1="962.5222" y1="-444.1" x2="962.5222" y2="-331.8" gradientTransform="matrix(-5.555556e-02 0 0 -5.555556e-02 124.0556 5.5556)">
					<stop  offset="0" style="stop-color:#757678"/>
					<stop  offset="0.1413" style="stop-color:#DDDFDE"/>
					<stop  offset="0.8545" style="stop-color:#DDDFDE"/>
					<stop  offset="1" style="stop-color:#757678"/>
				</linearGradient>
				<path fill="url(#SVGID_4_)" d="M70.4,24C70.4,24,70.4,24,70.4,24L70.4,24c0.2,0,0.3,0.1,0.3,0.3v5.6c0,0.2-0.1,0.3-0.3,0.3h0
					c0,0,0,0,0,0V24z"/>
				<rect x="70.4" y="24" fill="#FFFFFF" width="0.1" height="6.2"/>
			</g>
			<g>
				<g>
					<path fill="#D4D5D7" d="M70.4,34.5L70.4,34.5l0-21c0-2.1-0.4-3.3-0.4-3.3h0c-0.5-2-2.2-3.5-4.3-4c-0.4-0.1-1.5-0.4-3.8-0.4h-12
						h-0.5h-12c-2.4,0-3.4,0.3-3.8,0.4c-2.1,0.5-3.7,2.1-4.2,4v0c0,0-0.4,1.2-0.4,3.3l0,21l0,0l0,14l0,14h0l0,21
						c0,2.1,0.3,3.3,0.3,3.3l0,0c0.5,2,2.2,3.5,4.2,4c0.3,0.1,1.1,0.3,2.6,0.4c0.2-0.1,0.5-0.2,0.9-0.2c0.4,0,0.8,0.1,1,0.2h10.5
						c0.1-0.1,0.2-0.1,0.3-0.1h2.9c0.1,0,0.2,0,0.3,0.1h9.8c2.2,0,3.3-0.3,3.8-0.4c2.1-0.5,3.8-2.1,4.3-4.1l0,0c0,0,0.4-1.2,0.4-3.3
						l0-21l0,0l0-14L70.4,34.5z"/>
				</g>
				<defs>
					<filter id="Adobe_OpacityMaskFilter" filterUnits="userSpaceOnUse" x="28.9" y="5.7" width="41.5" height="85.6">
						<feColorMatrix  type="matrix" values="1 0 0 0 0  0 1 0 0 0  0 0 1 0 0  0 0 0 1 0"/>
					</filter>
				</defs>
				<mask maskUnits="userSpaceOnUse" x="28.9" y="5.7" width="41.5" height="85.6" id="SVGID_5_">
					<g filter="url(#Adobe_OpacityMaskFilter)">
					</g>
				</mask>
				<g opacity="0.6" mask="url(#SVGID_5_)">
					<path d="M70.4,34.5L70.4,34.5l0-21c0-2.1-0.4-3.3-0.4-3.3h0c-0.5-2-2.2-3.5-4.3-4c-0.4-0.1-1.5-0.4-3.8-0.4h-12h-0.5h-12
						c-2.4,0-3.4,0.3-3.8,0.4c-2.1,0.5-3.7,2.1-4.2,4v0c0,0-0.4,1.2-0.4,3.3l0,21l0,0l0,14l0,14h0l0,21c0,2.1,0.3,3.3,0.3,3.3l0,0
						c0.5,2,2.2,3.5,4.2,4c0.3,0.1,1.1,0.3,2.6,0.4c0.2-0.1,0.5-0.2,0.9-0.2c0.4,0,0.8,0.1,1,0.2h10.5c0.1-0.1,0.2-0.1,0.3-0.1h2.9
						c0.1,0,0.2,0,0.3,0.1h9.8c2.2,0,3.3-0.3,3.8-0.4c2.1-0.5,3.8-2.1,4.3-4.1l0,0c0,0,0.4-1.2,0.4-3.3l0-21l0,0l0-14L70.4,34.5z"/>
				</g>
			</g>
			<path fill="#CBCCCE" d="M52.3,90.8c-0.1-0.1-3.7-0.1-3.8,0H38.2c-0.3,0-0.7,0-1.1,0c-0.4,0-0.7,0-1,0c-1.4-0.1-2.1-0.3-2.3-0.4
				l0,0l0,0c-1.9-0.5-3.4-1.9-3.9-3.7l-0.1-0.6c-0.1-0.5-0.2-1.4-0.2-2.6l-0.1-21.5h0l0-13.5l0-13.5h0l0-21.5c0-1.2,0.1-2.1,0.2-2.6
				l0.1-0.6c0.5-1.8,2-3.2,3.9-3.7l0,0h0c0.3-0.1,1.4-0.4,3.7-0.4h24.5c2.2,0,3.3,0.2,3.6,0.4h0h0c2,0.5,3.5,1.9,4,3.7l0.1,0.6
				c0.1,0.5,0.2,1.5,0.2,2.6L70,35l0,0l0,13.5l0,13.5l0,0l0,21.5c0,1.2-0.1,2.1-0.2,2.6l-0.1,0.6c-0.5,1.8-2,3.2-4,3.7l0,0l0,0
				c-0.3,0.1-1.4,0.4-3.6,0.4L52.3,90.8L52.3,90.8z"/>
			<path fill="#FFFFFF" d="M52.3,90.7c-0.2-0.1-3.7-0.1-3.9,0H38.2c-0.3,0-0.7,0-1.1,0c-0.4,0-0.7,0-1.1,0c-1.4-0.1-2-0.3-2.2-0.3
				l0,0l0,0c-1.9-0.5-3.3-1.9-3.8-3.6l-0.1-0.6c-0.1-0.5-0.2-1.4-0.2-2.6L29.5,62l0,0l0-13.4l0-13.4l0,0l0-21.6
				c0-1.2,0.1-2.1,0.2-2.6l0.1-0.6c0.5-1.7,1.9-3.1,3.8-3.6l0,0h0c0.3-0.1,1.3-0.4,3.6-0.4h24.5c2.2,0,3.2,0.2,3.6,0.4l0,0l0,0
				c1.9,0.5,3.4,1.8,3.9,3.6l0.2,0.6c0.1,0.5,0.2,1.5,0.2,2.6l0.1,21.6l0,0l0,13.4l0,13.4l0,21.6c0,1.2-0.1,2.1-0.2,2.6l-0.2,0.6
				c-0.5,1.8-2,3.2-3.9,3.6l0,0l0,0c-0.3,0.1-1.4,0.4-3.6,0.4L52.3,90.7L52.3,90.7z"/>
			<path fill="#E1E1E1" d="M38.3,90.5c0,0-1.2,0-1.2,0c0,0-1.1,0-1.1,0c-1.3-0.1-1.9-0.3-2.1-0.3l0,0l0,0c-1.8-0.5-3.2-1.8-3.6-3.4
				l-0.1-0.5c-0.1-0.5-0.2-1.4-0.2-2.5l-0.1-21.9l0,0l0-13.1l0-13.1l0,0l0-21.9c0-1.1,0.1-2,0.2-2.6l0.1-0.5C30.7,8.7,32,7.4,33.8,7
				l0,0l0,0c0.3-0.1,1.3-0.4,3.5-0.4h24.5c2.2,0,3.2,0.2,3.5,0.3l0,0l0,0c1.8,0.4,3.2,1.7,3.7,3.4l0.2,0.5c0.1,0.5,0.2,1.4,0.2,2.6
				l0.1,21.9l0,0l0,13.1l0,13.1l0,21.9c0,1.1-0.1,2-0.2,2.6l-0.1,0.5c-0.5,1.7-1.9,3-3.7,3.4l0,0l0,0c-0.3,0.1-1.3,0.4-3.5,0.4
				L38.3,90.5L38.3,90.5z"/>
			<path fill="#FFFFFF" d="M38.3,90.3c-0.4,0-0.8,0-1.2,0c-0.4,0-0.8,0-1.1,0c-1.2-0.1-1.8-0.3-2-0.3l0,0l0,0
				c-1.7-0.4-3.1-1.7-3.5-3.3l-0.1-0.5c-0.1-0.5-0.2-1.4-0.2-2.5l-0.1-22v0l0-13l0-13l0,0l0-22c0-1.1,0.1-2,0.2-2.5l0.1-0.5
				c0.4-1.6,1.8-2.9,3.5-3.3l0,0l0,0c0.3-0.1,1.3-0.4,3.5-0.4h24.5c2.2,0,3.1,0.2,3.5,0.3l0,0l0,0c1.8,0.4,3.2,1.7,3.6,3.3l0.1,0.5
				c0.1,0.5,0.2,1.4,0.2,2.5l0.1,22l0,0l0,13l0,13l0,22c0,1.1-0.1,2-0.2,2.5l-0.1,0.5c-0.4,1.6-1.8,2.9-3.6,3.3l0,0l0,0
				c-0.3,0.1-1.3,0.4-3.5,0.4L38.3,90.3L38.3,90.3z"/>
			
				<linearGradient id="SVGID_6_" gradientUnits="userSpaceOnUse" x1="50.0788" y1="-1233.0394" x2="1138.6686" y2="-319.6042" gradientTransform="matrix(5.555556e-02 0 0 -5.555556e-02 16.6667 5.5556)">
				<stop  offset="0" style="stop-color:#EEEEEF"/>
				<stop  offset="1" style="stop-color:#F9F9F9"/>
			</linearGradient>
			<path fill="url(#SVGID_6_)" d="M38.3,90.4c-0.2,0-0.4,0-0.6,0c-0.2,0-0.4,0-0.6,0c-0.2,0-0.4,0-0.6,0c-0.2,0-0.3,0-0.4,0
				c-1.2-0.1-1.8-0.2-1.9-0.3L34,90L34,90c-0.9-0.2-1.6-0.7-2.2-1.3c-0.3-0.4-0.5-0.8-0.7-1.3L31,86.9c-0.1-0.5-0.2-1.3-0.2-2.4
				l-0.1-22.9l0,0l0-12.7l0-12.9L30.8,13c0-1.2,0.1-2,0.2-2.5l0.1-0.5c0.1-0.6,0.4-1.1,0.8-1.5C32.5,8,33.2,7.6,34,7.4l0.1,0l0.1,0
				C34.4,7.2,35.3,7,37.5,7h24.4c2.1,0,3.1,0.2,3.4,0.3l0.1,0l0.1,0c0.8,0.2,1.6,0.6,2.2,1.2c0.4,0.4,0.6,0.9,0.7,1.5l0.1,0.5
				c0.1,0.3,0.2,1.2,0.2,2.5l0.1,23l-0.1,48.5c0,1.1-0.1,1.9-0.2,2.4l-0.1,0.5c-0.1,0.5-0.3,0.9-0.6,1.3c-0.6,0.6-1.4,1.1-2.3,1.3
				l0,0l-0.1,0c-0.3,0.1-1.3,0.4-3.4,0.4L38.3,90.4L38.3,90.4z"/>
			
				<linearGradient id="SVGID_7_" gradientUnits="userSpaceOnUse" x1="594.4" y1="-1528.2997" x2="594.4" y2="-26.2998" gradientTransform="matrix(5.555556e-02 0 0 -5.555556e-02 16.6667 5.5556)">
				<stop  offset="0" style="stop-color:#000000"/>
				<stop  offset="8.974771e-05" style="stop-color:#090909"/>
				<stop  offset="5.797686e-04" style="stop-color:#373737"/>
				<stop  offset="1.132021e-03" style="stop-color:#626262"/>
				<stop  offset="1.725564e-03" style="stop-color:#888888"/>
				<stop  offset="2.371620e-03" style="stop-color:#A8A8A8"/>
				<stop  offset="3.085603e-03" style="stop-color:#C4C4C4"/>
				<stop  offset="3.891460e-03" style="stop-color:#DADADA"/>
				<stop  offset="4.832866e-03" style="stop-color:#EBEBEB"/>
				<stop  offset="5.996420e-03" style="stop-color:#F6F6F6"/>
				<stop  offset="7.628995e-03" style="stop-color:#FDFDFD"/>
				<stop  offset="1.216053e-02" style="stop-color:#FFFFFF"/>
				<stop  offset="0.137" style="stop-color:#FFFFFF"/>
				<stop  offset="0.8712" style="stop-color:#FFFFFF"/>
				<stop  offset="0.9725" style="stop-color:#FFFFFF"/>
				<stop  offset="0.9892" style="stop-color:#FFFFFF"/>
				<stop  offset="0.9932" style="stop-color:#FDFDFD"/>
				<stop  offset="0.9947" style="stop-color:#F6F6F6"/>
				<stop  offset="0.9957" style="stop-color:#EBEBEB"/>
				<stop  offset="0.9965" style="stop-color:#DADADA"/>
				<stop  offset="0.9972" style="stop-color:#C4C4C4"/>
				<stop  offset="0.9979" style="stop-color:#A8A8A8"/>
				<stop  offset="0.9985" style="stop-color:#888888"/>
				<stop  offset="0.999" style="stop-color:#626262"/>
				<stop  offset="0.9995" style="stop-color:#373737"/>
				<stop  offset="0.9999" style="stop-color:#090909"/>
				<stop  offset="1" style="stop-color:#000000"/>
			</linearGradient>
			<path opacity="0.1" fill="url(#SVGID_7_)" enable-background="new    " d="M38.3,90.5c-0.2,0-0.4,0-0.6,0c-0.2,0-0.4,0-0.6,0
				c-0.2,0-0.4,0-0.6,0c-0.2,0-0.3,0-0.4,0c-1.2-0.1-1.8-0.2-1.9-0.3l-0.1,0L34,90c-0.9-0.2-1.6-0.7-2.2-1.3
				c-0.3-0.4-0.5-0.8-0.7-1.3L31,86.9c-0.1-0.5-0.2-1.3-0.2-2.4l-0.1-22.9l0,0l0-12.7l0-12.9L30.8,13c0-1.2,0.1-2.1,0.2-2.5l0.1-0.5
				c0.1-0.6,0.4-1.1,0.8-1.5C32.5,8,33.2,7.6,34,7.4l0.1,0l0.1,0C34.4,7.2,35.3,7,37.5,7h24.4c2.1,0,3.1,0.2,3.4,0.3l0.1,0l0.1,0
				c0.8,0.2,1.6,0.6,2.2,1.2c0.4,0.4,0.6,0.9,0.7,1.4l0.1,0.5c0.1,0.3,0.2,1.2,0.2,2.5l0.1,23l-0.1,48.5c0,1.1-0.1,1.9-0.2,2.4
				l-0.1,0.5c-0.1,0.5-0.3,0.9-0.6,1.3c-0.6,0.6-1.4,1.1-2.3,1.3l0,0l-0.1,0c-0.3,0.1-1.3,0.4-3.4,0.4L38.3,90.5L38.3,90.5z"/>
			<g>
				<g>
					<g>
						
							<linearGradient id="SVGID_8_" gradientUnits="userSpaceOnUse" x1="543.3284" y1="-1413.3451" x2="645.6811" y2="-1472.4386" gradientTransform="matrix(5.555556e-02 0 0 -5.555556e-02 16.6667 5.5556)">
							<stop  offset="0" style="stop-color:#2B2F30"/>
							<stop  offset="9.423478e-02" style="stop-color:#343738"/>
							<stop  offset="0.2451" style="stop-color:#4B4E4F"/>
							<stop  offset="0.4324" style="stop-color:#717374"/>
							<stop  offset="0.5943" style="stop-color:#97989A"/>
							<stop  offset="0.9405" style="stop-color:#FFFFFF"/>
							<stop  offset="0.9743" style="stop-color:#FDFDFD"/>
							<stop  offset="0.9865" style="stop-color:#F6F6F6"/>
							<stop  offset="0.9952" style="stop-color:#EBEBEB"/>
							<stop  offset="1" style="stop-color:#E0E0E0"/>
						</linearGradient>
						<path fill="url(#SVGID_8_)" d="M49.7,82.4c-1.8,0-3.3,1.5-3.3,3.3s1.5,3.3,3.3,3.3c1.8,0,3.3-1.5,3.3-3.3
							C53,83.9,51.5,82.4,49.7,82.4z M49.7,88.5c-1.6,0-2.9-1.3-2.9-2.9c0-1.6,1.3-2.9,2.9-2.9s2.9,1.3,2.9,2.9
							C52.6,87.2,51.3,88.5,49.7,88.5z"/>
					</g>
					<defs>
						<filter id="Adobe_OpacityMaskFilter_1_" filterUnits="userSpaceOnUse" x="46.4" y="82.4" width="6.6" height="6.6">
							<feColorMatrix  type="matrix" values="1 0 0 0 0  0 1 0 0 0  0 0 1 0 0  0 0 0 1 0"/>
						</filter>
					</defs>
					<mask maskUnits="userSpaceOnUse" x="46.4" y="82.4" width="6.6" height="6.6" id="SVGID_9_">
						<g filter="url(#Adobe_OpacityMaskFilter_1_)">
						</g>
					</mask>
					<g opacity="0.2" mask="url(#SVGID_9_)">
						<path d="M49.7,82.4c-1.8,0-3.3,1.5-3.3,3.3s1.5,3.3,3.3,3.3c1.8,0,3.3-1.5,3.3-3.3C53,83.9,51.5,82.4,49.7,82.4z M49.7,88.5
							c-1.6,0-2.9-1.3-2.9-2.9c0-1.6,1.3-2.9,2.9-2.9s2.9,1.3,2.9,2.9C52.6,87.2,51.3,88.5,49.7,88.5z"/>
					</g>
				</g>
				<circle fill="#FFFFFF" cx="49.7" cy="85.6" r="2.9"/>
				<circle fill="#FFFFFF" cx="49.7" cy="85.7" r="2.9"/>
				
					<linearGradient id="SVGID_10_" gradientUnits="userSpaceOnUse" x1="594.5" y1="-1493.5" x2="594.5" y2="-1391.7" gradientTransform="matrix(5.555556e-02 0 0 -5.555556e-02 16.6667 5.5556)">
					<stop  offset="0" style="stop-color:#C5C5C5"/>
					<stop  offset="0.1673" style="stop-color:#D5D5D5"/>
					<stop  offset="0.39" style="stop-color:#E4E4E4"/>
					<stop  offset="0.5735" style="stop-color:#E9E9E9"/>
					<stop  offset="1" style="stop-color:#FFFFFF"/>
				</linearGradient>
				<path opacity="0.48" fill="url(#SVGID_10_)" enable-background="new    " d="M49.7,88.5c-1.6,0-2.8-1.3-2.8-2.8
					c0-1.6,1.3-2.8,2.8-2.8c1.6,0,2.8,1.3,2.8,2.8C52.5,87.3,51.3,88.5,49.7,88.5z"/>
			</g>
			<rect x="31.5" y="16.2" fill="#FFFFFF" width="36.4" height="64.7"/>
			<path fill="#050505" d="M68.2,16.1c0-0.1-0.1-0.2-0.2-0.2H31.4c-0.1,0-0.2,0.1-0.2,0.2V81c0,0.1,0.1,0.2,0.2,0.2H68
				c0.1,0,0.2-0.1,0.2-0.2V16.1z M67.9,80.8H31.5V16.2h36.4V80.8z"/>
			<g>
				<g>
					<g>
						<g>
							
								<linearGradient id="SVGID_11_" gradientUnits="userSpaceOnUse" x1="466.0187" y1="-99.76" x2="487.9236" y2="-112.4067" gradientTransform="matrix(5.555556e-02 0 0 -5.555556e-02 16.6667 5.5556)">
								<stop  offset="0" style="stop-color:#21242B"/>
								<stop  offset="0.2027" style="stop-color:#21242B"/>
								<stop  offset="0.8111" style="stop-color:#6A6A6A"/>
								<stop  offset="1" style="stop-color:#6A6A6A"/>
							</linearGradient>
							<circle fill="url(#SVGID_11_)" cx="43.2" cy="11.4" r="0.7"/>
						</g>
						<defs>
							<filter id="Adobe_OpacityMaskFilter_2_" filterUnits="userSpaceOnUse" x="42.5" y="10.8" width="1.4" height="1.4">
								<feColorMatrix  type="matrix" values="1 0 0 0 0  0 1 0 0 0  0 0 1 0 0  0 0 0 1 0"/>
							</filter>
						</defs>
						<mask maskUnits="userSpaceOnUse" x="42.5" y="10.8" width="1.4" height="1.4" id="SVGID_12_">
							<g filter="url(#Adobe_OpacityMaskFilter_2_)">
							</g>
						</mask>
						<g opacity="0.7" mask="url(#SVGID_12_)">
							<circle cx="43.2" cy="11.4" r="0.7"/>
						</g>
					</g>
					<g>
						<g>
							
								<linearGradient id="SVGID_13_" gradientUnits="userSpaceOnUse" x1="468.946" y1="-106.1" x2="484.995" y2="-106.1" gradientTransform="matrix(5.555556e-02 0 0 -5.555556e-02 16.6667 5.5556)">
								<stop  offset="0" style="stop-color:#0F2049"/>
								<stop  offset="1" style="stop-color:#293858"/>
							</linearGradient>
							<circle fill="url(#SVGID_13_)" cx="43.2" cy="11.4" r="0.4"/>
						</g>
						<defs>
							<filter id="Adobe_OpacityMaskFilter_3_" filterUnits="userSpaceOnUse" x="42.7" y="11" width="0.9" height="0.9">
								<feColorMatrix  type="matrix" values="1 0 0 0 0  0 1 0 0 0  0 0 1 0 0  0 0 0 1 0"/>
							</filter>
						</defs>
						<mask maskUnits="userSpaceOnUse" x="42.7" y="11" width="0.9" height="0.9" id="SVGID_14_">
							<g filter="url(#Adobe_OpacityMaskFilter_3_)">
							</g>
						</mask>
						<g opacity="0.7" mask="url(#SVGID_14_)">
							<circle cx="43.2" cy="11.4" r="0.4"/>
						</g>
					</g>
					<g opacity="0.6">
					</g>
					<g>
					</g>
				</g>
				<g>
					<g>
						<circle fill="#2C2827" cx="49.8" cy="8.6" r="0.5"/>
					</g>
					<defs>
						<filter id="Adobe_OpacityMaskFilter_4_" filterUnits="userSpaceOnUse" x="49.2" y="8.1" width="1" height="1">
							<feColorMatrix  type="matrix" values="1 0 0 0 0  0 1 0 0 0  0 0 1 0 0  0 0 0 1 0"/>
						</filter>
					</defs>
					<mask maskUnits="userSpaceOnUse" x="49.2" y="8.1" width="1" height="1" id="SVGID_15_">
						<g filter="url(#Adobe_OpacityMaskFilter_4_)">
						</g>
					</mask>
					<g opacity="0.9" mask="url(#SVGID_15_)">
						<circle cx="49.8" cy="8.6" r="0.5"/>
					</g>
				</g>
				<g>
					<path fill="#666666" d="M53.1,11.4c0,0.2-0.1,0.3-0.3,0.3h-5.9c-0.2,0-0.3-0.1-0.3-0.3l0,0c0-0.2,0.1-0.3,0.3-0.3h5.9
						C52.9,11.1,53.1,11.3,53.1,11.4L53.1,11.4z"/>
					<g>
						<g>
							<path fill="#524A49" d="M53.1,11.5c0,0.2-0.1,0.3-0.3,0.3h-5.9c-0.2,0-0.3-0.1-0.3-0.3l0,0c0-0.2,0.1-0.3,0.3-0.3h5.9
								C52.9,11.2,53.1,11.3,53.1,11.5L53.1,11.5z"/>
						</g>
						<defs>
							<filter id="Adobe_OpacityMaskFilter_5_" filterUnits="userSpaceOnUse" x="46.5" y="11.2" width="6.6" height="0.6">
								<feColorMatrix  type="matrix" values="1 0 0 0 0  0 1 0 0 0  0 0 1 0 0  0 0 0 1 0"/>
							</filter>
						</defs>
						<mask maskUnits="userSpaceOnUse" x="46.5" y="11.2" width="6.6" height="0.6" id="SVGID_16_">
							<g filter="url(#Adobe_OpacityMaskFilter_5_)">
							</g>
						</mask>
						<g opacity="0.9" mask="url(#SVGID_16_)">
							<path d="M53.1,11.5c0,0.2-0.1,0.3-0.3,0.3h-5.9c-0.2,0-0.3-0.1-0.3-0.3l0,0c0-0.2,0.1-0.3,0.3-0.3h5.9
								C52.9,11.2,53.1,11.3,53.1,11.5L53.1,11.5z"/>
						</g>
					</g>
					
						<pattern  id="SVGID_17_" xlink:href="#New_Pattern_Swatch_8" patternTransform="matrix(5.555556e-02 0 0 -5.555556e-02 -7673 -8549.0869)">
					</pattern>
					<path opacity="0.5" fill="url(#SVGID_17_)" enable-background="new    " d="M53.1,11.5c0,0.2-0.1,0.3-0.3,0.3h-5.9
						c-0.2,0-0.3-0.1-0.3-0.3l0,0c0-0.2,0.1-0.3,0.3-0.3h5.9C52.9,11.2,53.1,11.3,53.1,11.5L53.1,11.5z"/>
				</g>
			</g>
			<polygon opacity="0.3" fill="#A6A6A6" enable-background="new    " points="69.8,83.6 70.4,83.4 70.4,84.7 69.8,84.8 			"/>
			<polygon opacity="0.3" fill="#A6A6A6" enable-background="new    " points="29,84.6 29.6,84.8 29.6,83.5 29,83.4 			"/>
		</g>
	</g>
</g>
<g id="page">
	
		<linearGradient id="SVGID_18_" gradientUnits="userSpaceOnUse" x1="595.05" y1="-1357.2" x2="595.05" y2="-191.7" gradientTransform="matrix(5.555556e-02 0 0 -5.555556e-02 16.6667 5.5556)">
		<stop  offset="0" style="stop-color:#C9D0F6"/>
		<stop  offset="5.952024e-02" style="stop-color:#BCC5F7"/>
		<stop  offset="0.2434" style="stop-color:#99A8FA"/>
		<stop  offset="0.4296" style="stop-color:#7D91FC"/>
		<stop  offset="0.617" style="stop-color:#6A80FE"/>
		<stop  offset="0.8062" style="stop-color:#5E76FF"/>
		<stop  offset="1" style="stop-color:#5A73FF"/>
	</linearGradient>
	<rect x="31.5" y="16.2" fill="url(#SVGID_18_)" width="36.4" height="64.8"/>
	<path fill="#FFFFFF" d="M32.4,17c0.2,0,0.3,0.1,0.3,0.3c0,0.1-0.1,0.3-0.3,0.3c-0.1,0-0.3-0.1-0.3-0.3C32.1,17.1,32.2,17,32.4,17z"
		/>
	<path fill="#FFFFFF" d="M33,17c0.2,0,0.3,0.1,0.3,0.3c0,0.1-0.1,0.3-0.3,0.3c-0.1,0-0.3-0.1-0.3-0.3C32.8,17.1,32.9,17,33,17z"/>
	<rect x="31.5" y="16.2" fill="#FFFFFF" fill-opacity="0" width="36.4" height="6.3"/>
	<g>
		<g id="add_2_">
			<path fill="#FFFFFF" d="M66.4,20.5h-0.9v0.9h-0.3v-0.9h-0.9v-0.3h0.9v-0.9h0.3v0.9h0.9V20.5z"/>
		</g>
	</g>
	<g>
		<g>
			<path fill="#FFFFFF" d="M34.9,20.5c-0.1-0.1-0.2-0.1-0.3-0.1c0.1-0.1,0.1-0.2,0.1-0.3c0-0.2-0.2-0.4-0.4-0.4
				c-0.2,0-0.4,0.2-0.4,0.4c0.2,0.1,0.3,0.3,0.3,0.5c0,0.1,0,0.2-0.1,0.2c0,0,0.1,0.1,0.1,0.1c0.1,0.1,0.2,0.3,0.2,0.4v0l0,0l0,0.1
				h0.5l0-0.6C35.1,20.7,35,20.6,34.9,20.5z"/>
			<path fill="#FFFFFF" d="M34,20.9c0.1-0.1,0.1-0.2,0.1-0.3c0-0.2-0.2-0.4-0.4-0.4c-0.2,0-0.4,0.2-0.4,0.4c0,0.1,0.1,0.2,0.1,0.3
				c-0.2,0-0.4,0.2-0.4,0.4l0,0.1h0.7h0.7l0-0.1c0-0.1,0-0.2-0.1-0.3C34.2,20.9,34.1,20.9,34,20.9z"/>
			<path fill="#FFFFFF" d="M33.2,19.8v0.2c0,0.1,0.1,0.1,0.1,0.1c0.1,0,0.1-0.1,0.1-0.1v-0.2h0.2c0.1,0,0.1-0.1,0.1-0.1
				s-0.1-0.1-0.1-0.1h-0.2v-0.2c0-0.1-0.1-0.1-0.1-0.1c-0.1,0-0.1,0.1-0.1,0.1v0.2H33c-0.1,0-0.1,0.1-0.1,0.1s0.1,0.1,0.1,0.1H33.2
				L33.2,19.8z"/>
		</g>
	</g>
	<text transform="matrix(1 0 0 1 45.1833 20.6173)" fill="#FFFFFF" font-family="'Helvetica-Bold'" font-size="1.6503">Open Reels</text>
	<g opacity="0.8">
		<g>
			<path fill="#FFFFFF" d="M64.3,35H35.2c-1,0-1.7-0.8-1.7-1.7v-7.4c0-1,0.8-1.7,1.7-1.7h29.1c0.9,0,1.7,0.8,1.7,1.7v7.4
				C66,34.2,65.2,35,64.3,35z"/>
		</g>
	</g>
	<text transform="matrix(1 0 0 1 63.5595 25.5816)" fill="#808080" font-family="'Helvetica'" font-size="1.0679">1s</text>
	<g>
		<g>
			<defs>
				<ellipse id="SVGID_19_" cx="36" cy="26.3" rx="1.9" ry="1.9"/>
			</defs>
			<clipPath id="SVGID_20_">
				<use xlink:href="#SVGID_19_"  overflow="visible"/>
			</clipPath>
			<g clip-path="url(#SVGID_20_)">
				
					<image overflow="visible" enable-background="new    " width="128" height="128" xlink:href="../../../../../Users/hugonicastro/Desktop/johndoe.jpg"  transform="matrix(3.252778e-02 0 0 3.252778e-02 33.9373 24.3657)">
				</image>
			</g>
		</g>
	</g>
	<text transform="matrix(1.0809 0 0 1 47.0221 26.0471)" fill="#5A73F0" font-family="'Helvetica'" font-size="1.1676">John Doe</text>
	<text transform="matrix(1 0 0 1 44.3887 28.6409)" fill="#333333" font-family="'Helvetica'" font-size="1.6989">Hockey Finals</text>
	<text transform="matrix(1 0 0 1 34.3229 34.2564)" fill="#808080" font-family="'Helvetica'" font-size="1.0679">Expires in: 32 Minutes</text>
	<g>
		<g>
			
				<image overflow="visible" enable-background="new    " width="50" height="50" xlink:href="../../../../../Users/hugonicastro/Downloads/Hex Codes Icon/Camera2.png"  transform="matrix(4.853889e-02 0 0 4.853889e-02 46.2404 30.4325)">
			</image>
			
				<image overflow="visible" enable-background="new    " width="50" height="50" xlink:href="../../../../../Users/hugonicastro/Downloads/Hex Codes Icon/Contribs-Blue.png"  transform="matrix(4.853889e-02 0 0 4.853889e-02 50.7787 30.4325)">
			</image>
		</g>
		<text transform="matrix(1 0 0 1 51.598 34.45)" fill="#808080" font-family="'Helvetica'" font-size="1.0679">6</text>
		<text transform="matrix(1 0 0 1 46.9673 34.45)" fill="#808080" font-family="'Helvetica'" font-size="1.0679">33</text>
	</g>
	<g opacity="0.8">
		<g>
			<path fill="#FFFFFF" d="M64.3,47.5H35.2c-1,0-1.7-0.8-1.7-1.7v-7.4c0-1,0.8-1.7,1.7-1.7h29.1c0.9,0,1.7,0.8,1.7,1.7v7.4
				C66,46.7,65.2,47.5,64.3,47.5z"/>
		</g>
	</g>
	<text transform="matrix(1 0 0 1 63.7537 38.1046)" fill="#808080" font-family="'Helvetica'" font-size="1.0679">3m</text>
	<text transform="matrix(1.0809 0 0 1 47.0913 38.5705)" fill="#5A73F0" font-family="'Helvetica'" font-size="1.1676">Jane Ann</text>
	<text transform="matrix(1 0 0 1 45.0963 41.5041)" fill="#333333" font-family="'Helvetica'" font-size="1.6989">Beach Party</text>
	<text transform="matrix(1 0 0 1 34.3229 46.7792)" fill="#808080" font-family="'Helvetica'" font-size="1.0679">Expires in: 6 hours</text>
	<g>
		<g>
			<defs>
				<circle id="SVGID_21_" cx="36" cy="38.9" r="1.9"/>
			</defs>
			<clipPath id="SVGID_22_">
				<use xlink:href="#SVGID_21_"  overflow="visible"/>
			</clipPath>
			<g clip-path="url(#SVGID_22_)">
				
					<image overflow="visible" enable-background="new    " width="128" height="128" xlink:href="../../../../../Users/hugonicastro/Desktop/128.jpg"  transform="matrix(3.158333e-02 0 0 3.158333e-02 34.11 36.8506)">
				</image>
			</g>
		</g>
	</g>
	<g opacity="0.8">
		<g>
			<path fill="#FFFFFF" d="M64.3,60H35.2c-1,0-1.7-0.8-1.7-1.7v-7.4c0-1,0.8-1.7,1.7-1.7h29.1c0.9,0,1.7,0.8,1.7,1.7v7.4
				C66,59.2,65.2,60,64.3,60z"/>
		</g>
	</g>
	<text transform="matrix(1 0 0 1 63.7537 50.6285)" fill="#808080" font-family="'Helvetica'" font-size="1.0679">1h</text>
	<text transform="matrix(1.0809 0 0 1 46.9534 51.0939)" fill="#5A73F0" font-family="'Helvetica'" font-size="1.1676">Jim Smith</text>
	<text transform="matrix(1 0 0 1 43.5845 54.0275)" fill="#333333" font-family="'Helvetica'" font-size="1.6989">Dominican 2015</text>
	<text transform="matrix(1 0 0 1 34.3229 59.3027)" fill="#808080" font-family="'Helvetica'" font-size="1.0679">Expires in: 3 days</text>
	<g>
		<g>
			<defs>
				<circle id="SVGID_23_" cx="36" cy="51.4" r="1.9"/>
			</defs>
			<clipPath id="SVGID_24_">
				<use xlink:href="#SVGID_23_"  overflow="visible"/>
			</clipPath>
			<g transform="matrix(1 0 0 1 0 -6.103516e-05)" clip-path="url(#SVGID_24_)">
				
					<image overflow="visible" enable-background="new    " width="128" height="128" xlink:href="../../../../../Users/hugonicastro/Desktop/1282.jpg"  transform="matrix(3.255556e-02 0 0 3.255556e-02 33.9558 49.4375)">
				</image>
			</g>
		</g>
	</g>
	<g>
		<rect x="31.5" y="76.3" opacity="0.95" fill="#FFFFFF" enable-background="new    " width="36.4" height="4.7"/>
		<rect x="40.6" y="76.3" fill="#5A73F0" width="9.1" height="4.7"/>
		<g>
			<path fill="none" stroke="#C7C7C7" stroke-width="2" stroke-miterlimit="10" d="M45.1,76.9c-0.6,0-1.1,0.5-1.1,1.1
				c0,0.6,0.5,1.1,1.1,1.1s1.1-0.5,1.1-1.1C46.2,77.4,45.7,76.9,45.1,76.9z M44.5,78.2c-0.1,0-0.3-0.1-0.3-0.3
				c0-0.1,0.1-0.3,0.3-0.3s0.3,0.1,0.3,0.3C44.8,78.1,44.7,78.2,44.5,78.2z M45.1,78.8c-0.1,0-0.3-0.1-0.3-0.3
				c0-0.1,0.1-0.3,0.3-0.3c0.1,0,0.3,0.1,0.3,0.3C45.4,78.7,45.2,78.8,45.1,78.8z M45,78c0-0.1,0-0.1,0.1-0.1s0.1,0,0.1,0.1
				s-0.1,0.1-0.1,0.1S45,78.1,45,78z M45.1,77.7c-0.1,0-0.3-0.1-0.3-0.3c0-0.1,0.1-0.3,0.3-0.3c0.1,0,0.3,0.1,0.3,0.3
				C45.4,77.6,45.2,77.7,45.1,77.7z M45.7,78.3c-0.1,0-0.3-0.1-0.3-0.3c0-0.1,0.1-0.3,0.3-0.3c0.1,0,0.3,0.1,0.3,0.3
				C46,78.1,45.8,78.3,45.7,78.3z"/>
		</g>
		<g>
			<g>
				<path fill="#5A73F0" d="M36.7,78C36.7,78,36.7,78,36.7,78l-0.1,1h-0.4v-0.4c0,0,0-0.1-0.1-0.1h-0.3c0,0-0.1,0-0.1,0.1v0.4h-0.4
					v-0.9c0,0,0-0.1-0.1-0.1c0,0-0.1,0-0.1,0.1V79c0,0,0,0.1,0.1,0.1h0.6c0,0,0.1,0,0.1-0.1v-0.4h0.2V79c0,0,0,0.1,0.1,0.1h0.6
					c0,0,0.1,0,0.1-0.1L36.7,78C36.8,78,36.8,78,36.7,78z"/>
				<path fill="#5A73F0" d="M37.1,78l-0.5-0.5v-0.4c0,0,0-0.1-0.1-0.1c0,0-0.1,0-0.1,0.1v0.2l-0.4-0.4c0,0,0,0,0,0c0,0,0,0,0,0
					L35,78c0,0,0,0.1,0,0.1c0,0,0.1,0,0.1,0l1-1L37.1,78c-0.1,0.1-0.1,0.1,0,0.1C37,78.1,37.1,78.1,37.1,78
					C37.1,78.1,37.1,78.1,37.1,78z"/>
			</g>
		</g>
		<g>
			<ellipse fill="none" stroke="#5A73F0" stroke-width="2" stroke-miterlimit="10" cx="53.5" cy="77.1" rx="0.2" ry="0.2"/>
			<path fill="none" stroke="#5A73F0" stroke-width="2" stroke-miterlimit="10" d="M53.2,78.1L53.2,78.1l0,0.4c0,0.1,0,0.1,0.1,0.1
				h0.2c0.1,0,0.1,0,0.1-0.1v0c0,0,0-0.1,0-0.1v-0.6c0-0.1,0.1-0.2,0.2-0.2v0c0-0.1,0-0.1-0.1-0.1h-0.5c-0.1,0-0.1,0-0.1,0.1V78
				C53.1,78,53.2,78.1,53.2,78.1z"/>
			<ellipse fill="none" stroke="#5A73F0" stroke-width="2" stroke-miterlimit="10" cx="54.9" cy="77.1" rx="0.2" ry="0.2"/>
			<path fill="none" stroke="#5A73F0" stroke-width="2" stroke-miterlimit="10" d="M54.6,77.5L54.6,77.5c0.1,0.1,0.2,0.2,0.2,0.3
				v0.5c0,0,0,0.1,0,0.1v0c0,0.1,0,0.1,0.1,0.1H55c0.1,0,0.1,0,0.1-0.1v-0.4h0c0.1,0,0.1,0,0.1-0.1v-0.4c0-0.1,0-0.1-0.1-0.1h-0.5
				C54.7,77.4,54.6,77.5,54.6,77.5z"/>
			<path fill="none" stroke="#5A73F0" stroke-width="2" stroke-miterlimit="10" d="M53.8,77.8L53.8,77.8V78v0.4c0,0.1,0,0.1,0.1,0.1
				h0V79c0,0.1,0,0.1,0.1,0.1h0.3c0.1,0,0.1,0,0.1-0.1v-0.5h0c0.1,0,0.1,0,0.1-0.1V78v-0.2l0,0c0-0.1,0-0.1-0.1-0.1h-0.6
				C53.9,77.7,53.8,77.8,53.8,77.8z"/>
			<ellipse fill="none" stroke="#5A73F0" stroke-width="2" stroke-miterlimit="10" cx="54.2" cy="77.4" rx="0.2" ry="0.2"/>
		</g>
		<g>
			<g>
				<defs>
					<circle id="SVGID_25_" cx="63.4" cy="78" r="1.3"/>
				</defs>
				<clipPath id="SVGID_26_">
					<use xlink:href="#SVGID_25_"  overflow="visible"/>
				</clipPath>
				<g clip-path="url(#SVGID_26_)">
					
						<image overflow="visible" enable-background="new    " width="128" height="128" xlink:href="../../../../../Users/hugonicastro/Desktop/johndoe.jpg"  transform="matrix(2.240556e-02 0 0 2.212222e-02 61.9207 76.7145)">
					</image>
				</g>
			</g>
		</g>
		<text transform="matrix(1 0 0 1 34.0248 80.4415)" fill="#5A73F0" font-family="'Helvetica'" font-size="1.0679">Timeline</text>
		<text transform="matrix(1 0 0 1 42.2876 80.4415)" fill="#C7C7C7" font-family="'Helvetica'" font-size="1.0679">Open Reels</text>
		<text transform="matrix(1 0 0 1 52.4327 80.4415)" fill="#5A73F0" font-family="'Helvetica'" font-size="1.0679">Friends</text>
		<text transform="matrix(1 0 0 1 61.8429 80.4415)" fill="#5A73F0" font-family="'Helvetica'" font-size="1.0679">Profile</text>
	</g>
	<g>
		<g>
			
				<image overflow="visible" enable-background="new    " width="50" height="50" xlink:href="../../../../../Users/hugonicastro/Downloads/Hex Codes Icon/Camera2.png"  transform="matrix(4.853889e-02 0 0 4.853889e-02 46.2404 42.9557)">
			</image>
			
				<image overflow="visible" enable-background="new    " width="50" height="50" xlink:href="../../../../../Users/hugonicastro/Downloads/Hex Codes Icon/Contribs-Blue.png"  transform="matrix(4.853889e-02 0 0 4.853889e-02 50.7787 42.9557)">
			</image>
		</g>
		<text transform="matrix(1 0 0 1 51.598 46.9735)" fill="#808080" font-family="'Helvetica'" font-size="1.0679">24</text>
		<text transform="matrix(1 0 0 1 46.9673 46.9735)" fill="#808080" font-family="'Helvetica'" font-size="1.0679">97</text>
	</g>
	<g>
		<g>
			
				<image overflow="visible" enable-background="new    " width="50" height="50" xlink:href="../../../../../Users/hugonicastro/Downloads/Hex Codes Icon/Camera2.png"  transform="matrix(4.853889e-02 0 0 4.853889e-02 46.2404 55.4788)">
			</image>
			
				<image overflow="visible" enable-background="new    " width="50" height="50" xlink:href="../../../../../Users/hugonicastro/Downloads/Hex Codes Icon/Contribs-Blue.png"  transform="matrix(4.853889e-02 0 0 4.853889e-02 50.7787 55.4788)">
			</image>
		</g>
		<text transform="matrix(1 0 0 1 51.598 59.4973)" fill="#808080" font-family="'Helvetica'" font-size="1.0679">8</text>
		<text transform="matrix(1 0 0 1 46.9673 59.4973)" fill="#808080" font-family="'Helvetica'" font-size="1.0679">78</text>
	</g>
	<rect x="45.6" y="21.4" fill="#FFFFFF" width="8.2" height="0.1"/>
	<g>
		<rect x="31.5" y="16.2" fill="none" width="31.1" height="1.9"/>
	</g>
	<g>
		<path fill="#FFFFFF" d="M40.7,16.9c0.2,0,0.4,0.1,0.5,0.2l0.1-0.1c-0.2-0.1-0.4-0.2-0.6-0.2c-0.2,0-0.4,0.1-0.6,0.2l0.1,0.1
			C40.3,17,40.5,16.9,40.7,16.9z"/>
		<path fill="#FFFFFF" d="M40.7,17.2c0.1,0,0.2,0,0.3,0.1l0.1-0.1C41,17.1,40.8,17,40.7,17c-0.1,0-0.3,0.1-0.4,0.1l0.1,0.1
			C40.5,17.2,40.6,17.2,40.7,17.2z"/>
		<path fill="#FFFFFF" d="M40.9,17.4c-0.1,0-0.1-0.1-0.2-0.1s-0.1,0-0.2,0.1l0.2,0.2L40.9,17.4z"/>
	</g>
	<path fill="#FFFFFF" d="M32.4,16.9c0.2,0,0.3,0.1,0.3,0.3s-0.1,0.3-0.3,0.3c-0.2,0-0.3-0.1-0.3-0.3S32.3,16.9,32.4,16.9z"/>
	<path fill="#FFFFFF" d="M33.1,16.9c0.1,0,0.3,0.1,0.3,0.3s-0.1,0.3-0.3,0.3c-0.2,0-0.3-0.1-0.3-0.3S33,16.9,33.1,16.9z"/>
	<path fill="#FFFFFF" d="M33.8,16.9c0.2,0,0.3,0.1,0.3,0.3s-0.1,0.3-0.3,0.3c-0.2,0-0.3-0.1-0.3-0.3S33.6,16.9,33.8,16.9z"/>
	<path fill="#FFFFFF" d="M34.5,16.9c-0.2,0-0.3,0.1-0.3,0.3c0,0.2,0.1,0.3,0.3,0.3c0.1,0,0.3-0.1,0.3-0.3
		C34.7,17,34.6,16.9,34.5,16.9L34.5,16.9z"/>
	<path fill="#FFFFFF" d="M35.1,16.9c-0.2,0-0.3,0.1-0.3,0.3c0,0.2,0.1,0.3,0.3,0.3c0.2,0,0.3-0.1,0.3-0.3
		C35.4,17,35.3,16.9,35.1,16.9L35.1,16.9z"/>
	<text transform="matrix(1 0 0 1 35.7927 17.5895)" fill="#FFFFFF" font-family="'HelveticaNeue'" font-size="1.1649">Carrier</text>
	<g>
		<path fill="#FFFFFF" d="M66.5,17c0.1,0,0.1,0.1,0.1,0.2c0,0.1,0,0.2-0.1,0.2V17z"/>
		<path fill="#FFFFFF" d="M66.3,16.8C66.3,16.8,66.4,16.8,66.3,16.8l0.1,0.7c0,0.1,0,0.1-0.1,0.1h-1.9c-0.1,0-0.1,0-0.1-0.1v-0.6
			c0-0.1,0-0.1,0.1-0.1H66.3 M66.3,16.7h-1.9c-0.1,0-0.1,0.1-0.1,0.1v0.6c0,0.1,0.1,0.1,0.1,0.1h1.9c0.1,0,0.1-0.1,0.1-0.1v-0.6
			C66.4,16.8,66.3,16.7,66.3,16.7L66.3,16.7z"/>
		<path fill="#04FB0A" d="M64.4,16.8h1.8c0.1,0,0.1,0,0.1,0.1v0.5c0,0.1,0,0.1-0.1,0.1h-1.8c-0.1,0-0.1,0-0.1-0.1L64.4,16.8
			C64.3,16.9,64.4,16.8,64.4,16.8z"/>
		<polygon fill="#FFFFFF" points="66.8,17.1 67.1,16.7 67.1,17 67.3,17 67,17.5 67,17.1 		"/>
		<text transform="matrix(1 0 0 1 60.7939 17.5605)" fill="#FFFFFF" font-family="'HelveticaNeue'" font-size="1.1649">100%</text>
	</g>
	<text transform="matrix(1 0 0 1 47.5455 17.5895)" fill="#FFFFFF" font-family="'HelveticaNeue-Medium'" font-size="1.1649">8:08 AM</text>
</g>
</svg>
