<?xml version="1.0" encoding="utf-8"?>
<!-- Generator: Adobe Illustrator 18.0.0, SVG Export Plug-In . SVG Version: 6.00 Build 0)  -->
<!DOCTYPE svg PUBLIC "-//W3C//DTD SVG 1.1//EN" "http://www.w3.org/Graphics/SVG/1.1/DTD/svg11.dtd">
<svg version="1.1" id="Layer_1" xmlns="http://www.w3.org/2000/svg" xmlns:xlink="http://www.w3.org/1999/xlink" x="0px" y="0px"
	 viewBox="0 0 355.2 106.6" enable-background="new 0 0 355.2 106.6" xml:space="preserve">
<g>
	<path fill="#FFFFFF" d="M59.2,58c-0.5-8.3-1-18.2-0.9-25.6H58c-2.1,7-4.8,14.4-7.9,22.6L39,83.8h-6.1L22.7,55.5
		c-3-8.4-5.5-16-7.3-23.1h-0.2c-0.2,7.4-0.7,17.4-1.2,26.3l-1.7,25.5H4.7L9,24.7h10.3l10.7,28.7c2.6,7.3,4.7,13.8,6.3,20h0.3
		c1.6-6,3.8-12.5,6.6-20l11.2-28.7h10.3l3.9,59.4h-7.9L59.2,58z"/>
	<path fill="#FFFFFF" d="M135.1,41.5l8.8,24c1.5,3.9,2.7,7.4,3.6,10.9h0.3c1-3.5,2.3-7,3.8-10.9l8.8-24h8.6l-17.7,42.6h-7.8
		l-17.1-42.6H135.1z"/>
	<path fill="#FFFFFF" d="M185.9,29.5c0.1,2.6-2,4.8-5.2,4.8c-2.9,0-4.9-2.1-4.9-4.8c0-2.7,2.1-4.8,5.1-4.8
		C183.9,24.7,185.9,26.8,185.9,29.5z M176.8,84.1V41.5h8.2v42.6H176.8z"/>
	<path fill="#FFFFFF" stroke="#FFFFFF" stroke-miterlimit="10" d="M198.8,25.5c4.1-0.8,10-1.2,15.6-1.2c8.7,0,14.2,1.5,18.2,4.8
		c3.2,2.6,4.9,6.7,4.9,11.3c0,7.8-5.2,13-11.8,15.2v0.3c4.8,1.6,7.7,5.8,9.2,12c2,8.3,3.5,14,4.8,16.3h-8.4c-1-1.7-2.4-6.8-4.2-14.2
		c-1.9-8.2-5.2-11.3-12.6-11.5h-7.6v25.7h-8.1V25.5z M206.9,52.6h8.3c8.7,0,14.2-4.5,14.2-11.3c0-7.7-5.9-11-14.4-11.1
		c-3.9,0-6.7,0.4-8,0.7V52.6z"/>
	<path fill="#FFFFFF" stroke="#FFFFFF" stroke-miterlimit="10" d="M253.6,64.2c0.2,10.5,7.3,14.8,15.5,14.8c5.9,0,9.4-1,12.5-2.2
		l1.4,5.5c-2.9,1.2-7.8,2.6-15,2.6c-13.9,0-22.2-8.6-22.2-21.5s8-23,21.1-23c14.7,0,18.6,12.2,18.6,20.1c0,1.6-0.2,2.8-0.3,3.6
		H253.6z M277.6,58.7c0.1-4.9-2.1-12.6-11.4-12.6c-8.3,0-11.9,7.2-12.6,12.6H277.6z"/>
	<path fill="#FFFFFF" stroke="#FFFFFF" stroke-miterlimit="10" d="M300.3,64.2c0.2,10.5,7.3,14.8,15.5,14.8c5.9,0,9.4-1,12.5-2.2
		l1.4,5.5c-2.9,1.2-7.8,2.6-15,2.6c-13.9,0-22.2-8.6-22.2-21.5s8-23,21.1-23c14.7,0,18.6,12.2,18.6,20.1c0,1.6-0.2,2.8-0.3,3.6
		H300.3z M324.3,58.7c0.1-4.9-2.1-12.6-11.4-12.6c-8.3,0-11.9,7.2-12.6,12.6H324.3z"/>
	<path fill="#FFFFFF" stroke="#FFFFFF" stroke-miterlimit="10" d="M342.3,21.6h8.2v62.5h-8.2V21.6z"/>
	<g>
		<path fill="#FFFFFF" d="M100.7,40.9c-12.6,0-22.6,9.5-22.6,21.4s10,21.4,22.6,21.4s22.6-9.5,22.6-21.4S113.1,40.9,100.7,40.9z
			 M88.2,67.3c-3,0-5.5-2.4-5.4-5.2c0-2.8,2.5-5.2,5.5-5.1c3,0,5.5,2.4,5.4,5.2C93.6,65,91.2,67.3,88.2,67.3z M100.6,79.1
			c-3,0-5.5-2.4-5.4-5.2c0-2.8,2.5-5.2,5.5-5.1c3,0,5.5,2.4,5.4,5.2C106.1,76.7,103.5,79.1,100.6,79.1z M98.3,62.3
			c0-1.2,1-2.2,2.4-2.2c1.4,0,2.4,1,2.4,2.2c0,1.2-1,2.2-2.3,2.2C99.3,64.5,98.3,63.4,98.3,62.3z M100.7,55.7c-3,0-5.5-2.4-5.4-5.2
			c0-2.8,2.5-5.2,5.5-5.1c3,0,5.5,2.4,5.4,5.2C106.1,53.4,103.6,55.7,100.7,55.7z M113,67.4c-3,0-5.5-2.4-5.4-5.2
			c0-2.8,2.5-5.2,5.5-5.1c3,0,5.5,2.4,5.4,5.2C118.4,65.1,116,67.4,113,67.4z"/>
	</g>
</g>
</svg>
