<?xml version="1.0" encoding="utf-8"?>
<!-- Generator: Adobe Illustrator 18.0.0, SVG Export Plug-In . SVG Version: 6.00 Build 0)  -->
<!DOCTYPE svg PUBLIC "-//W3C//DTD SVG 1.1//EN" "http://www.w3.org/Graphics/SVG/1.1/DTD/svg11.dtd">
<svg version="1.1" id="Layer_1" xmlns="http://www.w3.org/2000/svg" xmlns:xlink="http://www.w3.org/1999/xlink" x="0px" y="0px"
	 viewBox="0 329.1 700 300" enable-background="new 0 329.1 700 300" xml:space="preserve">
<rect x="949.9" y="431" stroke="#000000" stroke-miterlimit="10" width="700" height="300"/>
<rect y="0" stroke="#000000" stroke-miterlimit="10" width="700" height="300"/>
<g>
	
		<linearGradient id="SVGID_1_" gradientUnits="userSpaceOnUse" x1="140.3" y1="78.8" x2="140.3" y2="300" gradientTransform="matrix(1.8248 0 0 -1.8248 94.9818 547.4453)">
		<stop  offset="0.2092" style="stop-color:#5A73FF;stop-opacity:0"/>
		<stop  offset="0.3347" style="stop-color:#6078FF;stop-opacity:0.1587"/>
		<stop  offset="0.5004" style="stop-color:#7186FD;stop-opacity:0.3683"/>
		<stop  offset="0.6887" style="stop-color:#8C9DFB;stop-opacity:0.6064"/>
		<stop  offset="0.8921" style="stop-color:#B2BDF8;stop-opacity:0.8636"/>
		<stop  offset="1" style="stop-color:#C9D0F6"/>
	</linearGradient>
	<path fill="url(#SVGID_1_)" d="M351,0C238.8,0,149.2,89.6,149.2,201.8S238.8,403.6,351,403.6s201.8-89.6,201.8-201.8S461.6,0,351,0
		z M239.9,249.3c-26.3,0-48.5-22.3-47.8-48.5c0-26.3,22.3-48.5,48.5-47.8c26.3,0,48.5,22.3,47.8,48.5
		C287.7,227.7,266.7,249.3,239.9,249.3z M349.7,360.2c-26.3,0-48.5-22.3-47.8-48.5c0-26.3,22.3-48.5,48.5-47.8
		c26.3,0,48.5,22.3,47.8,48.5C398.8,337.6,376.2,360.2,349.7,360.2z M329.5,201.8c0-10.9,9.3-21,21-21c12.2,0,21,9.3,21,21
		c0,11.7-8.6,21-20.6,21S329.5,212.4,329.5,201.8z M351,139.4c-26.3,0-48.5-22.3-47.8-48.5c0-26.3,22.3-48.5,48.5-47.8
		c26.3,0,48.5,22.3,47.8,48.5C398.8,118.2,377.3,139.4,351,139.4z M460.9,250.4c-26.3,0-48.5-22.3-47.8-48.5
		c0-26.3,22.3-48.5,48.5-47.8c26.3,0,48.5,22.3,47.8,48.5C509,228.1,487.1,250.4,460.9,250.4z"/>
</g>
<text transform="matrix(1 0 0 1 89.8631 294.9119)" fill="#FFFFFF" font-family="'MyriadPro-Regular'" font-size="133.8606">Movi</text>
<text transform="matrix(1 0 0 1 366.6887 294.9119)" fill="#FFFFFF" font-family="'MyriadPro-Semibold'" font-size="133.8606">Reel</text>
<g>
	
		<linearGradient id="SVGID_2_" gradientUnits="userSpaceOnUse" x1="140.85" y1="-102.2761" x2="140.85" y2="118.9239" gradientTransform="matrix(1.8248 0 0 -1.8248 94.9818 547.4453)">
		<stop  offset="0.2092" style="stop-color:#5A73FF;stop-opacity:0"/>
		<stop  offset="0.3347" style="stop-color:#6078FF;stop-opacity:0.1587"/>
		<stop  offset="0.5004" style="stop-color:#7186FD;stop-opacity:0.3683"/>
		<stop  offset="0.6887" style="stop-color:#8C9DFB;stop-opacity:0.6064"/>
		<stop  offset="0.8921" style="stop-color:#B2BDF8;stop-opacity:0.8636"/>
		<stop  offset="1" style="stop-color:#C9D0F6"/>
	</linearGradient>
	<path fill="url(#SVGID_2_)" d="M352,330.4c-112.2,0-201.8,89.6-201.8,201.8S239.8,734.1,352,734.1s201.8-89.6,201.8-201.8
		S462.6,330.4,352,330.4z M240.9,579.7c-26.3,0-48.5-22.3-47.8-48.5c0-26.3,22.3-48.5,48.5-47.8c26.3,0,48.5,22.3,47.8,48.5
		C288.7,558.2,267.7,579.7,240.9,579.7z M350.7,690.6c-26.3,0-48.5-22.3-47.8-48.5c0-26.3,22.3-48.5,48.5-47.8
		c26.3,0,48.5,22.3,47.8,48.5C399.8,668,377.2,690.6,350.7,690.6z M330.5,532.3c0-10.9,9.3-21,21-21c12.2,0,21,9.3,21,21
		s-8.6,21-20.6,21S330.5,542.8,330.5,532.3z M352,469.8c-26.3,0-48.5-22.3-47.8-48.5c0-26.3,22.3-48.5,48.5-47.8
		c26.3,0,48.5,22.3,47.8,48.5C399.8,448.7,378.3,469.8,352,469.8z M461.9,580.8c-26.3,0-48.5-22.3-47.8-48.5
		c0-26.3,22.3-48.5,48.5-47.8c26.3,0,48.5,22.3,47.8,48.5C510,558.5,488.1,580.8,461.9,580.8z"/>
</g>
<g>
	
		<linearGradient id="SVGID_3_" gradientUnits="userSpaceOnUse" x1="660.8233" y1="-157.3621" x2="660.8233" y2="63.8379" gradientTransform="matrix(1.8248 0 0 -1.8248 94.9818 547.4453)">
		<stop  offset="0.2092" style="stop-color:#5A73FF;stop-opacity:0"/>
		<stop  offset="0.3347" style="stop-color:#6078FF;stop-opacity:0.1587"/>
		<stop  offset="0.5004" style="stop-color:#7186FD;stop-opacity:0.3683"/>
		<stop  offset="0.6887" style="stop-color:#8C9DFB;stop-opacity:0.6064"/>
		<stop  offset="0.8921" style="stop-color:#B2BDF8;stop-opacity:0.8636"/>
		<stop  offset="1" style="stop-color:#C9D0F6"/>
	</linearGradient>
	<path fill="url(#SVGID_3_)" d="M1300.9,431c-112.2,0-201.8,89.6-201.8,201.8s89.6,201.8,201.8,201.8
		c112.2,0,201.8-89.6,201.8-201.8S1411.4,431,1300.9,431z M1189.7,680.2c-26.3,0-48.5-22.3-47.8-48.5c0-26.3,22.3-48.5,48.5-47.8
		c26.3,0,48.5,22.3,47.8,48.5C1237.5,658.7,1216.6,680.2,1189.7,680.2z M1299.6,791.2c-26.3,0-48.5-22.3-47.8-48.5
		c0-26.3,22.3-48.5,48.5-47.8c26.3,0,48.5,22.3,47.8,48.5C1348.7,768.5,1326,791.2,1299.6,791.2z M1279.3,632.8c0-10.9,9.3-21,21-21
		c12.2,0,21,9.3,21,21s-8.6,21-20.6,21C1288.6,653.8,1279.3,643.4,1279.3,632.8z M1300.9,570.4c-26.3,0-48.5-22.3-47.8-48.5
		c0-26.3,22.3-48.5,48.5-47.8c26.3,0,48.5,22.3,47.8,48.5C1348.7,549.2,1327.1,570.4,1300.9,570.4z M1410.7,681.3
		c-26.3,0-48.5-22.3-47.8-48.5c0-26.3,22.3-48.5,48.5-47.8c26.3,0,48.5,22.3,47.8,48.5C1458.9,659.1,1437,681.3,1410.7,681.3z"/>
</g>
<g>
	<path fill="#FFFFFF" d="M1108.6,632.5h17l6.6,89.9h-18.5l-3.1-55.9l-19.8,40.8h-19.4l-19.8-40.8l-3.1,55.9h-18.5l6.6-89.9h17
		l27.5,58L1108.6,632.5z"/>
	<path fill="#FFFFFF" d="M1210.9,689.6c0,4.8-0.7,9.2-2.2,13.4c-1.5,4.1-3.7,7.8-6.5,10.9c-2.9,3.1-6.4,5.5-10.6,7.3
		c-4.2,1.8-9,2.6-14.5,2.6c-5.5,0-10.3-0.9-14.5-2.6s-7.7-4.2-10.6-7.3c-2.9-3.1-5.1-6.7-6.5-10.9c-1.5-4.1-2.2-8.6-2.2-13.4
		c0-4.8,0.7-9.2,2.2-13.4c1.5-4.1,3.7-7.8,6.5-10.9c2.9-3.1,6.4-5.6,10.6-7.4c4.2-1.8,9-2.7,14.5-2.7c5.5,0,10.3,0.9,14.5,2.7
		c4.2,1.8,7.7,4.3,10.6,7.4c2.9,3.1,5.1,6.7,6.5,10.9C1210.1,680.3,1210.9,684.8,1210.9,689.6z M1192.4,689.6c0-2.7-0.3-5.3-0.8-7.8
		c-0.5-2.5-1.4-4.7-2.6-6.5c-1.2-1.9-2.8-3.4-4.8-4.5c-2-1.1-4.4-1.7-7.2-1.7c-2.9,0-5.3,0.6-7.2,1.7c-1.9,1.1-3.5,2.6-4.7,4.5
		c-1.2,1.9-2.1,4.1-2.6,6.5c-0.5,2.5-0.8,5.1-0.8,7.8c0,2.7,0.3,5.3,0.8,7.7c0.5,2.4,1.4,4.6,2.6,6.5s2.8,3.4,4.7,4.5
		c1.9,1.1,4.3,1.7,7.2,1.7c2.8,0,5.2-0.6,7.2-1.7c2-1.1,3.6-2.6,4.8-4.5s2.1-4,2.6-6.5C1192.1,694.8,1192.4,692.3,1192.4,689.6z"/>
	<path fill="#FFFFFF" d="M1239.2,722.4l-23.1-65.7h18.6l14.3,48.5l14.2-48.5h18.6l-23.1,65.7H1239.2z"/>
	<path fill="#FFFFFF" d="M1290,637.4c0-3,1-5.5,3-7.6c2-2.1,4.5-3.1,7.7-3.1c3.1,0,5.7,1,7.8,3.1c2,2.1,3,4.6,3,7.6
		c0,2.9-1,5.4-3,7.5c-2,2.1-4.6,3.2-7.8,3.2c-3.2,0-5.7-1.1-7.7-3.2C1291,642.8,1290,640.3,1290,637.4z M1291.5,722.4v-65.7h18.5
		v65.7H1291.5z"/>
	<path fill="#FFFFFF" d="M1395.3,660.9c0,6-1.7,11.3-5.1,15.8c-3.4,4.5-8.1,7.9-14.1,10.3l29.6,35.4h-27.3l-24.7-31.2h-4v31.2h-22.1
		v-89.9h28.6c5.6,0,10.8,0.6,15.5,1.8c4.8,1.2,8.9,2.9,12.4,5.3c3.5,2.3,6.3,5.3,8.2,8.8C1394.3,651.9,1395.3,656.1,1395.3,660.9z
		 M1374,661.3c0-4.1-1.6-7-4.7-9c-3.2-1.9-7.6-2.9-13.2-2.9h-6.3v25.2h5.4c5.9,0,10.6-1.2,13.9-3.5
		C1372.3,668.9,1374,665.6,1374,661.3z"/>
	<path fill="#FFFFFF" d="M1442.4,654.9c8.6,0,15.5,2.5,20.5,7.6c5,5.1,7.6,12.1,7.6,21.1c0,3.4-0.4,7.1-1.2,10.9h-38.3
		c0.2,4,1.6,7.3,4.1,9.8c2.6,2.5,6.5,3.7,11.8,3.7c3.2,0,6.6-0.3,10.2-0.9c3.6-0.6,6.6-1.5,9.2-2.6l2.7,13.9
		c-3.4,1.7-7.3,3-11.5,3.9c-4.3,0.9-8.7,1.3-13.3,1.3c-5.8,0-10.8-0.8-15.3-2.5c-4.4-1.7-8.1-4-11.1-7c-3-3-5.2-6.5-6.8-10.7
		c-1.5-4.1-2.3-8.7-2.3-13.8c0-5.4,0.8-10.3,2.4-14.6c1.6-4.3,3.8-8,6.8-11c2.9-3,6.5-5.3,10.6-7
		C1432.6,655.7,1437.3,654.9,1442.4,654.9z M1441.7,668.6c-3.4,0-6.1,1.1-7.9,3.3c-1.8,2.2-2.8,5.2-2.8,9.1h19.2
		c0.2-0.7,0.3-1.5,0.3-2.3c0-2.9-0.8-5.3-2.3-7.2C1446.7,669.6,1444.5,668.6,1441.7,668.6z"/>
	<path fill="#FFFFFF" d="M1512.5,654.9c8.6,0,15.5,2.5,20.5,7.6c5,5.1,7.6,12.1,7.6,21.1c0,3.4-0.4,7.1-1.2,10.9H1501
		c0.2,4,1.6,7.3,4.1,9.8c2.6,2.5,6.5,3.7,11.8,3.7c3.2,0,6.6-0.3,10.2-0.9c3.6-0.6,6.6-1.5,9.2-2.6l2.7,13.9
		c-3.4,1.7-7.3,3-11.5,3.9c-4.3,0.9-8.7,1.3-13.3,1.3c-5.8,0-10.8-0.8-15.3-2.5c-4.4-1.7-8.1-4-11.1-7c-3-3-5.2-6.5-6.8-10.7
		c-1.5-4.1-2.3-8.7-2.3-13.8c0-5.4,0.8-10.3,2.4-14.6c1.6-4.3,3.8-8,6.8-11c2.9-3,6.5-5.3,10.6-7
		C1502.7,655.7,1507.3,654.9,1512.5,654.9z M1511.8,668.6c-3.4,0-6.1,1.1-7.9,3.3c-1.8,2.2-2.8,5.2-2.8,9.1h19.2
		c0.2-0.7,0.3-1.5,0.3-2.3c0-2.9-0.8-5.3-2.3-7.2C1516.7,669.6,1514.6,668.6,1511.8,668.6z"/>
	<path fill="#FFFFFF" d="M1551.9,722.4v-95.3h21.6v95.3"/>
</g>
<g>
	<path fill="#FFFFFF" d="M168,586.7c-0.5-11.5-1.2-25.5-1.1-37.5h-0.4c-2.9,10.9-6.6,22.9-10.6,34.2l-13,38.7h-12.6l-11.9-38.2
		c-3.4-11.4-6.6-23.6-9-34.7h-0.3c-0.4,11.7-0.9,25.9-1.6,38.1l-2,35.9H90.3l6-89.4h21.5l11.7,35.9c3.2,10.5,6,21.1,8.2,31h0.4
		c2.4-9.7,5.4-20.7,8.9-31.2l12.3-35.8h21.2l5.2,89.4h-15.9L168,586.7z"/>
	<path fill="#FFFFFF" d="M263.6,590.3c0,23.7-16.7,34.3-33.2,34.3c-18.3,0-32.4-12.6-32.4-33.3c0-21.2,13.9-34.2,33.4-34.2
		C250.8,557.1,263.6,570.7,263.6,590.3z M214.9,591c0,12.5,6.1,21.9,16,21.9c9.3,0,15.8-9.2,15.8-22.1c0-10.1-4.5-21.6-15.6-21.6
		C219.6,569.1,214.9,580.2,214.9,591z"/>
	<path fill="#FFFFFF" d="M286.3,558.6l10.5,32.8c1.9,5.7,3.2,10.9,4.4,16.2h0.4c1.2-5.3,2.7-10.3,4.4-16.2l10.2-32.8h17.2
		l-24.7,64.6h-16l-24-64.6H286.3z"/>
	<path fill="#FFFFFF" d="M360.7,540.6c0,4.9-3.6,8.8-9.3,8.8c-5.4,0-9-3.8-9-8.8c0-5,3.7-8.9,9.2-8.9
		C357.1,531.7,360.5,535.5,360.7,540.6z M343.3,623.2v-64.6h16.4v64.6H343.3z"/>
	<path fill="#FFFFFF" d="M377.3,535c6.5-1.1,16.2-1.9,26.9-1.9c13.3,0,22.5,2,28.9,7c5.3,4.2,8.2,10.5,8.2,18.7
		c0,11.4-8.1,19.2-15.8,22v0.4c6.2,2.5,9.7,8.5,11.9,16.7c2.8,10.1,5.6,21.7,7.3,25.2h-20.7c-1.5-2.5-3.6-9.8-6.2-20.8
		c-2.4-11.1-6.2-14.2-14.5-14.3h-6.1v35.1h-20V535z M397.3,573.5h8c10.1,0,16-5,16-12.9c0-8.2-5.6-12.3-14.9-12.5
		c-4.9,0-7.7,0.4-9.2,0.7V573.5z"/>
	<path fill="#FFFFFF" d="M470.7,597.2c0.7,8.4,8.9,12.3,18.3,12.3c6.9,0,12.5-0.9,17.9-2.7l2.7,13.7c-6.6,2.7-14.7,4-23.5,4
		c-22,0-34.6-12.7-34.6-33c0-16.4,10.2-34.6,32.8-34.6c21,0,28.9,16.3,28.9,32.4c0,3.4-0.4,6.5-0.7,8H470.7z M494.5,583.4
		c0-4.9-2.1-13.1-11.4-13.1c-8.5,0-11.9,7.7-12.5,13.1H494.5z"/>
	<path fill="#FFFFFF" d="M540.8,597.2c0.7,8.4,8.9,12.3,18.3,12.3c6.9,0,12.5-0.9,17.9-2.7l2.7,13.7c-6.6,2.7-14.7,4-23.5,4
		c-22,0-34.6-12.7-34.6-33c0-16.4,10.2-34.6,32.8-34.6c21,0,28.9,16.3,28.9,32.4c0,3.4-0.4,6.5-0.7,8H540.8z M564.5,583.4
		c0-4.9-2.1-13.1-11.4-13.1c-8.5,0-11.9,7.7-12.5,13.1H564.5z"/>
	<path fill="#FFFFFF" d="M595.3,529h20.2v94.2h-20.2V529z"/>
</g>
</svg>
