<?xml version="1.0" encoding="utf-8"?>
<!-- Generator: Adobe Illustrator 18.0.0, SVG Export Plug-In . SVG Version: 6.00 Build 0)  -->
<!DOCTYPE svg PUBLIC "-//W3C//DTD SVG 1.1//EN" "http://www.w3.org/Graphics/SVG/1.1/DTD/svg11.dtd">
<svg version="1.1" id="Layer_1" xmlns="http://www.w3.org/2000/svg" xmlns:xlink="http://www.w3.org/1999/xlink" x="0px" y="0px"
	 viewBox="0 0 279.5 164.4" enable-background="new 0 0 279.5 164.4" xml:space="preserve">
<g>
	<linearGradient id="SVGID_1_" gradientUnits="userSpaceOnUse" x1="140.29" y1="221.1846" x2="140.29" y2="9.094947e-13">
		<stop  offset="0.2092" style="stop-color:#5A73FF;stop-opacity:0"/>
		<stop  offset="0.3347" style="stop-color:#6078FF;stop-opacity:0.1587"/>
		<stop  offset="0.5004" style="stop-color:#7186FD;stop-opacity:0.3683"/>
		<stop  offset="0.6887" style="stop-color:#8C9DFB;stop-opacity:0.6064"/>
		<stop  offset="0.8921" style="stop-color:#B2BDF8;stop-opacity:0.8636"/>
		<stop  offset="1" style="stop-color:#C9D0F6"/>
	</linearGradient>
	<path fill="url(#SVGID_1_)" d="M140.3,0C78.8,0,29.7,49.1,29.7,110.6s49.1,110.6,110.6,110.6s110.6-49.1,110.6-110.6
		S200.9,0,140.3,0z M79.4,136.6c-14.4,0-26.6-12.2-26.2-26.6c0-14.4,12.2-26.6,26.6-26.2c14.4,0,26.6,12.2,26.2,26.6
		C105.6,124.8,94.1,136.6,79.4,136.6z M139.6,197.4c-14.4,0-26.6-12.2-26.2-26.6c0-14.4,12.2-26.6,26.6-26.2
		c14.4,0,26.6,12.2,26.2,26.6C166.5,185,154.1,197.4,139.6,197.4z M128.5,110.6c0-6,5.1-11.5,11.5-11.5c6.7,0,11.5,5.1,11.5,11.5
		c0,6.4-4.7,11.5-11.3,11.5C133.6,122.1,128.5,116.4,128.5,110.6z M140.3,76.4c-14.4,0-26.6-12.2-26.2-26.6
		c0-14.4,12.2-26.6,26.6-26.2c14.4,0,26.6,12.2,26.2,26.6C166.5,64.8,154.7,76.4,140.3,76.4z M200.5,137.2
		c-14.4,0-26.6-12.2-26.2-26.6c0-14.4,12.2-26.6,26.6-26.2c14.4,0,26.6,12.2,26.2,26.6C226.9,125,214.9,137.2,200.5,137.2z"/>
</g>
<text transform="matrix(1 0 0 1 -3.7773 163.2086)" opacity="0.76"><tspan x="0" y="0" fill="#FFFFFF" font-family="'MyriadPro-Regular'" font-size="73.3556">Movi</tspan><tspan x="151.7" y="0" fill="#FFFFFF" font-family="'MyriadPro-Semibold'" font-size="73.3556">Reel</tspan></text>
</svg>
