<?xml version="1.0" encoding="utf-8"?>
<!-- Generator: Adobe Illustrator 19.2.1, SVG Export Plug-In . SVG Version: 6.00 Build 0)  -->
<!DOCTYPE svg PUBLIC "-//W3C//DTD SVG 1.1//EN" "http://www.w3.org/Graphics/SVG/1.1/DTD/svg11.dtd">
<svg version="1.1" id="Layer_1" xmlns="http://www.w3.org/2000/svg" xmlns:xlink="http://www.w3.org/1999/xlink" x="0px" y="0px"
	 viewBox="0 0 525 300" style="enable-background:new 0 0 525 300;" xml:space="preserve">
<style type="text/css">
	.st0{stroke:#000000;stroke-miterlimit:10;}
	.st1{fill:url(#SVGID_1_);}
	.st2{enable-background:new    ;}
	.st3{fill:#FFFFFF;}
	.st4{fill:url(#SVGID_2_);}
	.st5{clip-path:url(#SVGID_4_);}
	.st6{fill:url(#SVGID_5_);}
</style>
<rect x="842" y="423.5" class="st0" width="700" height="300"/>
<rect x="821.4" y="-21" class="st0" width="700" height="300"/>
<g>
	
		<linearGradient id="SVGID_1_" gradientUnits="userSpaceOnUse" x1="519.9964" y1="-475.2053" x2="519.9964" y2="-254.0304" gradientTransform="matrix(1.8248 0 0 -1.8248 223.5421 -484.5547)">
		<stop  offset="0.2092" style="stop-color:#5A73FF;stop-opacity:0"/>
		<stop  offset="0.3347" style="stop-color:#6078FF;stop-opacity:0.1587"/>
		<stop  offset="0.5004" style="stop-color:#7186FD;stop-opacity:0.3683"/>
		<stop  offset="0.6887" style="stop-color:#8C9DFB;stop-opacity:0.6064"/>
		<stop  offset="0.8921" style="stop-color:#B2BDF8;stop-opacity:0.8636"/>
		<stop  offset="1" style="stop-color:#C9D0F6"/>
	</linearGradient>
	<path class="st1" d="M1172.4-21c-112.2,0-201.8,89.6-201.8,201.8s89.6,201.8,201.8,201.8c112.2,0,201.8-89.6,201.8-201.8
		S1283-21,1172.4-21z M1061.3,228.3c-26.3,0-48.5-22.3-47.8-48.5c0-26.3,22.3-48.5,48.5-47.8c26.3,0,48.5,22.3,47.8,48.5
		S1088.1,228.3,1061.3,228.3z M1171.1,339.2c-26.3,0-48.5-22.3-47.8-48.5c0-26.3,22.3-48.5,48.5-47.8c26.3,0,48.5,22.3,47.8,48.5
		C1220.2,316.6,1197.6,339.2,1171.1,339.2z M1150.9,180.8c0-10.9,9.3-21,21-21c12.2,0,21,9.3,21,21s-8.6,21-20.6,21
		S1150.9,191.4,1150.9,180.8z M1172.4,118.4c-26.3,0-48.5-22.3-47.8-48.5c0-26.3,22.3-48.5,48.5-47.8c26.3,0,48.5,22.3,47.8,48.5
		C1220.2,97.2,1198.7,118.4,1172.4,118.4z M1282.3,229.4c-26.3,0-48.5-22.3-47.8-48.5c0-26.3,22.3-48.5,48.5-47.8
		c26.3,0,48.5,22.3,47.8,48.5C1330.4,207.1,1308.5,229.4,1282.3,229.4z"/>
</g>
<text transform="matrix(1 0 0 1 911.2946 273.9119)" class="st3" style="font-family:'MyriadPro-Regular'; font-size:133.8606px;">Movi</text>
<text transform="matrix(1 0 0 1 1188.1202 273.9119)" class="st3" style="font-family:'MyriadPro-Semibold'; font-size:133.8606px;">Reel</text>
<g>
	
		<linearGradient id="SVGID_2_" gradientUnits="userSpaceOnUse" x1="531.2853" y1="-722.9037" x2="531.2853" y2="-501.7288" gradientTransform="matrix(1.8248 0 0 -1.8248 223.5421 -484.5547)">
		<stop  offset="0.2092" style="stop-color:#5A73FF;stop-opacity:0"/>
		<stop  offset="0.3347" style="stop-color:#6078FF;stop-opacity:0.1587"/>
		<stop  offset="0.5004" style="stop-color:#7186FD;stop-opacity:0.3683"/>
		<stop  offset="0.6887" style="stop-color:#8C9DFB;stop-opacity:0.6064"/>
		<stop  offset="0.8921" style="stop-color:#B2BDF8;stop-opacity:0.8636"/>
		<stop  offset="1" style="stop-color:#C9D0F6"/>
	</linearGradient>
	<path class="st4" d="M1193,431c-112.2,0-201.8,89.6-201.8,201.8s89.6,201.8,201.8,201.8c112.2,0,201.8-89.6,201.8-201.8
		C1394.8,520.6,1303.5,431,1193,431z M1081.8,680.2c-26.3,0-48.5-22.3-47.8-48.5c0-26.3,22.3-48.5,48.5-47.8
		c26.3,0,48.5,22.3,47.8,48.5C1129.6,658.7,1108.7,680.2,1081.8,680.2z M1191.7,791.2c-26.3,0-48.5-22.3-47.8-48.5
		c0-26.3,22.3-48.5,48.5-47.8c26.3,0,48.5,22.3,47.8,48.5C1240.8,768.5,1218.1,791.2,1191.7,791.2z M1171.4,632.8
		c0-10.9,9.3-21,21-21c12.2,0,21,9.3,21,21s-8.6,21-20.6,21C1180.7,653.8,1171.4,643.4,1171.4,632.8z M1193,570.4
		c-26.3,0-48.5-22.3-47.8-48.5c0-26.3,22.3-48.5,48.5-47.8c26.3,0,48.5,22.3,47.8,48.5C1240.8,549.2,1219.2,570.4,1193,570.4z
		 M1302.8,681.3c-26.3,0-48.5-22.3-47.8-48.5c0-26.3,22.3-48.5,48.5-47.8c26.3,0,48.5,22.3,47.8,48.5
		C1351,659.1,1329.1,681.3,1302.8,681.3z"/>
</g>
<g>
	<path class="st3" d="M1000.7,632.5h17l6.6,89.9h-18.5l-3.1-55.9l-19.8,40.8h-19.4l-19.8-40.8l-3.1,55.9h-18.5l6.6-89.9h17l27.5,58
		L1000.7,632.5z"/>
	<path class="st3" d="M1103,689.6c0,4.8-0.7,9.2-2.2,13.4c-1.5,4.1-3.7,7.8-6.5,10.9c-2.9,3.1-6.4,5.5-10.6,7.3s-9,2.6-14.5,2.6
		s-10.3-0.9-14.5-2.6s-7.7-4.2-10.6-7.3s-5.1-6.7-6.5-10.9c-1.5-4.1-2.2-8.6-2.2-13.4s0.7-9.2,2.2-13.4c1.5-4.1,3.7-7.8,6.5-10.9
		c2.9-3.1,6.4-5.6,10.6-7.4s9-2.7,14.5-2.7s10.3,0.9,14.5,2.7s7.7,4.3,10.6,7.4c2.9,3.1,5.1,6.7,6.5,10.9
		C1102.2,680.3,1103,684.8,1103,689.6z M1084.5,689.6c0-2.7-0.3-5.3-0.8-7.8s-1.4-4.7-2.6-6.5c-1.2-1.9-2.8-3.4-4.8-4.5
		s-4.4-1.7-7.2-1.7c-2.9,0-5.3,0.6-7.2,1.7c-1.9,1.1-3.5,2.6-4.7,4.5s-2.1,4.1-2.6,6.5c-0.5,2.5-0.8,5.1-0.8,7.8s0.3,5.3,0.8,7.7
		s1.4,4.6,2.6,6.5s2.8,3.4,4.7,4.5c1.9,1.1,4.3,1.7,7.2,1.7c2.8,0,5.2-0.6,7.2-1.7c2-1.1,3.6-2.6,4.8-4.5s2.1-4,2.6-6.5
		S1084.5,692.3,1084.5,689.6z"/>
	<path class="st3" d="M1131.3,722.4l-23.1-65.7h18.6l14.3,48.5l14.2-48.5h18.6l-23.1,65.7H1131.3z"/>
	<path class="st3" d="M1182.1,637.4c0-3,1-5.5,3-7.6s4.5-3.1,7.7-3.1c3.1,0,5.7,1,7.8,3.1c2,2.1,3,4.6,3,7.6c0,2.9-1,5.4-3,7.5
		s-4.6,3.2-7.8,3.2c-3.2,0-5.7-1.1-7.7-3.2S1182.1,640.3,1182.1,637.4z M1183.6,722.4v-65.7h18.5v65.7H1183.6z"/>
	<path class="st3" d="M1287.4,660.9c0,6-1.7,11.3-5.1,15.8s-8.1,7.9-14.1,10.3l29.6,35.4h-27.3l-24.7-31.2h-4v31.2h-22.1v-89.9h28.6
		c5.6,0,10.8,0.6,15.5,1.8c4.8,1.2,8.9,2.9,12.4,5.3c3.5,2.3,6.3,5.3,8.2,8.8C1286.4,651.9,1287.4,656.1,1287.4,660.9z
		 M1266.1,661.3c0-4.1-1.6-7-4.7-9c-3.2-1.9-7.6-2.9-13.2-2.9h-6.3v25.2h5.4c5.9,0,10.6-1.2,13.9-3.5
		C1264.4,668.9,1266.1,665.6,1266.1,661.3z"/>
	<path class="st3" d="M1334.5,654.9c8.6,0,15.5,2.5,20.5,7.6s7.6,12.1,7.6,21.1c0,3.4-0.4,7.1-1.2,10.9h-38.3c0.2,4,1.6,7.3,4.1,9.8
		c2.6,2.5,6.5,3.7,11.8,3.7c3.2,0,6.6-0.3,10.2-0.9s6.6-1.5,9.2-2.6l2.7,13.9c-3.4,1.7-7.3,3-11.5,3.9c-4.3,0.9-8.7,1.3-13.3,1.3
		c-5.8,0-10.8-0.8-15.3-2.5c-4.4-1.7-8.1-4-11.1-7s-5.2-6.5-6.8-10.7c-1.5-4.1-2.3-8.7-2.3-13.8c0-5.4,0.8-10.3,2.4-14.6
		s3.8-8,6.8-11c2.9-3,6.5-5.3,10.6-7C1324.7,655.7,1329.4,654.9,1334.5,654.9z M1333.8,668.6c-3.4,0-6.1,1.1-7.9,3.3
		s-2.8,5.2-2.8,9.1h19.2c0.2-0.7,0.3-1.5,0.3-2.3c0-2.9-0.8-5.3-2.3-7.2C1338.8,669.6,1336.6,668.6,1333.8,668.6z"/>
	<path class="st3" d="M1404.6,654.9c8.6,0,15.5,2.5,20.5,7.6s7.6,12.1,7.6,21.1c0,3.4-0.4,7.1-1.2,10.9h-38.4c0.2,4,1.6,7.3,4.1,9.8
		c2.6,2.5,6.5,3.7,11.8,3.7c3.2,0,6.6-0.3,10.2-0.9s6.6-1.5,9.2-2.6l2.7,13.9c-3.4,1.7-7.3,3-11.5,3.9c-4.3,0.9-8.7,1.3-13.3,1.3
		c-5.8,0-10.8-0.8-15.3-2.5c-4.4-1.7-8.1-4-11.1-7s-5.2-6.5-6.8-10.7c-1.5-4.1-2.3-8.7-2.3-13.8c0-5.4,0.8-10.3,2.4-14.6
		s3.8-8,6.8-11c2.9-3,6.5-5.3,10.6-7C1394.8,655.7,1399.4,654.9,1404.6,654.9z M1403.9,668.6c-3.4,0-6.1,1.1-7.9,3.3
		s-2.8,5.2-2.8,9.1h19.2c0.2-0.7,0.3-1.5,0.3-2.3c0-2.9-0.8-5.3-2.3-7.2C1408.8,669.6,1406.7,668.6,1403.9,668.6z"/>
	<path class="st3" d="M1444,722.4v-95.3h21.6v95.3"/>
</g>
<g>
	<defs>
		<rect id="SVGID_3_" x="20.3" y="11.4" width="484.3" height="277.2"/>
	</defs>
	<clipPath id="SVGID_4_">
		<use xlink:href="#SVGID_3_"  style="overflow:visible;"/>
	</clipPath>
	<g class="st5">
		<g>
			
				<linearGradient id="SVGID_5_" gradientUnits="userSpaceOnUse" x1="20.6409" y1="-474.9348" x2="20.6409" y2="-274.6475" gradientTransform="matrix(1.8248 0 0 -1.8248 223.5421 -484.5547)">
				<stop  offset="0.2092" style="stop-color:#5A73FF;stop-opacity:0"/>
				<stop  offset="0.3347" style="stop-color:#6078FF;stop-opacity:0.1587"/>
				<stop  offset="0.5004" style="stop-color:#7186FD;stop-opacity:0.3683"/>
				<stop  offset="0.6887" style="stop-color:#8C9DFB;stop-opacity:0.6064"/>
				<stop  offset="0.8921" style="stop-color:#B2BDF8;stop-opacity:0.8636"/>
				<stop  offset="1" style="stop-color:#C9D0F6"/>
			</linearGradient>
			<path class="st6" d="M261.2,16.6c-101.6,0-182.7,81.1-182.7,182.7s81.1,182.8,182.7,182.8S443.9,301,443.9,199.4
				S361.3,16.6,261.2,16.6z M160.6,242.3c-23.8,0-43.9-20.2-43.3-43.9c0-23.8,20.2-43.9,43.9-43.3c23.8,0,43.9,20.2,43.3,43.9
				C203.9,222.9,184.9,242.3,160.6,242.3z M260,342.7c-23.8,0-43.9-20.2-43.3-43.9c0-23.8,20.2-43.9,43.9-43.3
				c23.8,0,43.9,20.2,43.3,43.9C304.5,322.3,284,342.7,260,342.7z M241.7,199.4c0-9.9,8.4-19,19-19c11,0,19,8.4,19,19
				c0,10.6-7.8,19-18.6,19C250.3,218.4,241.7,208.9,241.7,199.4z M261.2,142.8c-23.8,0-43.9-20.2-43.3-43.9
				c0-23.8,20.2-43.9,43.9-43.3c23.8,0,43.9,20.2,43.3,43.9C304.5,123.7,285,142.8,261.2,142.8z M360.7,243.3
				c-23.8,0-43.9-20.2-43.3-43.9c0-23.8,20.2-43.9,43.9-43.3c23.8,0,43.9,20.2,43.3,43.9C404.3,223.1,384.4,243.3,360.7,243.3z"/>
		</g>
		<g>
			<path class="st3" d="M94.6,248.7c-0.5-10.4-1.1-23.1-1-34h-0.4c-2.6,9.9-6,20.7-9.6,31l-11.8,35H60.5l-10.8-34.6
				c-3.1-10.3-6-21.4-8.1-31.4h-0.3c-0.4,10.6-0.8,23.4-1.4,34.5L38,281.7H24.3l5.4-80.9h19.5l10.6,32.5c2.9,9.5,5.4,19.1,7.4,28.1
				h0.4c2.2-8.8,4.9-18.7,8.1-28.2l11.1-32.4h19.2l4.7,80.9H96.3L94.6,248.7z"/>
			<path class="st3" d="M181.2,251.9c0,21.5-15.1,31.1-30.1,31.1c-16.6,0-29.3-11.4-29.3-30.1c0-19.2,12.6-31,30.2-31
				C169.6,221.9,181.2,234.2,181.2,251.9z M137.1,252.6c0,11.3,5.5,19.8,14.5,19.8c8.4,0,14.3-8.3,14.3-20c0-9.1-4.1-19.6-14.1-19.6
				C141.3,232.7,137.1,242.8,137.1,252.6z"/>
			<path class="st3" d="M201.7,223.2l9.5,29.7c1.7,5.2,2.9,9.9,4,14.7h0.4c1.1-4.8,2.4-9.3,4-14.7l9.2-29.7h15.6L222,281.7h-14.5
				l-21.7-58.5H201.7z"/>
			<path class="st3" d="M269.1,206.9c0,4.4-3.3,8-8.4,8c-4.9,0-8.1-3.4-8.1-8c0-4.5,3.3-8.1,8.3-8.1
				C265.8,198.9,268.9,202.3,269.1,206.9z M253.3,281.7v-58.5h14.8v58.5H253.3z"/>
			<path class="st3" d="M284.1,201.9c5.9-1,14.7-1.7,24.4-1.7c12,0,20.4,1.8,26.2,6.3c4.8,3.8,7.4,9.5,7.4,16.9
				c0,10.3-7.3,17.4-14.3,19.9v0.4c5.6,2.3,8.8,7.7,10.8,15.1c2.5,9.1,5.1,19.6,6.6,22.8h-18.7c-1.4-2.3-3.3-8.9-5.6-18.8
				c-2.2-10-5.6-12.9-13.1-12.9h-5.5v31.8H284L284.1,201.9L284.1,201.9z M302.2,236.7h7.2c9.1,0,14.5-4.5,14.5-11.7
				c0-7.4-5.1-11.1-13.5-11.3c-4.4,0-7,0.4-8.3,0.6L302.2,236.7L302.2,236.7z"/>
			<path class="st3" d="M368.7,258.2c0.6,7.6,8.1,11.1,16.6,11.1c6.2,0,11.3-0.8,16.2-2.4l2.4,12.4c-6,2.4-13.3,3.6-21.3,3.6
				c-19.9,0-31.3-11.5-31.3-29.9c0-14.8,9.2-31.3,29.7-31.3c19,0,26.2,14.8,26.2,29.3c0,3.1-0.4,5.9-0.6,7.2L368.7,258.2
				L368.7,258.2z M390.2,245.7c0-4.4-1.9-11.9-10.3-11.9c-7.7,0-10.8,7-11.3,11.9H390.2z"/>
			<path class="st3" d="M432.1,258.2c0.6,7.6,8.1,11.1,16.6,11.1c6.2,0,11.3-0.8,16.2-2.4l2.4,12.4c-6,2.4-13.3,3.6-21.3,3.6
				c-19.9,0-31.3-11.5-31.3-29.9c0-14.8,9.2-31.3,29.7-31.3c19,0,26.2,14.8,26.2,29.3c0,3.1-0.4,5.9-0.6,7.2L432.1,258.2
				L432.1,258.2L432.1,258.2z M453.6,245.7c0-4.4-1.9-11.9-10.3-11.9c-7.7,0-10.8,7-11.3,11.9H453.6z"/>
			<path class="st3" d="M481.5,196.4h18.3v85.3h-18.3V196.4z"/>
		</g>
	</g>
</g>
</svg>
