<?xml version="1.0" encoding="utf-8"?>
<!-- Generator: Adobe Illustrator 18.0.0, SVG Export Plug-In . SVG Version: 6.00 Build 0)  -->
<!DOCTYPE svg PUBLIC "-//W3C//DTD SVG 1.1//EN" "http://www.w3.org/Graphics/SVG/1.1/DTD/svg11.dtd">
<svg version="1.1" id="Layer_1" xmlns="http://www.w3.org/2000/svg" xmlns:xlink="http://www.w3.org/1999/xlink" x="0px" y="0px"
	 viewBox="949.9 431 700 300" enable-background="new 949.9 431 700 300" xml:space="preserve">
<rect y="0" stroke="#000000" stroke-miterlimit="10" width="700" height="300"/>
<g>
	
		<linearGradient id="SVGID_1_" gradientUnits="userSpaceOnUse" x1="140.3" y1="78.8" x2="140.3" y2="300" gradientTransform="matrix(1.8248 0 0 -1.8248 94.9818 547.4452)">
		<stop  offset="0.2092" style="stop-color:#5A73FF;stop-opacity:0"/>
		<stop  offset="0.3347" style="stop-color:#6078FF;stop-opacity:0.1587"/>
		<stop  offset="0.5004" style="stop-color:#7186FD;stop-opacity:0.3683"/>
		<stop  offset="0.6887" style="stop-color:#8C9DFB;stop-opacity:0.6064"/>
		<stop  offset="0.8921" style="stop-color:#B2BDF8;stop-opacity:0.8636"/>
		<stop  offset="1" style="stop-color:#C9D0F6"/>
	</linearGradient>
	<path fill="url(#SVGID_1_)" d="M351,0C238.8,0,149.2,89.6,149.2,201.8S238.8,403.6,351,403.6s201.8-89.6,201.8-201.8S461.6,0,351,0
		z M239.9,249.3c-26.3,0-48.5-22.3-47.8-48.5c0-26.3,22.3-48.5,48.5-47.8c26.3,0,48.5,22.3,47.8,48.5
		C287.7,227.7,266.7,249.3,239.9,249.3z M349.7,360.2c-26.3,0-48.5-22.3-47.8-48.5c0-26.3,22.3-48.5,48.5-47.8
		c26.3,0,48.5,22.3,47.8,48.5C398.8,337.6,376.2,360.2,349.7,360.2z M329.5,201.8c0-10.9,9.3-21,21-21c12.2,0,21,9.3,21,21
		s-8.6,21-20.6,21S329.5,212.4,329.5,201.8z M351,139.4c-26.3,0-48.5-22.3-47.8-48.5c0-26.3,22.3-48.5,48.5-47.8
		c26.3,0,48.5,22.3,47.8,48.5C398.8,118.2,377.3,139.4,351,139.4z M460.9,250.4c-26.3,0-48.5-22.3-47.8-48.5
		c0-26.3,22.3-48.5,48.5-47.8c26.3,0,48.5,22.3,47.8,48.5C509,228.1,487.1,250.4,460.9,250.4z"/>
</g>
<text transform="matrix(1 0 0 1 89.8631 294.9119)" fill="#FFFFFF" font-family="'MyriadPro-Regular'" font-size="133.8606">Movi</text>
<text transform="matrix(1 0 0 1 366.6887 294.9119)" fill="#FFFFFF" font-family="'MyriadPro-Semibold'" font-size="133.8606">Reel</text>
<text transform="matrix(1 0 0 1 161.501 494.7031)" fill="#FFFFFF" font-family="'MyriadPro-Regular'" font-size="133.8606">Movi</text>
<text transform="matrix(1 0 0 1 438.3267 494.7031)" fill="#FFFFFF" font-family="'MyriadPro-Semibold'" font-size="133.8606">Reel</text>
<rect x="921" y="40.7" stroke="#000000" stroke-miterlimit="10" width="700" height="300"/>
<g>
	
		<linearGradient id="SVGID_2_" gradientUnits="userSpaceOnUse" x1="645.0276" y1="56.5233" x2="645.0276" y2="277.7233" gradientTransform="matrix(1.8248 0 0 -1.8248 94.9818 547.4452)">
		<stop  offset="0.2092" style="stop-color:#5A73FF;stop-opacity:0"/>
		<stop  offset="0.3347" style="stop-color:#6078FF;stop-opacity:0.1587"/>
		<stop  offset="0.5004" style="stop-color:#7186FD;stop-opacity:0.3683"/>
		<stop  offset="0.6887" style="stop-color:#8C9DFB;stop-opacity:0.6064"/>
		<stop  offset="0.8921" style="stop-color:#B2BDF8;stop-opacity:0.8636"/>
		<stop  offset="1" style="stop-color:#C9D0F6"/>
	</linearGradient>
	<path fill="url(#SVGID_2_)" d="M1272,40.7c-112.2,0-201.8,89.6-201.8,201.8s89.6,201.8,201.8,201.8c112.2,0,201.8-89.6,201.8-201.8
		S1382.6,40.7,1272,40.7z M1160.9,289.9c-26.3,0-48.5-22.3-47.8-48.5c0-26.3,22.3-48.5,48.5-47.8c26.3,0,48.5,22.3,47.8,48.5
		S1187.7,289.9,1160.9,289.9z M1270.8,400.9c-26.3,0-48.5-22.3-47.8-48.5c0-26.3,22.3-48.5,48.5-47.8c26.3,0,48.5,22.3,47.8,48.5
		C1319.8,378.2,1297.2,400.9,1270.8,400.9z M1250.5,242.5c0-10.9,9.3-21,21-21c12.2,0,21,9.3,21,21s-8.6,21-20.6,21
		C1259.8,263.5,1250.5,253.1,1250.5,242.5z M1272,180.1c-26.3,0-48.5-22.3-47.8-48.5c0-26.3,22.3-48.5,48.5-47.8
		c26.3,0,48.5,22.3,47.8,48.5C1319.8,158.9,1298.3,180.1,1272,180.1z M1381.9,291c-26.3,0-48.5-22.3-47.8-48.5
		c0-26.3,22.3-48.5,48.5-47.8c26.3,0,48.5,22.3,47.8,48.5C1430.1,268.8,1408.2,291,1381.9,291z"/>
</g>
<g>
	<path fill="#FFFFFF" d="M1059.6,314.8h-21.3l-17.5-36l-2.7,50.4h-21.7l6.8-89.9h20l25.9,54.9l25.9-54.9h20l6.8,89.9h-21.7
		l-2.7-50.4L1059.6,314.8z"/>
	<path fill="#FFFFFF" d="M1181.2,296c0,4.9-0.8,9.4-2.3,13.6c-1.5,4.2-3.8,7.8-6.8,10.9c-3,3.1-6.7,5.5-11.1,7.3
		c-4.4,1.8-9.5,2.6-15.1,2.6s-10.7-0.9-15.1-2.6c-4.4-1.8-8.1-4.2-11.1-7.3c-3-3.1-5.2-6.8-6.8-10.9c-1.5-4.2-2.3-8.7-2.3-13.6
		c0-4.9,0.8-9.4,2.3-13.6c1.5-4.2,3.8-7.8,6.8-10.9c3-3.1,6.7-5.5,11.1-7.3c4.4-1.8,9.5-2.6,15.1-2.6s10.7,0.9,15.1,2.6
		c4.4,1.8,8.1,4.2,11.1,7.3c3,3.1,5.2,6.8,6.8,10.9C1180.4,286.6,1181.2,291.1,1181.2,296z M1159.6,296c0-2.3-0.2-4.6-0.7-6.8
		c-0.5-2.2-1.2-4.2-2.2-5.9c-1-1.8-2.4-3.1-4.2-4.2c-1.8-1-3.9-1.6-6.5-1.6c-2.6,0-4.8,0.5-6.5,1.6c-1.8,1-3.2,2.4-4.2,4.2
		c-1,1.8-1.8,3.7-2.2,5.9c-0.5,2.2-0.7,4.5-0.7,6.8c0,2.3,0.2,4.6,0.7,6.8c0.4,2.2,1.2,4.2,2.2,5.9c1,1.8,2.4,3.2,4.2,4.2
		c1.8,1,3.9,1.6,6.5,1.6c2.6,0,4.8-0.5,6.5-1.6c1.8-1,3.1-2.4,4.2-4.2c1-1.8,1.8-3.7,2.2-5.9C1159.4,300.6,1159.6,298.3,1159.6,296z
		"/>
	<path fill="#FFFFFF" d="M1207.5,329.1l-23-66.2h21.7l12.7,46.4l12.7-46.4h21.7l-23,66.2H1207.5z"/>
	<path fill="#FFFFFF" d="M1260,243.6c0-3.4,1.1-6.3,3.4-8.6c2.2-2.3,5.2-3.5,8.8-3.5c3.6,0,6.5,1.2,8.8,3.5c2.2,2.3,3.4,5.2,3.4,8.6
		c0,3.4-1.1,6.3-3.4,8.6c-2.3,2.3-5.2,3.5-8.8,3.5c-3.6,0-6.5-1.2-8.8-3.5C1261.2,249.9,1260,247,1260,243.6z M1261.4,329.1v-66.2
		h21.6v66.2H1261.4z"/>
	<path fill="#FFFFFF" d="M1367.6,267.7c0,6-1.7,11.3-5.1,15.8c-3.4,4.5-8.1,7.9-14.1,10.3l29.6,35.4h-27.3l-24.7-31.2h-4v31.2h-22.1
		v-89.9h28.6c5.6,0,10.8,0.6,15.5,1.8c4.8,1.2,8.9,2.9,12.4,5.3c3.5,2.3,6.3,5.3,8.2,8.8C1366.6,258.6,1367.6,262.8,1367.6,267.7z
		 M1346.3,268.1c0-4.1-1.6-7-4.7-9c-3.2-1.9-7.6-2.9-13.2-2.9h-6.3v25.2h5.4c5.9,0,10.6-1.2,13.9-3.5
		C1344.6,275.6,1346.3,272.3,1346.3,268.1z"/>
	<path fill="#FFFFFF" d="M1414.7,261.6c8.6,0,15.5,2.5,20.5,7.6c5,5.1,7.6,12.1,7.6,21.1c0,3.4-0.4,7.1-1.2,10.9h-38.3
		c0.2,4,1.6,7.3,4.1,9.8c2.6,2.5,6.5,3.7,11.8,3.7c3.2,0,6.6-0.3,10.2-0.9c3.6-0.6,6.6-1.5,9.2-2.6l2.7,13.9
		c-3.4,1.7-7.3,3-11.5,3.9c-4.3,0.9-8.7,1.3-13.3,1.3c-5.8,0-10.8-0.8-15.3-2.5c-4.4-1.7-8.1-4-11.1-7c-3-3-5.2-6.5-6.8-10.7
		c-1.5-4.1-2.3-8.7-2.3-13.8c0-5.4,0.8-10.3,2.4-14.6c1.6-4.3,3.8-8,6.8-11c2.9-3,6.5-5.3,10.6-7
		C1405,262.4,1409.6,261.6,1414.7,261.6z M1414.1,275.4c-3.4,0-6.1,1.1-7.9,3.3c-1.8,2.2-2.8,5.2-2.8,9.1h19.2
		c0.2-0.7,0.3-1.5,0.3-2.3c0-2.9-0.8-5.3-2.3-7.2C1419,276.3,1416.9,275.4,1414.1,275.4z"/>
	<path fill="#FFFFFF" d="M1484.8,261.6c8.6,0,15.5,2.5,20.5,7.6c5,5.1,7.6,12.1,7.6,21.1c0,3.4-0.4,7.1-1.2,10.9h-38.3
		c0.2,4,1.6,7.3,4.1,9.8c2.6,2.5,6.5,3.7,11.8,3.7c3.2,0,6.6-0.3,10.2-0.9c3.6-0.6,6.6-1.5,9.2-2.6l2.7,13.9
		c-3.4,1.7-7.3,3-11.5,3.9c-4.3,0.9-8.7,1.3-13.3,1.3c-5.8,0-10.8-0.8-15.3-2.5c-4.4-1.7-8.1-4-11.1-7c-3-3-5.2-6.5-6.8-10.7
		c-1.5-4.1-2.3-8.7-2.3-13.8c0-5.4,0.8-10.3,2.4-14.6c1.6-4.3,3.8-8,6.8-11c2.9-3,6.5-5.3,10.6-7
		C1475,262.4,1479.7,261.6,1484.8,261.6z M1484.1,275.4c-3.4,0-6.1,1.1-7.9,3.3c-1.8,2.2-2.8,5.2-2.8,9.1h19.2
		c0.2-0.7,0.3-1.5,0.3-2.3c0-2.9-0.8-5.3-2.3-7.2C1489.1,276.3,1486.9,275.4,1484.1,275.4z"/>
	<path fill="#FFFFFF" d="M1524.2,330.3v-96.5h21.6v96.7"/>
</g>
<g>
	
		<linearGradient id="SVGID_3_" gradientUnits="userSpaceOnUse" x1="660.8233" y1="-157.3621" x2="660.8233" y2="63.8379" gradientTransform="matrix(1.8248 0 0 -1.8248 94.9818 547.4452)">
		<stop  offset="0.2092" style="stop-color:#5A73FF;stop-opacity:0"/>
		<stop  offset="0.3347" style="stop-color:#6078FF;stop-opacity:0.1587"/>
		<stop  offset="0.5004" style="stop-color:#7186FD;stop-opacity:0.3683"/>
		<stop  offset="0.6887" style="stop-color:#8C9DFB;stop-opacity:0.6064"/>
		<stop  offset="0.8921" style="stop-color:#B2BDF8;stop-opacity:0.8636"/>
		<stop  offset="1" style="stop-color:#C9D0F6"/>
	</linearGradient>
	<path fill="url(#SVGID_3_)" d="M1300.9,431c-112.2,0-201.8,89.6-201.8,201.8s89.6,201.8,201.8,201.8
		c112.2,0,201.8-89.6,201.8-201.8S1411.4,431,1300.9,431z M1189.7,680.2c-26.3,0-48.5-22.3-47.8-48.5c0-26.3,22.3-48.5,48.5-47.8
		c26.3,0,48.5,22.3,47.8,48.5C1237.5,658.7,1216.6,680.2,1189.7,680.2z M1299.6,791.2c-26.3,0-48.5-22.3-47.8-48.5
		c0-26.3,22.3-48.5,48.5-47.8c26.3,0,48.5,22.3,47.8,48.5C1348.7,768.5,1326,791.2,1299.6,791.2z M1279.3,632.8c0-10.9,9.3-21,21-21
		c12.2,0,21,9.3,21,21s-8.6,21-20.6,21C1288.6,653.8,1279.3,643.4,1279.3,632.8z M1300.9,570.4c-26.3,0-48.5-22.3-47.8-48.5
		c0-26.3,22.3-48.5,48.5-47.8c26.3,0,48.5,22.3,47.8,48.5C1348.7,549.2,1327.1,570.4,1300.9,570.4z M1410.7,681.3
		c-26.3,0-48.5-22.3-47.8-48.5c0-26.3,22.3-48.5,48.5-47.8c26.3,0,48.5,22.3,47.8,48.5C1458.9,659.1,1437,681.3,1410.7,681.3z"/>
</g>
<g>
	<path fill="#FFFFFF" d="M1108.6,632.5h17l6.6,89.9h-18.5l-3.1-55.9l-19.8,40.8h-19.4l-19.8-40.8l-3.1,55.9h-18.5l6.6-89.9h17
		l27.5,58L1108.6,632.5z"/>
	<path fill="#FFFFFF" d="M1210.9,689.6c0,4.8-0.7,9.2-2.2,13.4c-1.5,4.1-3.7,7.8-6.5,10.9c-2.9,3.1-6.4,5.5-10.6,7.3
		c-4.2,1.8-9,2.6-14.5,2.6c-5.5,0-10.3-0.9-14.5-2.6s-7.7-4.2-10.6-7.3c-2.9-3.1-5.1-6.7-6.5-10.9c-1.5-4.1-2.2-8.6-2.2-13.4
		c0-4.8,0.7-9.2,2.2-13.4c1.5-4.1,3.7-7.8,6.5-10.9c2.9-3.1,6.4-5.6,10.6-7.4c4.2-1.8,9-2.7,14.5-2.7c5.5,0,10.3,0.9,14.5,2.7
		c4.2,1.8,7.7,4.3,10.6,7.4c2.9,3.1,5.1,6.7,6.5,10.9C1210.1,680.3,1210.9,684.8,1210.9,689.6z M1192.4,689.6c0-2.7-0.3-5.3-0.8-7.8
		c-0.5-2.5-1.4-4.7-2.6-6.5c-1.2-1.9-2.8-3.4-4.8-4.5c-2-1.1-4.4-1.7-7.2-1.7c-2.9,0-5.3,0.6-7.2,1.7c-1.9,1.1-3.5,2.6-4.7,4.5
		c-1.2,1.9-2.1,4.1-2.6,6.5c-0.5,2.5-0.8,5.1-0.8,7.8c0,2.7,0.3,5.3,0.8,7.7c0.5,2.4,1.4,4.6,2.6,6.5s2.8,3.4,4.7,4.5
		c1.9,1.1,4.3,1.7,7.2,1.7c2.8,0,5.2-0.6,7.2-1.7c2-1.1,3.6-2.6,4.8-4.5s2.1-4,2.6-6.5C1192.1,694.8,1192.4,692.3,1192.4,689.6z"/>
	<path fill="#FFFFFF" d="M1239.2,722.4l-23.1-65.7h18.6l14.3,48.5l14.2-48.5h18.6l-23.1,65.7H1239.2z"/>
	<path fill="#FFFFFF" d="M1290,637.4c0-3,1-5.5,3-7.6c2-2.1,4.5-3.1,7.7-3.1c3.1,0,5.7,1,7.8,3.1c2,2.1,3,4.6,3,7.6
		c0,2.9-1,5.4-3,7.5c-2,2.1-4.6,3.2-7.8,3.2c-3.2,0-5.7-1.1-7.7-3.2C1291,642.8,1290,640.3,1290,637.4z M1291.5,722.4v-65.7h18.5
		v65.7H1291.5z"/>
	<path fill="#FFFFFF" d="M1395.3,660.9c0,6-1.7,11.3-5.1,15.8c-3.4,4.5-8.1,7.9-14.1,10.3l29.6,35.4h-27.3l-24.7-31.2h-4v31.2h-22.1
		v-89.9h28.6c5.6,0,10.8,0.6,15.5,1.8c4.8,1.2,8.9,2.9,12.4,5.3c3.5,2.3,6.3,5.3,8.2,8.8C1394.3,651.9,1395.3,656.1,1395.3,660.9z
		 M1374,661.3c0-4.1-1.6-7-4.7-9c-3.2-1.9-7.6-2.9-13.2-2.9h-6.3v25.2h5.4c5.9,0,10.6-1.2,13.9-3.5
		C1372.3,668.9,1374,665.6,1374,661.3z"/>
	<path fill="#FFFFFF" d="M1442.4,654.9c8.6,0,15.5,2.5,20.5,7.6c5,5.1,7.6,12.1,7.6,21.1c0,3.4-0.4,7.1-1.2,10.9h-38.3
		c0.2,4,1.6,7.3,4.1,9.8c2.6,2.5,6.5,3.7,11.8,3.7c3.2,0,6.6-0.3,10.2-0.9c3.6-0.6,6.6-1.5,9.2-2.6l2.7,13.9
		c-3.4,1.7-7.3,3-11.5,3.9c-4.3,0.9-8.7,1.3-13.3,1.3c-5.8,0-10.8-0.8-15.3-2.5c-4.4-1.7-8.1-4-11.1-7c-3-3-5.2-6.5-6.8-10.7
		c-1.5-4.1-2.3-8.7-2.3-13.8c0-5.4,0.8-10.3,2.4-14.6c1.6-4.3,3.8-8,6.8-11c2.9-3,6.5-5.3,10.6-7
		C1432.6,655.7,1437.3,654.9,1442.4,654.9z M1441.7,668.6c-3.4,0-6.1,1.1-7.9,3.3c-1.8,2.2-2.8,5.2-2.8,9.1h19.2
		c0.2-0.7,0.3-1.5,0.3-2.3c0-2.9-0.8-5.3-2.3-7.2C1446.7,669.6,1444.5,668.6,1441.7,668.6z"/>
	<path fill="#FFFFFF" d="M1512.5,654.9c8.6,0,15.5,2.5,20.5,7.6c5,5.1,7.6,12.1,7.6,21.1c0,3.4-0.4,7.1-1.2,10.9H1501
		c0.2,4,1.6,7.3,4.1,9.8c2.6,2.5,6.5,3.7,11.8,3.7c3.2,0,6.6-0.3,10.2-0.9c3.6-0.6,6.6-1.5,9.2-2.6l2.7,13.9
		c-3.4,1.7-7.3,3-11.5,3.9c-4.3,0.9-8.7,1.3-13.3,1.3c-5.8,0-10.8-0.8-15.3-2.5c-4.4-1.7-8.1-4-11.1-7c-3-3-5.2-6.5-6.8-10.7
		c-1.5-4.1-2.3-8.7-2.3-13.8c0-5.4,0.8-10.3,2.4-14.6c1.6-4.3,3.8-8,6.8-11c2.9-3,6.5-5.3,10.6-7
		C1502.7,655.7,1507.3,654.9,1512.5,654.9z M1511.8,668.6c-3.4,0-6.1,1.1-7.9,3.3c-1.8,2.2-2.8,5.2-2.8,9.1h19.2
		c0.2-0.7,0.3-1.5,0.3-2.3c0-2.9-0.8-5.3-2.3-7.2C1516.7,669.6,1514.6,668.6,1511.8,668.6z"/>
	<path fill="#FFFFFF" d="M1551.9,722.4v-95.3h21.6v95.3"/>
</g>
</svg>
