<?xml version="1.0" encoding="utf-8"?>
<!-- Generator: Adobe Illustrator 18.0.0, SVG Export Plug-In . SVG Version: 6.00 Build 0)  -->
<!DOCTYPE svg PUBLIC "-//W3C//DTD SVG 1.1//EN" "http://www.w3.org/Graphics/SVG/1.1/DTD/svg11.dtd">
<svg version="1.1" id="Layer_1" xmlns="http://www.w3.org/2000/svg" xmlns:xlink="http://www.w3.org/1999/xlink" x="0px" y="0px"
	 viewBox="0 0 1024 768" enable-background="new 0 0 1024 768" xml:space="preserve">
<g opacity="0.2">
	<g>
		<path fill="#5D6EB4" d="M629.3,721.8c8.7,2.5,17.7-2.5,20.2-11.1s-2.5-17.7-11.1-20.2c-8.7-2.5-17.7,2.5-20.2,11.1
			C615.6,710.3,620.6,719.3,629.3,721.8z M622.8,716.2c-0.3-0.1-0.5-0.4-0.4-0.7c0.1-0.3,0.4-0.5,0.7-0.4c0.3,0.1,0.5,0.4,0.4,0.7
			C623.4,716.2,623.1,716.3,622.8,716.2z M622,708.7l9.1-0.9l-2.6,9.6C625,715.7,622.6,712.4,622,708.7z M632.9,708
			c-1.2-0.3-1.9-1.6-1.5-2.8c0.3-1.2,1.6-1.9,2.8-1.5c1.2,0.3,1.9,1.6,1.5,2.8C635.4,707.7,634.1,708.4,632.9,708z M638.4,719.6
			c-0.3-0.1-0.5-0.4-0.4-0.7c0.1-0.3,0.4-0.5,0.7-0.4c0.3,0.1,0.5,0.4,0.4,0.7C639,719.5,638.7,719.7,638.4,719.6z M632.4,718.4
			l2.6-9.8l7.5,5.9C640.1,717.3,636.3,718.9,632.4,718.4z M647.4,705.4c0.3,0.1,0.5,0.4,0.4,0.7c-0.1,0.3-0.4,0.5-0.7,0.4
			s-0.5-0.4-0.4-0.7C646.8,705.5,647.1,705.4,647.4,705.4z M645.1,709.9c-0.1,0.4-0.2,0.8-0.4,1.1l-7.8-6.1l6.8-4.7
			C645.5,703.1,646.1,706.5,645.1,709.9z M637.2,692.1c0.3,0.1,0.5,0.4,0.4,0.7c-0.1,0.3-0.4,0.5-0.7,0.4c-0.3-0.1-0.5-0.4-0.4-0.7
			C636.5,692.2,636.9,692,637.2,692.1z M637,695.2c1.5,0.4,2.9,1.1,4,2.1l-6.7,4.6l-3.3-6.8C632.9,694.6,634.9,694.6,637,695.2z
			 M621.4,699.7c-0.3-0.1-0.5-0.4-0.4-0.7c0.1-0.3,0.4-0.5,0.7-0.4c0.3,0.1,0.5,0.4,0.4,0.7C622,699.6,621.7,699.7,621.4,699.7z
			 M622.3,703.3c0.8-2.9,2.6-5.2,4.9-6.7l3.5,7.1l-8.7,0.9C622.1,704.2,622.2,703.8,622.3,703.3z"/>
		<path fill="#5D6EB4" d="M692.4,711.9c2.7-9.4-2.7-19.2-12.1-21.9c-9.4-2.7-19.2,2.7-21.9,12.1c-2.3,8.1,1.3,16.5,8.4,20.4l-2,3.1
			l-4.1-1.2l1-3.3c0.1-0.5-0.1-1-0.6-1.1l-12.2-3.5c-0.5-0.1-1,0.1-1.1,0.6l-1,3.3l-1.6-0.5c-2.4,2-5.4,3.3-8.5,3.7l-0.2,0.6
			l6.5-1.3l15.2,4.4l-5.8,20.2l-5.1-1.5l0.5-1.7l-14.2-10.2c0,0-0.5,1.8-1.2,4.1c-0.7,2.3,1.1,4.7,3.8,5.5l23.3,6.7
			c2.8,0.8,5.6-0.8,6.4-3.5l5.6-19.4l-1.9-0.6l0.9-3C679.9,726.7,689.7,721.3,692.4,711.9z M659,723.8l-10.5-3l0.7-2.4l10.5,3
			L659,723.8L659,723.8z M680.4,721.6c-0.3-0.1-0.5-0.4-0.4-0.8c0.1-0.3,0.4-0.5,0.8-0.4c0.3,0.1,0.5,0.4,0.4,0.8
			C681.1,721.5,680.7,721.7,680.4,721.6z M673.9,720.3l2.9-10.7l8.2,6.4C682.2,719.1,678.1,720.8,673.9,720.3z M690.2,706.2
			c0.3,0.1,0.5,0.4,0.4,0.8c-0.1,0.3-0.4,0.5-0.8,0.4c-0.3-0.1-0.5-0.4-0.4-0.8C689.5,706.3,689.8,706.1,690.2,706.2z M687.6,711.1
			c-0.1,0.4-0.3,0.8-0.4,1.2l-8.4-6.6l7.4-5.1C688.1,703.6,688.7,707.4,687.6,711.1z M679,691.7c0.3,0.1,0.5,0.4,0.4,0.8
			c-0.1,0.3-0.4,0.5-0.8,0.4c-0.3-0.1-0.5-0.4-0.4-0.8C678.4,691.8,678.7,691.6,679,691.7z M678.9,695.1c1.6,0.5,3.1,1.2,4.4,2.2
			l-7.3,5l-3.6-7.4C674.4,694.5,676.6,694.5,678.9,695.1z M661.9,699.9c-0.3-0.1-0.5-0.4-0.4-0.8c0.1-0.3,0.4-0.5,0.8-0.4
			s0.5,0.4,0.4,0.8C662.6,699.8,662.2,700,661.9,699.9z M662.9,703.9c0.9-3.1,2.9-5.6,5.4-7.2l3.8,7.7l-9.5,1
			C662.6,704.9,662.7,704.4,662.9,703.9z M663.5,717.9c-0.3-0.1-0.5-0.4-0.4-0.8c0.1-0.3,0.4-0.5,0.8-0.4c0.3,0.1,0.5,0.4,0.4,0.8
			C664.1,717.8,663.8,718,663.5,717.9z M662.6,709.7l9.9-1l-2.8,10.4C665.9,717.3,663.3,713.8,662.6,709.7z M674.4,709
			c-1.3-0.4-2.1-1.7-1.7-3c0.4-1.3,1.7-2.1,3-1.7c1.3,0.4,2.1,1.7,1.7,3C677.1,708.6,675.7,709.4,674.4,709z"/>
		<polygon fill="#5D6EB4" points="651.7,746.2 657.1,727.8 642.9,723.7 634.7,725.3 632.7,732.2 648.8,743.8 648.4,745.3 		"/>
	</g>
</g>
<g opacity="0.2">
	<path fill="#5D6EB4" d="M229.9,447c-21-15-49.7-10.1-64.7,10.9c-15,21-10.1,49.7,10.9,64.7c21,15,49.7,10.1,64.7-10.9
		S250.7,461.7,229.9,447z M175.9,478.8c-4.9-3.5-6.1-10.7-2.5-15.5c3.5-4.9,10.7-6.1,15.5-2.5c4.9,3.5,6.1,10.7,2.5,15.5
		C187.8,481.2,181,482.4,175.9,478.8z M181.7,514.3c-4.9-3.5-6.1-10.7-2.5-15.5c3.5-4.9,10.7-6.1,15.5-2.5
		c4.9,3.5,6.1,10.7,2.5,15.5C193.9,516.6,186.6,517.8,181.7,514.3z M199,481.9c1.5-2,4.6-2.7,6.8-1.1c2.3,1.6,2.7,4.6,1.1,6.8
		c-1.6,2.2-4.4,2.8-6.7,1.2S197.6,483.9,199,481.9z M211.4,473.1c-4.9-3.5-6.1-10.7-2.5-15.5c3.5-4.9,10.7-6.1,15.5-2.5
		c4.9,3.5,6.1,10.7,2.5,15.5C223.1,475.5,216.3,476.6,211.4,473.1z M217.1,508.5c-4.9-3.5-6.1-10.7-2.5-15.5
		c3.5-4.9,10.7-6.1,15.5-2.5c4.9,3.5,6.1,10.7,2.5,15.5C229.1,510.8,222.1,512,217.1,508.5z"/>
</g>
<g opacity="0.2">
	<path fill="#5D6FB4" d="M515.6,804.7l40.8-33.2c1.7-1.4,2-4,0.6-5.7l-35.2-43.3c-1.4-1.7-4-2-5.7-0.6l-40.8,33.2
		c-1.7,1.4-2,4-0.6,5.7l35.2,43.3C511.2,805.9,513.8,806.2,515.6,804.7z M514.7,729.5c-0.4-0.5-0.3-1.3,0.2-1.7l3-2.4
		c0.5-0.4,1.3-0.3,1.7,0.2l2.5,3.1c0.4,0.5,0.3,1.3-0.2,1.7l-3,2.4c-0.5,0.4-1.3,0.3-1.7-0.2L514.7,729.5z M521,737.3
		c-0.4-0.5-0.3-1.3,0.2-1.7l3-2.4c0.5-0.4,1.3-0.3,1.7,0.2l2.5,3.1c0.4,0.5,0.3,1.3-0.2,1.7l-3,2.4c-0.5,0.4-1.3,0.3-1.7-0.2
		L521,737.3z M527.3,745c-0.4-0.5-0.3-1.3,0.2-1.7l3-2.4c0.5-0.4,1.3-0.3,1.7,0.2l2.5,3.1c0.4,0.5,0.3,1.3-0.2,1.7l-3,2.4
		c-0.5,0.4-1.3,0.3-1.7-0.2L527.3,745z M533.6,752.8c-0.4-0.5-0.3-1.3,0.2-1.7l3-2.4c0.5-0.4,1.3-0.3,1.7,0.2l2.5,3.1
		c0.4,0.5,0.3,1.3-0.2,1.7l-3,2.4c-0.5,0.4-1.3,0.3-1.7-0.2L533.6,752.8z M539.9,760.6c-0.4-0.5-0.3-1.3,0.2-1.7l3-2.4
		c0.5-0.4,1.3-0.3,1.7,0.2l2.5,3.1c0.4,0.5,0.3,1.3-0.2,1.7l-3,2.4c-0.5,0.4-1.3,0.3-1.7-0.2L539.9,760.6z M546.2,768.3
		c-0.4-0.5-0.3-1.3,0.2-1.7l3-2.4c0.5-0.4,1.3-0.3,1.7,0.2l2.5,3.1c0.4,0.5,0.3,1.3-0.2,1.7l-3,2.4c-0.5,0.4-1.3,0.3-1.7-0.2
		L546.2,768.3z M488,754.9c-0.4-0.5-0.3-1.3,0.2-1.7l23.3-19c0.5-0.4,1.3-0.3,1.7,0.2l12.3,15.1c0.4,0.5,0.3,1.3-0.2,1.7l-23.3,19
		c-0.5,0.4-1.3,0.3-1.7-0.2L488,754.9z M507,778.3c-0.4-0.5-0.3-1.3,0.2-1.7l23.3-19c0.5-0.4,1.3-0.3,1.7,0.2l11.4,14
		c0.4,0.5,0.3,1.3-0.2,1.7l-23.3,19c-0.5,0.4-1.3,0.3-1.7-0.2L507,778.3z M478.1,759.2c-0.4-0.5-0.3-1.3,0.2-1.7l3-2.4
		c0.5-0.4,1.3-0.3,1.7,0.2l2.5,3.1c0.4,0.5,0.3,1.3-0.2,1.7l-3,2.4c-0.5,0.4-1.3,0.3-1.7-0.2L478.1,759.2z M484.4,767
		c-0.4-0.5-0.3-1.3,0.2-1.7l3-2.4c0.5-0.4,1.3-0.3,1.7,0.2l2.5,3.1c0.4,0.5,0.3,1.3-0.2,1.7l-3,2.4c-0.5,0.4-1.3,0.3-1.7-0.2
		L484.4,767z M490.7,774.8c-0.4-0.5-0.3-1.3,0.2-1.7l3-2.4c0.5-0.4,1.3-0.3,1.7,0.2l2.5,3.1c0.4,0.5,0.3,1.3-0.2,1.7l-3,2.4
		c-0.5,0.4-1.3,0.3-1.7-0.2L490.7,774.8z M497,782.5c-0.4-0.5-0.3-1.3,0.2-1.7l3-2.4c0.5-0.4,1.3-0.3,1.7,0.2l2.5,3.1
		c0.4,0.5,0.3,1.3-0.2,1.7l-3,2.4c-0.5,0.4-1.3,0.3-1.7-0.2L497,782.5z M503.3,790.3c-0.4-0.5-0.3-1.3,0.2-1.7l3-2.4
		c0.5-0.4,1.3-0.3,1.7,0.2l2.5,3.1c0.4,0.5,0.3,1.3-0.2,1.7l-3,2.4c-0.5,0.4-1.3,0.3-1.7-0.2L503.3,790.3z M509.6,798.1
		c-0.4-0.5-0.3-1.3,0.2-1.7l3-2.4c0.5-0.4,1.3-0.3,1.7,0.2l2.5,3.1c0.4,0.5,0.3,1.3-0.2,1.7l-3,2.4c-0.5,0.4-1.3,0.3-1.7-0.2
		L509.6,798.1z"/>
</g>
<g opacity="0.3">
</g>
<g opacity="0.2">
	<g>
		<path fill="#5D6FB4" d="M231.9,648.6l-14.7,29.1l6.2-0.7l7.3-14.3l13.9,8.4l-11,20.5l7-0.8l12.7-23.5l5.6-0.7l12.6,13.2l7-0.8
			L258.2,658l24.5-45.4l0.9-0.1l-0.4-3.9l-2-0.4l-2.5-22l2.6-0.3l-0.3-2.3l-25.9-2.9l-0.9,0.1l-0.4-3.9l0.1,0l-2-18.2l-57.1,7.2
			l2,17.4l0.2,1.6l0.6,5.3l0.3,2.4l2.4,21.6l-1,0.1l0.3,2.6l2.9,1.2L231.9,648.6z M223.2,633l-7.9-9.6l3.3,1.4l8.7,9.1L223.2,633z
			 M225.7,623.9l0.6-0.1l-0.2-1.6c7.6-0.5,14.3-1.3,20.2-2.3l-8.5,16.7L225.7,623.9z M228.6,638.4l3.9,0.8l2.7,2.9l-1,2L228.6,638.4
			z M246.9,666.7l-13.9-8.6l2.8-5.5l12,12.4L246.9,666.7z M244.2,654.2l-6.1-6.1l1-1.9l7.7,8L244.2,654.2z M254,653.6l-12.1-12.7
			l7.4-14.5l15.8,6.5L254,653.6z M275.6,613.4l-8.1,15.1l-16.3-6l2-3.8c10.6-2.1,17.5-4.6,20.8-5.9l1.9,0.5L275.6,613.4L275.6,613.4
			z M254.7,584.1l20.1,2.5l2.3,20.6l-18-4.1l-2.2,0.2L254.7,584.1z M201,584.3l49-6.9l0.4,3.8l0.3,2.4l2.3,20.2l-1.2,0.1l0.3,2.5
			l-0.5-0.1c-10.9,2.8-22,4.8-30.2,6.1l-1.8-16.1l2.6-0.3l-0.3-2.3l-19.3-4.2l-0.9,0.1L201,584.3L201,584.3z M202,593.5l13.4,3.2
			l1.8,16.3c-5.1,0.7-8.3,1.1-8.3,1.1l-2.3-0.8l-2.4,0.3L202,593.5L202,593.5z"/>
	</g>
</g>
<g opacity="0.2">
	<path fill="#5D6FB4" d="M230,764.9l36.8,16.2c1.6,0.7,3.4,0,4.1-1.6l17.2-39c0.7-1.6,0-3.4-1.6-4.1l-36.8-16.2
		c-1.6-0.7-3.4,0-4.1,1.6l-17.2,39C227.7,762.4,228.4,764.2,230,764.9z M280.9,738.1c0.2-0.5,0.8-0.7,1.2-0.5l2.7,1.2
		c0.5,0.2,0.7,0.8,0.5,1.2l-1.2,2.8c-0.2,0.5-0.8,0.7-1.2,0.5l-2.7-1.2c-0.5-0.2-0.7-0.8-0.5-1.2L280.9,738.1z M277.8,745.1
		c0.2-0.5,0.8-0.7,1.2-0.5l2.7,1.2c0.5,0.2,0.7,0.8,0.5,1.2l-1.2,2.8c-0.2,0.5-0.8,0.7-1.2,0.5l-2.7-1.2c-0.5-0.2-0.7-0.8-0.5-1.2
		L277.8,745.1z M274.7,752.1c0.2-0.5,0.8-0.7,1.2-0.5l2.7,1.2c0.5,0.2,0.7,0.8,0.5,1.2l-1.2,2.8c-0.2,0.5-0.8,0.7-1.2,0.5l-2.7-1.2
		c-0.5-0.2-0.7-0.8-0.5-1.2L274.7,752.1z M271.6,759.1c0.2-0.5,0.8-0.7,1.2-0.5l2.7,1.2c0.5,0.2,0.7,0.8,0.5,1.2l-1.2,2.8
		c-0.2,0.5-0.8,0.7-1.2,0.5l-2.7-1.2c-0.5-0.2-0.7-0.8-0.5-1.2L271.6,759.1z M268.5,766.1c0.2-0.5,0.8-0.7,1.2-0.5l2.7,1.2
		c0.5,0.2,0.7,0.8,0.5,1.2l-1.2,2.8c-0.2,0.5-0.8,0.7-1.2,0.5l-2.7-1.2c-0.5-0.2-0.7-0.8-0.5-1.2L268.5,766.1z M265.5,773.1
		c0.2-0.5,0.8-0.7,1.2-0.5l2.7,1.2c0.5,0.2,0.7,0.8,0.5,1.2l-1.2,2.8c-0.2,0.5-0.8,0.7-1.2,0.5l-2.7-1.2c-0.5-0.2-0.7-0.8-0.5-1.2
		L265.5,773.1z M254.3,728.9c0.2-0.5,0.8-0.7,1.2-0.5l21,9.3c0.5,0.2,0.7,0.8,0.5,1.2l-6,13.6c-0.2,0.5-0.8,0.7-1.2,0.5l-21-9.3
		c-0.5-0.2-0.7-0.8-0.5-1.2L254.3,728.9z M245.1,749.9c0.2-0.5,0.8-0.7,1.2-0.5l21,9.3c0.5,0.2,0.7,0.8,0.5,1.2l-5.6,12.6
		c-0.2,0.5-0.8,0.7-1.2,0.5l-21-9.3c-0.5-0.2-0.7-0.8-0.5-1.2L245.1,749.9z M247.9,723.6c0.2-0.5,0.8-0.7,1.2-0.5l2.7,1.2
		c0.5,0.2,0.7,0.8,0.5,1.2l-1.2,2.8c-0.2,0.5-0.8,0.7-1.2,0.5l-2.7-1.2c-0.5-0.2-0.7-0.8-0.5-1.2L247.9,723.6z M244.8,730.6
		c0.2-0.5,0.8-0.7,1.2-0.5l2.7,1.2c0.5,0.2,0.7,0.8,0.5,1.2l-1.2,2.8c-0.2,0.5-0.8,0.7-1.2,0.5l-2.7-1.2c-0.5-0.2-0.7-0.8-0.5-1.2
		L244.8,730.6z M241.7,737.6c0.2-0.5,0.8-0.7,1.2-0.5l2.7,1.2c0.5,0.2,0.7,0.8,0.5,1.2l-1.2,2.8c-0.2,0.5-0.8,0.7-1.2,0.5l-2.7-1.2
		c-0.5-0.2-0.7-0.8-0.5-1.2L241.7,737.6z M238.7,744.6c0.2-0.5,0.8-0.7,1.2-0.5l2.7,1.2c0.5,0.2,0.7,0.8,0.5,1.2l-1.2,2.8
		c-0.2,0.5-0.8,0.7-1.2,0.5l-2.7-1.2c-0.5-0.2-0.7-0.8-0.5-1.2L238.7,744.6z M235.6,751.6c0.2-0.5,0.8-0.7,1.2-0.5l2.7,1.2
		c0.5,0.2,0.7,0.8,0.5,1.2l-1.2,2.8c-0.2,0.5-0.8,0.7-1.2,0.5l-2.7-1.2c-0.5-0.2-0.7-0.8-0.5-1.2L235.6,751.6z M232.5,758.6
		c0.2-0.5,0.8-0.7,1.2-0.5l2.7,1.2c0.5,0.2,0.7,0.8,0.5,1.2l-1.2,2.8c-0.2,0.5-0.8,0.7-1.2,0.5l-2.7-1.2c-0.5-0.2-0.7-0.8-0.5-1.2
		L232.5,758.6z"/>
</g>
<g opacity="0.2">
	<path fill="#5D6FB4" d="M398,540.7l-46.8-16.8c-1.8-0.7-3.9,0.3-4.5,2.1l-16.8,46.8c-0.7,1.8,0.3,3.9,2.1,4.5l46.8,16.8
		c1.8,0.7,3.9-0.3,4.5-2.1l16.8-46.8C400.8,543.4,399.8,541.3,398,540.7z M380.1,538l0.9,7.9l-6.7-2.4l-0.9-7.9L380.1,538z
		 M366.7,533.2l0.9,7.9l-6.7-2.4l-0.9-7.9L366.7,533.2z M350,527.2l3.3,1.2l0.9,7.9l-6.7-2.4L350,527.2z M380,590.8L333.2,574
		l13.2-36.8l46.8,16.8L380,590.8z M394.4,550.7l-6.7-2.4l-0.9-7.9l6.7,2.4l2.1,4.5L394.4,550.7z M374.1,566.2c1.3,1.4,0.9,2.8-1.1,3
		l-20.5,2.5c-1.9,0.2-3-1.1-2.3-2.9l6-16.7c0.7-1.8,2.3-2.2,3.7-0.8L374.1,566.2z"/>
</g>
<g opacity="0.2">
	<g id="_x33__2_">
		<g>
			<path fill="#5D6FB4" d="M167.3,702.4l-11.4,13.6c-0.9-2.9-2.9-5-5.4-6.1c3.9-4.3,5.6-10.5,3.8-16.5c-2.7-9.1-12.3-14.3-21.4-11.6
				s-14.3,12.3-11.6,21.4c1.4,4.6,4.5,8.2,8.5,10.3l-8.7,2.6c1.5-3.2,2-6.9,0.9-10.5c-2.3-7.8-10.5-12.3-18.4-9.9
				c-7.8,2.3-12.3,10.5-9.9,18.4c1.3,4.3,4.3,7.5,8.1,9.2c-2.4,2.5-3.5,6.1-2.5,9.7l5.6,18.9c1.5,5.2,7,8.2,12.2,6.6l37.7-11.2
				c5.2-1.5,8.2-7,6.6-12.2l17,5.2c2.6-0.8,4.1-3.5,3.3-6.1l-8.4-28.3C172.6,703.1,169.9,701.6,167.3,702.4z M110.7,719.2
				c-5.2,1.5-10.7-1.4-12.2-6.6c-1.5-5.2,1.4-10.7,6.6-12.2c5.2-1.5,10.7,1.4,12.2,6.6S115.9,717.7,110.7,719.2z M141.3,710.1
				c-6.5,1.9-13.4-1.8-15.3-8.3c-1.9-6.5,1.8-13.4,8.3-15.3c6.5-1.9,13.4,1.8,15.3,8.3S147.9,708.2,141.3,710.1z"/>
		</g>
	</g>
</g>
<g opacity="0.2">
	<g>
		<path fill="#5D6FB4" d="M472.5,673.1l1.1-13.9c0,0,5.7-11-57.4-16c-25.4-2-41.3-5-51.4-7.8l0.7-9.5c-17.2-3.2-17.7,0.3-17.4,1.6
			c-0.1-0.1-0.1-0.1-0.1-0.1l-1.9,26.1c0,0,9.2,6.3,46.1,12.2l-0.7,9.1c84.2,16.9,80.2,8.3,80.2,8.3L472.5,673.1z M354.2,625.8
			l-0.2,3.3l0.2,0c0,0-0.1,0-0.1,0.1l-3.9-0.9C350.4,626.7,352.1,626,354.2,625.8z M352,634.9L352,634.9l-0.3-0.1c0,0-0.1,0-0.1-0.1
			l-1.3-0.6l0.2-3.1c1.4,0.6,2.8,1.4,2.8,1.4l-0.2,3C352.7,635.3,352.3,635.1,352,634.9z M356.2,625.7c1.1,0,2.2,0.1,3.3,0.2
			l-0.2,2.9c-1.2-0.1-2.4-0.2-3.3-0.1L356.2,625.7z M355,636.3l0.2-3c1,0.4,2,0.8,3.1,1.2l-0.2,2.9C357,637,356,636.7,355,636.3z
			 M361.4,626.2c1,0.2,1.8,0.3,2.2,0.4l-0.3,2.9c-0.7-0.1-1.4-0.3-2.1-0.4L361.4,626.2z M353.7,654.9l0.2-3c1,0.4,2,0.8,3.1,1.2
			l-0.2,2.9C355.7,655.7,354.6,655.3,353.7,654.9z M360,638.1l0.2-2.9c1,0.3,2,0.6,3.1,1l-0.2,2.9C362,638.7,361,638.4,360,638.1z
			 M358.7,656.7l0.2-2.9c1,0.3,2,0.6,3.1,1l-0.2,2.9C360.7,657.3,359.7,657,358.7,656.7z M365,639.5l0.2-2.9c1,0.3,2,0.5,3.1,0.8
			l-0.2,2.8C367.1,640.1,366.1,639.8,365,639.5z M363.7,658.2l0.2-2.9c1,0.3,2,0.5,3.1,0.8l-0.2,2.8
			C365.7,658.7,364.7,658.5,363.7,658.2z M370.1,640.8l0.2-2.8c1,0.2,2.1,0.5,3.1,0.7l-0.2,2.8C372.1,641.2,371.1,641,370.1,640.8z
			 M368.7,659.4l0.2-2.8c1,0.2,2.1,0.5,3.1,0.7l-0.2,2.8C370.8,659.9,369.8,659.7,368.7,659.4z M377,642.2c-0.6-0.1-1.2-0.3-1.8-0.4
			l0.2-2.8c1,0.2,2.1,0.4,3.1,0.6l-0.2,2.8C377.8,642.4,377.4,642.3,377,642.2z M375.6,660.9c-0.6-0.1-1.2-0.2-1.8-0.4l0.2-2.8
			c1,0.2,2.1,0.4,3.1,0.6l-0.2,2.8C376.5,661.1,376.1,661,375.6,660.9z M380.2,642.8l0.2-2.8c1,0.2,2.1,0.4,3.1,0.5l-0.2,2.8
			C382.3,643.2,381.2,643,380.2,642.8z M378.9,661.5l0.2-2.8c1,0.2,2.1,0.4,3.1,0.5L382,662C380.9,661.9,379.9,661.7,378.9,661.5z
			 M385.3,643.7l0.2-2.8c1,0.2,2.1,0.3,3.1,0.5l-0.2,2.8C387.4,644.1,386.3,643.9,385.3,643.7z M383.9,662.4l0.2-2.8
			c1,0.2,2.1,0.3,3.1,0.5l-0.2,2.8C386,662.7,385,662.5,383.9,662.4z M390.4,644.5l0.2-2.8c1,0.2,2.1,0.3,3.1,0.5l-0.2,2.8
			C392.4,644.8,391.4,644.7,390.4,644.5z M395.4,645.2l0.2-2.8c1,0.1,2.1,0.3,3.1,0.4l-0.2,2.8C397.5,645.5,396.5,645.4,395.4,645.2
			z M472,662l-0.3,4l0,0c-0.5,0.2-1.7,0.7-4.9,0.9l0.3-4.6c0.2,0,0.4,0,0.5,0.1c0.1,0,0.3,0,0.4,0C469.8,662.6,471.6,662.1,472,662z
			 M467.7,653.9L467.7,653.9c0.1,0,0.2,0.1,0.2,0.1l0,0c0.5,0.2,1.6,0.8,1.8,1.1l-0.2,2.9l-2.9-1.4c0,0-0.1,0-0.1,0l0.2-3
			C467.2,653.7,467.5,653.9,467.7,653.9z M464.8,667c-1.2,0-2.6,0-4.2,0l0.3-4.4c1.8,0,3.1,0,4.2,0L464.8,667z M464.8,652.9
			l-0.2,2.9c-0.8-0.3-1.8-0.6-3.1-1l0.2-2.9C462.9,652.2,463.9,652.6,464.8,652.9z M458.8,662.5l-0.3,4.4c-1.3-0.1-2.7-0.2-4.2-0.3
			l0.3-4.3C456.2,662.4,457.6,662.5,458.8,662.5z M459.8,651.3l-0.2,2.9c-1-0.3-2-0.6-3.1-0.9l0.2-2.9
			C457.8,650.7,458.8,651,459.8,651.3z M452.3,666.5c-1.3-0.1-2.7-0.3-4.2-0.4l0.3-4.3c1.5,0.2,2.9,0.3,4.2,0.4L452.3,666.5z
			 M454.7,649.9l-0.2,2.9c-1-0.3-2-0.5-3.1-0.8l0.2-2.9C452.7,649.4,453.7,649.6,454.7,649.9z M449.7,648.7l-0.2,2.9
			c-1-0.2-2-0.4-3.1-0.6l0.2-2.9C447.7,648.3,448.7,648.5,449.7,648.7z M446.4,661.5l-0.3,4.3c-1.3-0.1-2.7-0.3-4.2-0.5l0.3-4.3
			C443.7,661.2,445.1,661.4,446.4,661.5z M444.6,647.7l-0.2,2.9c-1-0.2-2.1-0.4-3.1-0.5l0.2-2.9
			C442.6,647.3,443.6,647.5,444.6,647.7z M440.2,660.8l-0.3,4.3c-1.3-0.2-2.7-0.4-4.1-0.6l0.3-4.3
			C437.5,660.4,438.9,660.6,440.2,660.8z M439.6,646.9l-0.2,2.9c-1-0.1-2.1-0.3-3.1-0.4l0.2-2.9
			C437.5,646.6,438.5,646.7,439.6,646.9z M433.7,664.2c-1.3-0.2-2.7-0.4-4.1-0.6l0.3-4.3c1.4,0.2,2.8,0.4,4.1,0.6L433.7,664.2z
			 M434.5,646.2l-0.2,2.9c-1-0.1-2.1-0.2-3.1-0.3l0.2-2.9C432.4,646,433.4,646.1,434.5,646.2z M427.6,663.3
			c-1.3-0.2-2.7-0.4-4.1-0.7l0.3-4.3c1.4,0.2,2.8,0.5,4.1,0.7L427.6,663.3z M428.2,645.6c0.4,0,0.8,0.1,1.2,0.1l-0.2,2.9
			c-0.2,0-0.3,0-0.5,0c-0.7,0-1.6-0.1-2.6-0.2l0.2-2.9C426.9,645.6,427.5,645.6,428.2,645.6z M421.4,662.2c-1.3-0.2-2.7-0.5-4.1-0.7
			l0.3-4.3c1.4,0.2,2.8,0.5,4.1,0.7L421.4,662.2z M424.3,645.4l-0.2,2.9c-1-0.1-2-0.2-3.1-0.3l0.2-2.9
			C422.2,645.2,423.2,645.3,424.3,645.4z M419.2,645l-0.2,2.9c-1-0.1-2-0.2-3.1-0.3l0.2-2.9C417.1,644.8,418.1,644.9,419.2,645z
			 M415.5,656.9l-0.3,4.3c-1.3-0.2-2.7-0.5-4.1-0.7l0.3-4.3C412.8,656.4,414.2,656.6,415.5,656.9z M414.1,644.5l-0.2,2.9
			c-1-0.1-2.1-0.2-3.1-0.3l0.2-2.9C412,644.3,413,644.4,414.1,644.5z M409.1,660c-1.4-0.2-2.7-0.5-4.1-0.8l0.3-4.3
			c1.4,0.3,2.8,0.5,4.1,0.8L409.1,660z M409,644l-0.2,2.9c-1-0.1-2.1-0.2-3.1-0.3l0.2-2.8C406.9,643.8,407.9,643.9,409,644z
			 M403.9,643.4l-0.2,2.8c-1-0.1-2.1-0.2-3.1-0.4l0.2-2.8C401.8,643.2,402.8,643.3,403.9,643.4z M396.8,657.7l0.3-4.3
			c2.1,0.4,4.1,0.8,6.1,1.2l-0.3,4.3c-1-0.2-1.9-0.4-2.9-0.6C399,658.1,397.9,657.9,396.8,657.7z M398.5,674.5
			c-1.1-0.2-2.2-0.4-3.3-0.6l0.3-4.3c2.1,0.4,4.2,0.8,6.1,1.2l-0.3,4.3C400.4,674.9,399.5,674.7,398.5,674.5z M403.3,675.4l0.3-4.3
			c1.4,0.3,2.8,0.5,4.2,0.8l-0.3,4.3C406.2,676,404.8,675.7,403.3,675.4z M409.5,676.6l0.3-4.3c1.4,0.3,2.8,0.5,4.2,0.8l-0.3,4.3
			C412.4,677.1,411,676.8,409.5,676.6z M415.7,677.7l0.3-4.3c1.4,0.3,2.9,0.5,4.2,0.7l-0.3,4.3C418.5,678.2,417.1,677.9,415.7,677.7
			z M421.8,678.7l0.3-4.3c1.5,0.2,2.9,0.5,4.2,0.7l-0.3,4.3C424.7,679.2,423.3,679,421.8,678.7z M428,679.7l0.3-4.3
			c1.5,0.2,2.9,0.4,4.2,0.6l-0.3,4.3C430.9,680.2,429.5,680,428,679.7z M434.2,680.7l0.3-4.3c1.5,0.2,2.9,0.4,4.2,0.6l-0.3,4.3
			C437.1,681.1,435.7,680.9,434.2,680.7z M440.4,681.5l0.3-4.3c1.5,0.2,2.9,0.4,4.2,0.5l-0.3,4.3
			C443.3,681.9,441.8,681.7,440.4,681.5z M446.6,682.2l0.3-4.3c1.5,0.2,2.9,0.3,4.2,0.4l-0.3,4.4
			C449.5,682.5,448.1,682.4,446.6,682.2z M452.8,682.8l0.3-4.4c1.6,0.1,3,0.2,4.3,0.3l-0.3,4.4C455.7,683,454.3,682.9,452.8,682.8z
			 M459,683.2l0.3-4.4c1.8,0,3.2,0,4.3,0l-0.3,4.5C462,683.2,460.6,683.2,459,683.2z M465.2,683.1l0.3-4.6c0.2,0,0.4,0,0.5,0.1
			c0.1,0,0.3,0,0.4,0c2,0.1,4-0.5,4-0.5l-0.3,4.1l0,0C469.8,682.5,468.5,683,465.2,683.1z"/>
	</g>
</g>
<path opacity="0.2" fill="#5D6FB4" d="M739.7,586.1c-21.6-7-44.8,4.9-51.8,26.5c-7,21.6,4.9,44.8,26.5,51.8
	c21.6,7,44.8-4.9,51.8-26.5C773.2,616.4,761.4,593.1,739.7,586.1z M744.8,634.5l-28.6,8.5c-0.8,0.2-1.6,0.2-2.4,0
	c-0.6-0.2-1.2-0.5-1.6-1c-1-1.1-1.4-2.6-0.9-4l10.4-32.1c0.5-1.4,1.7-2.5,3.1-2.7c1.5-0.3,3,0.3,3.9,1.5l18.2,23.6
	c0.8,1,1,2.4,0.6,3.7S746.1,634.1,744.8,634.5z"/>
<path opacity="0.2" fill="#5D6EB4" d="M872.4,717.4c-20.2,10.9-27.8,36.1-16.9,56.4c10.9,20.2,36.1,27.8,56.4,16.9
	c20.2-10.9,27.8-36.1,16.9-56.4C917.9,714.1,892.6,706.5,872.4,717.4z M876.1,775.2c-5.4,2.9-12.1,0.9-15-4.5
	c-2.9-5.4-0.9-12.1,4.5-15c5.4-2.9,12.1-0.9,15,4.5C883.5,765.6,881.5,772.3,876.1,775.2z M908.8,785c-5.4,2.9-12.1,0.9-15-4.5
	c-2.9-5.4-0.9-12.1,4.5-15c5.4-2.9,12.1-0.9,15,4.5C916.2,775.4,914.2,782.1,908.8,785z M888.3,756.1c-1.2-2.1-0.4-4.8,1.8-6
	c2.1-1.2,4.8-0.4,6,1.8c1.2,2.1,0.4,4.8-1.8,6C892.1,759.1,889.4,758.3,888.3,756.1z M886,742.5c-5.4,2.9-12.1,0.9-15-4.5
	s-0.9-12.1,4.5-15c5.4-2.9,12.1-0.9,15,4.5C893.4,732.9,891.4,739.6,886,742.5z M918.6,752.4c-5.4,2.9-12.1,0.9-15-4.5
	c-2.9-5.4-0.9-12.1,4.5-15c5.4-2.9,12.1-0.9,15,4.5C926,742.7,924,749.5,918.6,752.4z"/>
<g opacity="0.2">
	<path fill="#5D6EB4" d="M385.9,734.2c-16.1-6.6-34.3,1.1-40.9,17.4c-6.6,16.2,1,34.4,17.2,41c16.1,6.6,34.3-1.1,40.9-17.4
		C409.6,758.9,401.8,740.6,385.9,734.2z M355.2,763.7c-3.8-1.5-5.7-6.1-4-9.8c1.5-3.8,6.1-5.7,9.8-4.1c3.8,1.5,5.7,6.1,4,9.8
		C363.4,763.4,359.1,765.3,355.2,763.7z M364.5,786.2c-3.8-1.5-5.7-6.1-4-9.8c1.5-3.8,6.1-5.7,9.8-4.1c3.8,1.5,5.7,6.1,4,9.8
		C372.9,785.8,368.3,787.7,364.5,786.2z M370.9,762.1c0.6-1.6,2.6-2.5,4.3-1.8c1.7,0.7,2.5,2.6,1.8,4.3c-0.7,1.7-2.5,2.5-4.2,1.8
		C371,765.7,370.3,763.6,370.9,762.1z M377.7,754.3c-3.8-1.5-5.7-6.1-4-9.8c1.5-3.8,6.1-5.7,9.8-4.1c3.8,1.5,5.7,6.1,4,9.8
		C385.8,754.1,381.5,755.9,377.7,754.3z M386.9,776.8c-3.8-1.5-5.7-6.1-4-9.8c1.5-3.8,6.1-5.7,9.8-4.1c3.8,1.5,5.7,6.1,4,9.8
		C395.2,776.4,390.7,778.3,386.9,776.8z"/>
</g>
<g opacity="0.2">
	<g>
		<path fill="#5D6EB4" d="M914.4,562c13-6.4,18.3-22.1,11.9-35.1c-6.4-13-22.1-18.3-35.1-11.9c-13,6.4-18.3,22.1-11.9,35.1
			C885.7,563.1,901.4,568.4,914.4,562z M900.7,562.4c-0.4,0.2-1,0-1.2-0.4c-0.2-0.4,0-1,0.4-1.2c0.4-0.2,1,0,1.2,0.4
			C901.3,561.7,901.1,562.2,900.7,562.4z M891.5,554.4l9.8-11l7.3,14.1C902.7,559.3,896.3,558.1,891.5,554.4z M903.7,541.7
			c-1.8,0.9-4,0.2-4.9-1.7c-0.9-1.8-0.2-4,1.6-4.9c1.8-0.9,4-0.2,4.9,1.7C906.3,538.6,905.5,540.8,903.7,541.7z M922.8,549.5
			c-0.4,0.2-1,0-1.2-0.4c-0.2-0.4,0-1,0.4-1.2c0.4-0.2,1,0,1.2,0.4C923.5,548.7,923.3,549.3,922.8,549.5z M914.4,554.6l-7.5-14.5
			l15.3-1.1C922.3,545,919.5,550.9,914.4,554.6z M918.1,522.9c0.4-0.2,1,0,1.2,0.4c0.2,0.4,0,1-0.4,1.2c-0.4,0.2-1,0-1.2-0.4
			C917.5,523.7,917.7,523.2,918.1,522.9z M920.3,530.8c0.3,0.6,0.5,1.2,0.8,1.8l-15.9,1.2l3-12.9
			C913.2,522.2,917.7,525.7,920.3,530.8z M891.5,518.2c0.4-0.2,1,0,1.2,0.4s0,1-0.4,1.2c-0.4,0.2-1,0-1.2-0.4
			C890.8,519,891,518.4,891.5,518.2z M894.7,522.1c2.3-1.1,4.6-1.7,7-1.9l-3,12.8l-11.4-4.4C889.1,525.9,891.6,523.7,894.7,522.1z
			 M881,544.3c-0.4,0.2-1,0-1.2-0.4c-0.2-0.4,0-1,0.4-1.2c0.4-0.2,1,0,1.2,0.4C881.6,543.6,881.4,544.1,881,544.3z M886,547.7
			c-2.1-4.3-2.5-9-1.4-13.3l11.8,4.6l-9.4,10.5C886.7,549,886.4,548.4,886,547.7z"/>
		<path fill="#5D6EB4" d="M978.5,481.7c-7-14.1-24-19.9-38.1-12.9c-14.1,7-19.9,24-12.9,38.1c6,12.1,19.5,18.1,32.1,15.1l1,5.9
			l-6.2,3.1l-2.4-5c-0.4-0.7-1.2-1-1.9-0.7l-18.3,9c-0.7,0.4-1,1.2-0.7,1.9l2.4,5l-2.5,1.2c-0.8,5-2.8,9.7-6,13.6l0.4,0.9l6.3-8.6
			l22.8-11.3l15,30.3l-7.6,3.8l-1.3-2.5l-27.9,3.3c0,0,1.4,2.7,3,6.1c1.7,3.4,6.4,4.5,10.5,2.4l35-17.3c4.1-2,5.8-7.1,3.8-11.2
			l-14.4-29.1l-2.9,1.4l-2.2-4.4C979.7,512.9,985.5,495.8,978.5,481.7z M951.8,532.2l-15.7,7.8l-1.8-3.7l15.7-7.8L951.8,532.2
			L951.8,532.2z M974.8,506.3c-0.5,0.2-1.1,0-1.3-0.4c-0.2-0.5,0-1.1,0.4-1.3c0.5-0.2,1.1,0,1.3,0.4
			C975.5,505.4,975.3,506,974.8,506.3z M965.7,511.8l-8.2-15.8l16.7-1.2C974.2,501.4,971.2,507.8,965.7,511.8z M969.7,477.4
			c0.5-0.2,1.1,0,1.3,0.4c0.2,0.5,0,1.1-0.4,1.3c-0.5,0.2-1.1,0-1.3-0.4C969,478.3,969.2,477.7,969.7,477.4z M972,486
			c0.3,0.6,0.6,1.3,0.8,1.9l-17.2,1.3l3.3-14C964.4,476.7,969.2,480.4,972,486z M940.7,472.3c0.5-0.2,1.1,0,1.3,0.4
			c0.2,0.5,0,1.1-0.4,1.3c-0.5,0.2-1.1,0-1.3-0.4C940,473.1,940.2,472.5,940.7,472.3z M944.2,476.6c2.4-1.2,5-1.9,7.6-2.1l-3.2,13.9
			l-12.3-4.8C938.2,480.7,940.9,478.2,944.2,476.6z M929.3,500.7c-0.5,0.2-1.1,0-1.3-0.4c-0.2-0.5,0-1.1,0.4-1.3
			c0.5-0.2,1.1,0,1.3,0.4C930,499.8,929.8,500.4,929.3,500.7z M934.8,504.3c-2.3-4.7-2.7-9.7-1.5-14.4l12.8,5L936,506.4
			C935.6,505.7,935.2,505.1,934.8,504.3z M950.7,520.3c-0.5,0.2-1.1,0-1.3-0.4c-0.2-0.5,0-1.1,0.4-1.3c0.5-0.2,1.1,0,1.3,0.4
			C951.4,519.5,951.2,520.1,950.7,520.3z M940.8,511.6l10.6-12l8,15.4C952.9,516.9,946,515.6,940.8,511.6z M954,497.8
			c-2,1-4.3,0.2-5.3-1.8c-1-2-0.2-4.3,1.8-5.3c2-1,4.3-0.2,5.3,1.8C956.8,494.5,956,496.9,954,497.8z"/>
		<polygon fill="#5D6EB4" points="967.5,566.6 953.8,538.9 932.6,549.4 924.6,560.3 929.7,570.7 961.4,566.9 962.5,569.1 		"/>
	</g>
</g>
<g opacity="0.2">
	<path fill="#5D6FB4" d="M31.6,672.6l38,10.6c1.6,0.4,3.3-0.5,3.8-2.1l11.2-40.3c0.4-1.6-0.5-3.3-2.1-3.8l-38-10.6
		c-1.6-0.5-3.3,0.5-3.8,2.1l-11.2,40.3C29,670.4,30,672.1,31.6,672.6z M77.2,639.4c0.1-0.5,0.6-0.8,1.1-0.6l2.8,0.8
		c0.5,0.1,0.8,0.6,0.6,1.1l-0.8,2.8c-0.1,0.5-0.6,0.8-1.1,0.6l-2.8-0.8c-0.5-0.1-0.8-0.6-0.6-1.1L77.2,639.4z M75.2,646.6
		c0.1-0.5,0.6-0.8,1.1-0.6l2.8,0.8c0.5,0.1,0.8,0.6,0.6,1.1l-0.8,2.8c-0.1,0.5-0.6,0.8-1.1,0.6l-2.8-0.8c-0.5-0.1-0.8-0.6-0.6-1.1
		L75.2,646.6z M73.2,653.8c0.1-0.5,0.6-0.8,1.1-0.6l2.8,0.8c0.5,0.1,0.8,0.6,0.6,1.1l-0.8,2.8c-0.1,0.5-0.6,0.8-1.1,0.6l-2.8-0.8
		c-0.5-0.1-0.8-0.6-0.6-1.1L73.2,653.8z M71.2,661.1c0.1-0.5,0.6-0.8,1.1-0.6l2.8,0.8c0.5,0.1,0.8,0.6,0.6,1.1l-0.8,2.8
		c-0.1,0.5-0.6,0.8-1.1,0.6L71,665c-0.5-0.1-0.8-0.6-0.6-1.1L71.2,661.1z M69.2,668.3c0.1-0.5,0.6-0.8,1.1-0.6l2.8,0.8
		c0.5,0.1,0.8,0.6,0.6,1.1l-0.8,2.8c-0.1,0.5-0.6,0.8-1.1,0.6l-2.8-0.8c-0.5-0.1-0.8-0.6-0.6-1.1L69.2,668.3z M67.2,675.5
		c0.1-0.5,0.6-0.8,1.1-0.6l2.8,0.8c0.5,0.1,0.8,0.6,0.6,1.1l-0.8,2.8c-0.1,0.5-0.6,0.8-1.1,0.6l-2.8-0.8c-0.5-0.1-0.8-0.6-0.6-1.1
		L67.2,675.5z M50.1,634.1c0.1-0.5,0.6-0.8,1.1-0.6l21.7,6c0.5,0.1,0.8,0.6,0.6,1.1l-3.9,14.1c-0.1,0.5-0.6,0.8-1.1,0.6l-21.7-6
		c-0.5-0.1-0.8-0.6-0.6-1.1L50.1,634.1z M44.1,655.8c0.1-0.5,0.6-0.8,1.1-0.6l21.7,6c0.5,0.1,0.8,0.6,0.6,1.1l-3.6,13
		c-0.1,0.5-0.6,0.8-1.1,0.6l-21.7-6c-0.5-0.1-0.8-0.6-0.6-1.1L44.1,655.8z M43.1,629.9c0.1-0.5,0.6-0.8,1.1-0.6L47,630
		c0.5,0.1,0.8,0.6,0.6,1.1l-0.8,2.8c-0.1,0.5-0.6,0.8-1.1,0.6l-2.8-0.8c-0.5-0.1-0.8-0.6-0.6-1.1L43.1,629.9z M41.1,637.1
		c0.1-0.5,0.6-0.8,1.1-0.6l2.8,0.8c0.5,0.1,0.8,0.6,0.6,1.1l-0.8,2.8c-0.1,0.5-0.6,0.8-1.1,0.6l-2.8-0.8c-0.5-0.1-0.8-0.6-0.6-1.1
		L41.1,637.1z M39.1,644.4c0.1-0.5,0.6-0.8,1.1-0.6l2.8,0.8c0.5,0.1,0.8,0.6,0.6,1.1l-0.8,2.8c-0.1,0.5-0.6,0.8-1.1,0.6l-2.8-0.8
		c-0.5-0.1-0.8-0.6-0.6-1.1L39.1,644.4z M37.1,651.6c0.1-0.5,0.6-0.8,1.1-0.6l2.8,0.8c0.5,0.1,0.8,0.6,0.6,1.1l-0.8,2.8
		c-0.1,0.5-0.6,0.8-1.1,0.6l-2.8-0.8c-0.5-0.1-0.8-0.6-0.6-1.1L37.1,651.6z M35.1,658.8c0.1-0.5,0.6-0.8,1.1-0.6L39,659
		c0.5,0.1,0.8,0.6,0.6,1.1l-0.8,2.8c-0.1,0.5-0.6,0.8-1.1,0.6l-2.8-0.8c-0.5-0.1-0.8-0.6-0.6-1.1L35.1,658.8z M33.1,666.1
		c0.1-0.5,0.6-0.8,1.1-0.6l2.8,0.8c0.5,0.1,0.8,0.6,0.6,1.1l-0.8,2.8c-0.1,0.5-0.6,0.8-1.1,0.6l-2.8-0.8c-0.5-0.1-0.8-0.6-0.6-1.1
		L33.1,666.1z"/>
</g>
<g opacity="0.3">
</g>
<g opacity="0.2">
	<path fill="#5D6FB4" d="M837.5,650.8l46.2,19.2c2,0.8,4.2-0.1,5.1-2.1l20.4-49c0.8-2-0.1-4.2-2.1-5.1l-46.2-19.2
		c-2-0.8-4.3,0.1-5.1,2.1l-20.4,49C834.6,647.7,835.5,650,837.5,650.8z M900.1,616.1c0.2-0.6,0.9-0.9,1.5-0.6l3.4,1.4
		c0.6,0.2,0.9,0.9,0.6,1.5l-1.4,3.5c-0.2,0.6-0.9,0.9-1.5,0.6l-3.4-1.4c-0.6-0.2-0.9-0.9-0.6-1.5L900.1,616.1z M896.5,624.9
		c0.2-0.6,0.9-0.9,1.5-0.6l3.4,1.4c0.6,0.2,0.9,0.9,0.6,1.5l-1.4,3.5c-0.2,0.6-0.9,0.9-1.5,0.6l-3.4-1.4c-0.6-0.2-0.9-0.9-0.6-1.5
		L896.5,624.9z M892.8,633.7c0.2-0.6,0.9-0.9,1.5-0.6l3.4,1.4c0.6,0.2,0.9,0.9,0.6,1.5l-1.4,3.5c-0.2,0.6-0.9,0.9-1.5,0.6l-3.4-1.4
		c-0.6-0.2-0.9-0.9-0.6-1.5L892.8,633.7z M889.2,642.5c0.2-0.6,0.9-0.9,1.5-0.6l3.4,1.4c0.6,0.2,0.9,0.9,0.6,1.5l-1.4,3.5
		c-0.2,0.6-0.9,0.9-1.5,0.6l-3.4-1.4c-0.6-0.2-0.9-0.9-0.6-1.5L889.2,642.5z M885.5,651.3c0.2-0.6,0.9-0.9,1.5-0.6l3.4,1.4
		c0.6,0.2,0.9,0.9,0.6,1.5l-1.4,3.5c-0.2,0.6-0.9,0.9-1.5,0.6l-3.4-1.4c-0.6-0.2-0.9-0.9-0.6-1.5L885.5,651.3z M881.8,660
		c0.2-0.6,0.9-0.9,1.5-0.6l3.4,1.4c0.6,0.2,0.9,0.9,0.6,1.5l-1.4,3.5c-0.2,0.6-0.9,0.9-1.5,0.6L881,665c-0.6-0.2-0.9-0.9-0.6-1.5
		L881.8,660z M866.8,605.3c0.2-0.6,0.9-0.9,1.5-0.6l26.4,11c0.6,0.2,0.9,0.9,0.6,1.5l-7.1,17.1c-0.2,0.6-0.9,0.9-1.5,0.6l-26.4-11
		c-0.6-0.2-0.9-0.9-0.6-1.5L866.8,605.3z M855.8,631.7c0.2-0.6,0.9-0.9,1.5-0.6l26.4,11c0.6,0.2,0.9,0.9,0.6,1.5l-6.6,15.8
		c-0.2,0.6-0.9,0.9-1.5,0.6l-26.4-11c-0.6-0.2-0.9-0.9-0.6-1.5L855.8,631.7z M858.7,598.9c0.2-0.6,0.9-0.9,1.5-0.6l3.4,1.4
		c0.6,0.2,0.9,0.9,0.6,1.5l-1.4,3.5c-0.2,0.6-0.9,0.9-1.5,0.6l-3.4-1.4c-0.6-0.2-0.9-0.9-0.6-1.5L858.7,598.9z M855.1,607.6
		c0.2-0.6,0.9-0.9,1.5-0.6l3.4,1.4c0.6,0.2,0.9,0.9,0.6,1.5l-1.4,3.5c-0.2,0.6-0.9,0.9-1.5,0.6l-3.4-1.4c-0.6-0.2-0.9-0.9-0.6-1.5
		L855.1,607.6z M851.4,616.4c0.2-0.6,0.9-0.9,1.5-0.6l3.4,1.4c0.6,0.2,0.9,0.9,0.6,1.5l-1.4,3.5c-0.2,0.6-0.9,0.9-1.5,0.6l-3.4-1.4
		c-0.6-0.2-0.9-0.9-0.6-1.5L851.4,616.4z M847.7,625.2c0.2-0.6,0.9-0.9,1.5-0.6l3.4,1.4c0.6,0.2,0.9,0.9,0.6,1.5l-1.4,3.5
		c-0.2,0.6-0.9,0.9-1.5,0.6l-3.4-1.4c-0.6-0.2-0.9-0.9-0.6-1.5L847.7,625.2z M844.1,634c0.2-0.6,0.9-0.9,1.5-0.6l3.4,1.4
		c0.6,0.2,0.9,0.9,0.6,1.5l-1.4,3.5c-0.2,0.6-0.9,0.9-1.5,0.6l-3.4-1.4c-0.6-0.2-0.9-0.9-0.6-1.5L844.1,634z M840.4,642.8
		c0.2-0.6,0.9-0.9,1.5-0.6l3.4,1.4c0.6,0.2,0.9,0.9,0.6,1.5l-1.4,3.5c-0.2,0.6-0.9,0.9-1.5,0.6l-3.4-1.4c-0.6-0.2-0.9-0.9-0.6-1.5
		L840.4,642.8z"/>
</g>
<g opacity="0.2">
	<path fill="#5D6FB4" d="M809.3,714.8l-58.2-20.9c-2.3-0.8-4.8,0.4-5.7,2.7l-20.9,58.2c-0.8,2.3,0.4,4.8,2.7,5.7l58.2,20.9
		c2.3,0.8,4.8-0.4,5.7-2.7l20.9-58.2C812.8,718.2,811.6,715.7,809.3,714.8z M787,711.5l1.2,9.8l-8.3-3l-1.2-9.8L787,711.5z
		 M770.4,705.6l1.2,9.8l-8.3-3l-1.2-9.8L770.4,705.6z M749.6,698.1l4.2,1.5l1.2,9.8l-8.3-3L749.6,698.1z M786.9,777.2l-58.2-20.9
		l16.4-45.7l58.2,20.9L786.9,777.2z M804.8,727.3l-8.3-3l-1.2-9.8l8.3,3l2.7,5.7L804.8,727.3z M779.6,746.7c1.7,1.8,1.1,3.4-1.3,3.7
		l-25.6,3.1c-2.4,0.3-3.7-1.3-2.9-3.6l7.5-20.8c0.8-2.3,2.9-2.7,4.5-1L779.6,746.7z"/>
</g>
<g opacity="0.2">
	<g id="_x33__1_">
		<g>
			<path fill="#5D6FB4" d="M551.2,547.2l-17.9,1.6c1.4-2.7,1.5-5.7,0.5-8.3c5.9-0.3,11.5-3.5,14.5-9c4.6-8.5,1.4-19-7-23.6
				c-8.5-4.6-19-1.4-23.6,7c-2.3,4.3-2.6,9.1-1.3,13.4l-8-4.3c3.4-1.2,6.3-3.5,8.1-6.9c3.9-7.2,1.2-16.3-6-20.2
				c-7.2-3.9-16.3-1.2-20.2,6c-2.1,4-2.3,8.4-0.8,12.3c-3.5,0-6.9,1.9-8.7,5.2l-9.5,17.5c-2.6,4.8-0.8,10.9,4,13.5l35,19
				c4.8,2.6,10.9,0.8,13.5-4l8.4,15.9c2.4,1.3,5.4,0.4,6.7-2l14.2-26.2C554.5,551.5,553.6,548.5,551.2,547.2z M498.7,518.7
				c-4.8-2.6-6.6-8.7-4-13.5s8.7-6.6,13.5-4c4.8,2.6,6.6,8.7,4,13.5C509.6,519.5,503.6,521.3,498.7,518.7z M527.1,534.2
				c-6.1-3.3-8.3-10.8-5-16.9c3.3-6.1,10.8-8.3,16.9-5c6.1,3.3,8.3,10.8,5,16.9C540.8,535.2,533.2,537.4,527.1,534.2z"/>
		</g>
	</g>
</g>
<g opacity="0.2">
	<g>
		<path fill="#5D6FB4" d="M120.5,535l-8.3-10.2c0,0-3.8-11.1-43.1,24.6c-15.8,14.3-26.9,22.2-34.5,26.5L29,569
			c-11.9,8.5-10,11.2-9,11.9c-0.1,0-0.1,0-0.1,0l15.5,19c0,0,9.3-1.4,34.2-20.3l5.4,6.6c59.1-40.7,51.3-44.1,51.3-44.1L120.5,535z
			 M22.5,576l2,2.4l0.1-0.1c0,0,0,0.1,0,0.1l-2.8,1.8C20.9,579,21.5,577.5,22.5,576z M27.1,583.7L27.1,583.7l-0.2,0.1
			c0,0-0.1,0-0.1,0l-1.2,0.4l-1.9-2.3c1.2-0.4,2.5-0.8,2.5-0.8l1.8,2.2C27.7,583.4,27.4,583.5,27.1,583.7z M23.6,574.7
			c0.6-0.7,1.3-1.3,2-1.9l1.7,2.1c-0.8,0.7-1.5,1.4-2,1.9L23.6,574.7z M29.7,582.7l-1.8-2.2c0.8-0.3,1.7-0.7,2.5-1.1l1.7,2.1
			C31.3,582,30.5,582.3,29.7,582.7z M26.9,571.8c0.7-0.5,1.2-0.9,1.5-1.1l1.6,2.1c-0.5,0.3-1,0.7-1.4,1L26.9,571.8z M40.8,596.3
			l-1.8-2.2c0.8-0.3,1.7-0.7,2.5-1.1l1.7,2.1C42.4,595.6,41.6,595.9,40.8,596.3z M33.7,580.8l-1.7-2.1c0.8-0.4,1.6-0.8,2.4-1.3
			l1.7,2.1C35.2,580,34.4,580.4,33.7,580.8z M44.8,594.4l-1.7-2.1c0.8-0.4,1.6-0.8,2.4-1.3l1.7,2.1C46.3,593.6,45.5,594,44.8,594.4z
			 M37.5,578.7l-1.7-2.1c0.7-0.4,1.5-0.9,2.3-1.4l1.7,2.1C39,577.8,38.2,578.2,37.5,578.7z M48.6,592.3l-1.7-2.1
			c0.8-0.4,1.5-0.9,2.3-1.4l1.7,2.1C50.1,591.4,49.3,591.8,48.6,592.3z M41.2,576.4l-1.7-2.1c0.7-0.5,1.5-1,2.2-1.5l1.7,2.1
			C42.7,575.5,41.9,575.9,41.2,576.4z M52.3,590l-1.7-2.1c0.7-0.5,1.5-1,2.2-1.5l1.7,2.1C53.8,589,53,589.5,52.3,590z M46.1,573.1
			c-0.4,0.3-0.9,0.6-1.3,0.9l-1.7-2.1c0.7-0.5,1.4-1,2.2-1.5l1.7,2.1C46.7,572.7,46.4,572.9,46.1,573.1z M57.2,586.7
			c-0.4,0.3-0.9,0.6-1.3,0.9l-1.7-2.1c0.7-0.5,1.4-1,2.2-1.5l1.7,2.1C57.8,586.3,57.5,586.5,57.2,586.7z M48.3,571.5l-1.7-2.1
			c0.7-0.5,1.4-1,2.1-1.6l1.7,2.1C49.7,570.5,49,571,48.3,571.5z M59.4,585.1l-1.7-2.1c0.7-0.5,1.4-1,2.1-1.6l1.7,2.1
			C60.8,584.1,60.1,584.6,59.4,585.1z M51.8,569l-1.7-2.1c0.7-0.5,1.4-1.1,2.1-1.6l1.7,2.1C53.2,567.9,52.5,568.5,51.8,569z
			 M62.9,582.6l-1.7-2.1c0.7-0.5,1.4-1.1,2.1-1.6L65,581C64.3,581.5,63.6,582.1,62.9,582.6z M55.2,566.4l-1.7-2.1
			c0.7-0.5,1.4-1.1,2.1-1.6l1.7,2.1C56.6,565.3,55.9,565.8,55.2,566.4z M58.5,563.7l-1.7-2.1c0.7-0.5,1.4-1.1,2.1-1.7l1.7,2.1
			C59.9,562.6,59.2,563.2,58.5,563.7z M113.2,527.7l2.4,2.9l0.1,0c-0.1,0.4-0.6,1.5-2.3,3.6l-2.7-3.3c0.1-0.1,0.2-0.2,0.3-0.3
			c0.1-0.1,0.2-0.1,0.2-0.2C112.2,529.4,113,528.1,113.2,527.7z M105.5,524.9L105.5,524.9c0.1,0,0.2-0.1,0.2-0.1l0,0
			c0.4-0.1,1.4-0.4,1.7-0.4l1.7,2.1l-2.6,0.8c0,0-0.1,0-0.1,0l-1.8-2.2C105.1,525.1,105.4,525,105.5,524.9z M112.2,535.6
			c-0.7,0.8-1.5,1.6-2.4,2.6l-2.6-3.2c1-1.1,1.8-1.9,2.4-2.6L112.2,535.6z M103.2,525.9l1.7,2.1c-0.6,0.3-1.5,0.7-2.4,1.2l-1.7-2.1
			C101.7,526.7,102.5,526.3,103.2,525.9z M105.9,536.2l2.6,3.2c-0.8,0.7-1.6,1.5-2.6,2.4l-2.6-3.2
			C104.3,537.8,105.2,537,105.9,536.2z M99.3,528l1.7,2.1c-0.7,0.4-1.5,0.8-2.3,1.3l-1.7-2.1C97.8,528.8,98.6,528.4,99.3,528z
			 M104.7,543c-0.8,0.7-1.7,1.5-2.6,2.3l-2.6-3.1c1-0.8,1.8-1.6,2.6-2.3L104.7,543z M95.5,530.1l1.7,2.1c-0.7,0.4-1.5,0.9-2.3,1.4
			l-1.7-2.1C94,531,94.8,530.6,95.5,530.1z M91.9,532.5l1.7,2.1c-0.7,0.5-1.4,1-2.2,1.5l-1.7-2.1C90.4,533.4,91.2,532.9,91.9,532.5z
			 M98.2,543.2l2.6,3.1c-0.8,0.7-1.8,1.5-2.7,2.2l-2.6-3.1C96.4,544.7,97.3,544,98.2,543.2z M88.3,534.9L90,537
			c-0.7,0.5-1.4,1-2.1,1.6l-1.7-2.1C86.9,535.9,87.6,535.4,88.3,534.9z M94.1,546.6l2.6,3.1c-0.9,0.7-1.8,1.4-2.7,2.2l-2.6-3.1
			C92.3,548,93.3,547.3,94.1,546.6z M84.9,537.5l1.7,2.1c-0.7,0.5-1.4,1.1-2.1,1.7l-1.7-2.1C83.5,538.6,84.2,538,84.9,537.5z
			 M92.6,552.9c-0.9,0.7-1.8,1.4-2.8,2.1l-2.6-3.1c1-0.7,1.9-1.4,2.8-2.1L92.6,552.9z M81.6,540.2l1.7,2.1c-0.7,0.6-1.3,1.1-2,1.7
			l-1.7-2.1C80.2,541.3,80.9,540.8,81.6,540.2z M88.4,556.1c-0.9,0.7-1.8,1.4-2.8,2.1l-2.6-3.1c1-0.7,1.9-1.4,2.8-2.1L88.4,556.1z
			 M77.6,543.7c0.3-0.2,0.5-0.4,0.7-0.7l1.7,2.1c-0.1,0.1-0.2,0.2-0.3,0.3c-0.4,0.4-1,0.9-1.6,1.5l-1.7-2.1
			C76.8,544.5,77.2,544.1,77.6,543.7z M84.3,559.3c-0.9,0.7-1.9,1.4-2.8,2.1l-2.6-3.1c1-0.7,1.9-1.4,2.8-2.1L84.3,559.3z
			 M75.2,545.9l1.7,2.1c-0.6,0.5-1.2,1.1-2,1.8l-1.7-2.1C73.9,547.1,74.5,546.5,75.2,545.9z M72,548.8l1.7,2.1
			c-0.6,0.6-1.3,1.1-2,1.7l-1.7-2.1C70.7,550,71.3,549.4,72,548.8z M77.5,559.2l2.6,3.1c-0.9,0.7-1.9,1.4-2.8,2.1l-2.6-3.1
			C75.6,560.6,76.6,559.9,77.5,559.2z M68.8,551.7l1.7,2.1c-0.6,0.6-1.3,1.1-2,1.7l-1.7-2.1C67.4,552.8,68.1,552.3,68.8,551.7z
			 M75.8,565.4c-0.9,0.7-1.9,1.3-2.9,2l-2.6-3.1c1-0.7,1.9-1.4,2.9-2L75.8,565.4z M65.5,554.5l1.7,2.1c-0.7,0.6-1.3,1.1-2,1.7
			l-1.7-2.1C64.2,555.6,64.8,555.1,65.5,554.5z M62.2,557.3l1.7,2.1c-0.7,0.6-1.3,1.1-2,1.7l-1.7-2.1
			C60.9,558.4,61.6,557.8,62.2,557.3z M67.3,571.4l-2.5-3.1c1.5-1,2.9-2,4.2-3l2.6,3.1c-0.7,0.5-1.3,0.9-2,1.4
			C68.8,570.3,68,570.9,67.3,571.4z M79,581.8c-0.8,0.5-1.5,1.1-2.3,1.6l-2.5-3.1c1.5-1,2.9-2,4.3-3l2.6,3.1
			C80.3,580.9,79.6,581.3,79,581.8z M82.3,579.5l-2.6-3.1c1-0.7,2-1.4,2.9-2.1l2.6,3.1C84.3,578.1,83.3,578.7,82.3,579.5z
			 M86.6,576.4l-2.6-3.1c1-0.7,2-1.4,2.9-2.1l2.6,3.1C88.5,575,87.6,575.7,86.6,576.4z M90.8,573.4l-2.6-3.1c1-0.7,1.9-1.4,2.9-2.1
			l2.6,3.1C92.8,571.9,91.8,572.6,90.8,573.4z M95,570.2l-2.6-3.1c1-0.7,1.9-1.5,2.9-2.1l2.6,3.1C97,568.8,96,569.5,95,570.2z
			 M99.2,567.1l-2.6-3.1c1-0.8,1.9-1.5,2.8-2.2l2.6,3.1C101.1,565.6,100.2,566.3,99.2,567.1z M103.3,563.9l-2.6-3.1
			c1-0.8,1.9-1.5,2.8-2.2l2.6,3.1C105.2,562.4,104.3,563.1,103.3,563.9z M107.4,560.6l-2.6-3.2c1-0.8,1.9-1.6,2.7-2.3l2.6,3.2
			C109.3,559.1,108.4,559.9,107.4,560.6z M111.4,557.3l-2.6-3.2c1-0.8,1.9-1.6,2.7-2.4l2.6,3.2C113.3,555.7,112.4,556.5,111.4,557.3
			z M115.3,553.8l-2.6-3.2c1-0.9,1.8-1.7,2.6-2.5l2.6,3.2C117.2,552.2,116.3,553,115.3,553.8z M119.1,550.2l-2.6-3.2
			c1.1-1.1,1.9-2,2.4-2.7l2.7,3.3C120.9,548.4,120.1,549.3,119.1,550.2z M122.7,546.3L120,543c0.1-0.1,0.2-0.2,0.3-0.3
			c0.1-0.1,0.2-0.1,0.2-0.2c1.2-1.2,2-2.8,2-2.8l2.4,3l0.1,0C124.9,543.1,124.5,544.2,122.7,546.3z"/>
	</g>
</g>
<path opacity="0.2" fill="#5D6FB4" d="M955.1,645.9c-19.3,9.8-26.9,33.4-17.1,52.7c9.8,19.3,33.4,26.9,52.7,17.1
	c19.3-9.8,26.9-33.4,17.1-52.7C997.9,643.7,974.3,636.1,955.1,645.9z M991,675.1L977.5,700c-0.4,0.7-0.9,1.2-1.6,1.6
	c-0.5,0.3-1.1,0.4-1.8,0.4c-1.4,0-2.7-0.8-3.4-2.1l-14.6-28.6c-0.6-1.3-0.5-2.8,0.3-3.9c0.8-1.2,2.2-1.8,3.6-1.6l28.1,3.7
	c1.2,0.2,2.3,0.9,2.9,2C991.6,672.6,991.6,674,991,675.1z"/>
<path opacity="0.2" fill="#5D6EB4" d="M48.7,744c-8.8-6-20.8-3.8-26.8,4.9c-6,8.8-3.8,20.8,4.9,26.8c8.8,6,20.8,3.8,26.8-4.9
	C59.7,762,57.4,750,48.7,744z M25.7,757.7c-2.3-1.6-2.9-4.8-1.3-7.1c1.6-2.3,4.8-2.9,7.1-1.3c2.3,1.6,2.9,4.8,1.3,7.1
	C31.2,758.7,28,759.3,25.7,757.7z M28.6,773.2c-2.3-1.6-2.9-4.8-1.3-7.1c1.6-2.3,4.8-2.9,7.1-1.3c2.3,1.6,2.9,4.8,1.3,7.1
	C34.1,774.3,30.9,774.8,28.6,773.2z M36.1,758.7c0.6-0.9,1.9-1.2,2.8-0.5c0.9,0.6,1.2,1.9,0.5,2.8c-0.6,0.9-1.9,1.2-2.8,0.5
	C35.7,760.9,35.5,759.6,36.1,758.7z M41.2,754.9c-2.3-1.6-2.9-4.8-1.3-7.1c1.6-2.3,4.8-2.9,7.1-1.3c2.3,1.6,2.9,4.8,1.3,7.1
	S43.5,756.5,41.2,754.9z M44,770.4c-2.3-1.6-2.9-4.8-1.3-7.1s4.8-2.9,7.1-1.3c2.3,1.6,2.9,4.8,1.3,7.1C49.6,771.4,46.4,772,44,770.4
	z"/>
<g opacity="0.2">
	<path fill="#5D6EB4" d="M587.2,603.6c-21.1-4.5-41.5,8.9-45.9,30.1c-4.5,21.2,8.8,41.6,29.8,46.1c21.1,4.5,41.5-8.9,45.9-30.1
		C621.5,628.5,608,607.9,587.2,603.6z M556.4,646.2c-4.9-1-8.2-6.1-7-11.1c1.1-5,6.1-8.3,11-7.1c4.9,1,8.2,6.1,7,11.1
		S561.4,647.2,556.4,646.2z M572.6,671.5c-4.9-1-8.2-6.1-7-11.1c1.1-5,6.1-8.3,11-7.1c4.9,1,8.2,6.1,7,11.1
		C582.7,669.1,577.5,672.5,572.6,671.5z M575.1,640.8c0.4-2.1,2.6-3.6,4.8-3.1c2.3,0.5,3.6,2.6,3.1,4.8s-2.4,3.6-4.7,3.2
		C576,645.1,574.7,642.8,575.1,640.8z M581.6,629.9c-4.9-1-8.2-6.1-7-11.1c1.1-5,6.1-8.3,11-7.1c4.9,1,8.2,6.1,7,11.1
		C591.5,627.8,586.6,630.9,581.6,629.9z M597.8,655.2c-4.9-1-8.2-6.1-7-11.1c1.1-5,6.1-8.3,11-7.1c4.9,1,8.2,6.1,7,11.1
		C607.8,652.9,602.8,656.2,597.8,655.2z"/>
</g>
<g opacity="0.2">
	<path fill="#5D6EB4" d="M755.6,474.2c-21.1-4.5-41.5,8.9-45.9,30.1c-4.5,21.2,8.8,41.6,29.8,46.1c21.1,4.5,41.5-8.9,45.9-30.1
		C789.9,499.1,776.3,478.6,755.6,474.2z M724.8,516.8c-4.9-1-8.2-6.1-7-11.1c1.1-5,6.1-8.3,11-7.1c4.9,1,8.2,6.1,7,11.1
		C734.6,514.7,729.8,517.9,724.8,516.8z M741,542.1c-4.9-1-8.2-6.1-7-11.1c1.1-5,6.1-8.3,11-7.1c4.9,1,8.2,6.1,7,11.1
		C751.1,539.8,745.9,543.2,741,542.1z M743.5,511.4c0.4-2.1,2.6-3.6,4.8-3.1c2.3,0.5,3.6,2.6,3.1,4.8c-0.5,2.2-2.4,3.6-4.7,3.2
		S743.1,513.4,743.5,511.4z M750,500.5c-4.9-1-8.2-6.1-7-11.1c1.1-5,6.1-8.3,11-7.1c4.9,1,8.2,6.1,7,11.1
		C759.8,498.4,755,501.5,750,500.5z M766.2,525.8c-4.9-1-8.2-6.1-7-11.1c1.1-5,6.1-8.3,11-7.1c4.9,1,8.2,6.1,7,11.1
		C776.1,523.5,771.1,526.8,766.2,525.8z"/>
</g>
<linearGradient id="SVGID_1_" gradientUnits="userSpaceOnUse" x1="540.3957" y1="793.2782" x2="540.3957" y2="435.5944">
	<stop  offset="0" style="stop-color:#FFFFFF;stop-opacity:0"/>
	<stop  offset="2.975832e-02" style="stop-color:#FFFFFF;stop-opacity:8.054584e-02"/>
	<stop  offset="0.3695" style="stop-color:#FFFFFF"/>
	<stop  offset="0.4586" style="stop-color:#FFFFFF"/>
	<stop  offset="1" style="stop-color:#FFFFFF"/>
</linearGradient>
<rect x="-21.2" y="435.6" opacity="0.82" fill="url(#SVGID_1_)" width="1123.3" height="357.7"/>
</svg>
