<?xml version="1.0" encoding="utf-8"?>
<!-- Generator: Adobe Illustrator 18.0.0, SVG Export Plug-In . SVG Version: 6.00 Build 0)  -->
<!DOCTYPE svg PUBLIC "-//W3C//DTD SVG 1.1//EN" "http://www.w3.org/Graphics/SVG/1.1/DTD/svg11.dtd">
<svg version="1.1" id="Layer_1" xmlns="http://www.w3.org/2000/svg" xmlns:xlink="http://www.w3.org/1999/xlink" x="0px" y="0px"
	 viewBox="136.9 415.7 277.8 277.8" enable-background="new 136.9 415.7 277.8 277.8" xml:space="preserve">
<linearGradient id="SVGID_1_" gradientUnits="userSpaceOnUse" x1="50.0037" y1="509.6302" x2="194.7457" y2="509.6302" gradientTransform="matrix(1.6 0 0 1.6 80 -260.8)">
	<stop  offset="0" style="stop-color:#3473F0"/>
	<stop  offset="1" style="stop-color:#5A73F0"/>
</linearGradient>
<path opacity="0.7" fill="url(#SVGID_1_)" enable-background="new    " d="M275.8,438.8c-63.9,0-115.8,51.9-115.8,115.8
	s51.9,115.8,115.8,115.8s115.8-51.9,115.8-115.8S339.7,438.8,275.8,438.8z M208.7,585.4c-17.1,0-30.8-13.8-30.8-30.8
	s13.8-30.8,30.8-30.8s30.8,13.8,30.8,30.8S225.8,585.4,208.7,585.4z M276,652.5c-17.1,0-30.8-13.8-30.8-30.8s13.8-30.8,30.8-30.8
	s30.8,13.8,30.8,30.8C306.8,638.7,293,652.5,276,652.5z M263.7,554.8c0-6.8,5.5-12.3,12.3-12.3s12.3,5.5,12.3,12.3
	s-5.5,12.3-12.3,12.3C269.3,567,263.7,561.4,263.7,554.8z M276,518.3c-17.1,0-30.8-13.8-30.8-30.8c0-17,13.8-30.8,30.8-30.8
	s30.8,13.8,30.8,30.8C306.8,504.6,293,518.3,276,518.3z M342.9,585.4c-17.1,0-30.8-13.8-30.8-30.8s13.8-30.8,30.8-30.8
	c17,0,30.8,13.8,30.8,30.8S359.9,585.4,342.9,585.4z"/>
<image overflow="visible" enable-background="new    " width="755" height="148" xlink:href="mr-02.png"  transform="matrix(0.15 0 0 0.15 645.625 564.875)">
</image>
</svg>
