<?xml version="1.0" encoding="utf-8"?>
<!-- Generator: Adobe Illustrator 18.0.0, SVG Export Plug-In . SVG Version: 6.00 Build 0)  -->
<!DOCTYPE svg PUBLIC "-//W3C//DTD SVG 1.1//EN" "http://www.w3.org/Graphics/SVG/1.1/DTD/svg11.dtd">
<svg version="1.1" id="Layer_1" xmlns="http://www.w3.org/2000/svg" xmlns:xlink="http://www.w3.org/1999/xlink" x="0px" y="0px"
	 viewBox="0 0 445 159.7" enable-background="new 0 0 445 159.7" xml:space="preserve">
<path opacity="0.8" fill="none" stroke="#FFFFFF" stroke-width="3" stroke-miterlimit="10" d="M414.2,133.1H27.3
	c-7.9,0-14.2-6.4-14.2-14.2V41.3c0-7.9,6.4-14.2,14.2-14.2h386.9c7.9,0,14.2,6.4,14.2,14.2v77.6
	C428.5,126.8,422.1,133.1,414.2,133.1z"/>
<path fill="#FFFFFF" d="M102.1,64.7c-10.4,7.1-9.4,21.4,1.8,26.8c-2.2,6.1-5.3,11.7-10.2,15.9c-2.8,2.4-6.1,2.3-9.3,0.8
	c-2.7-1.2-5.4-2.1-8.3-1.5c-1.6,0.3-3.2,0.8-4.8,1.4c-5.1,2-8.1,1.5-11.7-2.7c-7.7-9-11.8-19.3-10.3-31.3c1-7.8,5.3-13.2,13.1-15.7
	c3.1-1,5.8-0.5,8.4,0.8c4.1,2.1,8,2.1,12.1,0c2.5-1.3,5.3-2.2,8.3-1.4C95.4,58.9,99.5,60.6,102.1,64.7z"/>
<path fill="#FFFFFF" d="M197.7,106.3c0,4.4,0,8.5,0,12.6c-1.9,0-3.6,0-5.6,0c0-11.8,0-23.6,0-35.5c1.4,0,3,0,4.7,0
	c0.1,1.1,0.3,2.2,0.5,3.7c1.9-2.7,4.3-4,7.1-4.3c5.1-0.6,9.5,2.3,11.2,7.4c1.1,3.4,1.1,6.8,0.3,10.3
	C213.7,108.9,204,112.1,197.7,106.3z M197.6,96.2c0.1,0,0.1,0,0.2,0c0,0.8,0,1.7,0,2.5c0.2,3.1,2.1,5.4,4.8,5.9
	c3,0.6,5.6-0.7,6.9-3.6c1.5-3.3,1.5-6.6,0.1-9.9c-1.1-2.6-3.2-3.9-5.9-3.8c-2.5,0.1-4.7,1.9-5.4,4.5
	C197.8,93.2,197.8,94.7,197.6,96.2z"/>
<path fill="#FFFFFF" d="M226.9,106.6c0,4.1,0,8.1,0,12.3c-1.9,0-3.7,0-5.6,0c0-11.9,0-23.6,0-35.5c1.5,0,3,0,4.7,0
	c0.2,1.1,0.3,2.2,0.5,3.3c1.3-1,2.4-2.2,3.8-2.9c5.4-2.8,11.7-0.3,14.1,5.5c1.8,4.5,1.7,9.2-0.2,13.6c-2.2,5-7.6,7.6-12.8,6
	C229.8,108.4,228.5,107.4,226.9,106.6z M240,96c-0.1,0-0.1-0.1-0.2-0.1c-0.1-1.1-0.2-2.1-0.4-3.2c-0.9-3.8-3.5-5.8-6.9-5.5
	c-3.1,0.3-5.4,3.1-5.5,6.7c-0.1,1.7-0.1,3.4,0.1,5c0.2,2.9,2.2,5.1,4.8,5.6c2.9,0.6,5.6-0.6,6.8-3.5C239.3,99.6,239.5,97.8,240,96z"
	/>
<path fill="#FFFFFF" d="M187.2,108.7c-1.9,0-3.6,0.1-5.3-0.1c-0.4,0-0.9-0.7-1.1-1.2c-0.9-2.5-1.7-5.1-2.4-7.7
	c-0.3-1-0.7-1.5-1.9-1.4c-2.9,0.1-5.7,0.1-8.6,0c-1.1,0-1.6,0.4-1.8,1.4c-0.7,2.5-1.6,5-2.2,7.6c-0.3,1.1-0.8,1.4-1.9,1.4
	c-1.4-0.1-2.7,0-4.4,0c0.2-0.8,0.3-1.4,0.5-2c3.4-10.5,6.8-21.1,10.1-31.6c0.4-1.3,1-1.9,2.4-1.7c1.7,0.2,3.9-0.5,5,0.4
	c1.2,0.8,1.3,3.1,1.9,4.7c3.1,9.4,6.1,18.8,9.1,28.2C186.7,107.2,186.9,107.8,187.2,108.7z M176.7,93.8c-1.6-5.1-3.1-10-4.6-15.1
	c-1.5,5.1-3,10-4.5,15.1C170.7,93.8,173.6,93.8,176.7,93.8z"/>
<path fill="#FFFFFF" d="M275.6,78.8c-2.4-0.4-4.5-1-6.7-1.2c-1.2-0.1-2.5,0.2-3.6,0.7c-3,1.3-3.6,5-1.1,7.1c1.3,1.1,3.1,1.8,4.6,2.7
	c1.9,1,4,1.8,5.7,3.1c5.6,4.2,5.1,12.8-1.1,16.2c-5.2,2.8-10.6,2.5-15.9,0.2c-0.4-0.2-0.8-1.1-0.8-1.6c0.1-1.2,0.6-2.3,0.9-3.3
	c2.3,0.6,4.4,1.4,6.6,1.7c1.7,0.2,3.5,0.1,5.1-0.5c3.8-1.3,4.5-6.1,1.3-8.5c-1.4-1.1-3.2-1.7-4.7-2.5c-1.9-1-3.9-1.9-5.6-3.2
	c-4.8-3.9-4.5-11,0.7-14.5c4.7-3.2,9.9-2.7,15-1c0.3,0.1,0.7,0.8,0.7,1.2C276.4,76.5,275.9,77.8,275.6,78.8z"/>
<path fill="#FFFFFF" d="M325,95.7c0.1,9.5-7.2,15.5-16.1,13.2c-4.5-1.1-7.4-4.2-8.2-8.6c-0.6-2.7-0.6-5.8,0-8.5
	c1.4-6.3,7.2-9.9,13.8-9C321,83.6,324.9,88.5,325,95.7z M319.6,95.9c-0.9-2.3-1.4-4.7-2.5-6.6c-2.1-3.4-6.9-3.3-9.3-0.1
	c-2.6,3.5-2.6,9.7,0,13.2c2.4,3.3,7.1,3.4,9.3,0C318.2,100.6,318.7,98.2,319.6,95.9z"/>
<path fill="#FFFFFF" d="M368.4,97.3c-5.7,0-11.1,0-16.6,0c-0.5,3.4,1.7,6.6,5.3,7.1c2.3,0.3,4.7-0.1,7.1-0.3c0.6,0,1.3-0.3,1.9-0.5
	c0.1,0.2,0.3,0.3,0.3,0.5c0.7,3.7,1.8,3.4-2.7,4.4c-3.3,0.8-6.7,0.9-9.9-0.2c-3.1-1-5.5-3-6.7-6.1c-1.9-4.7-1.7-9.4,0.7-13.9
	c2.5-4.5,6.9-6.5,12-5.8c3.3,0.5,5.8,2.3,7.3,5.2C368.6,90.8,368.9,93.9,368.4,97.3z M363,93.3c0.2-3.9-1.8-6.5-5-6.7
	c-3.3-0.2-6.1,2.7-6.3,6.5c0.3,0,0.7,0.1,1,0.1C356.1,93.3,359.5,93.3,363,93.3z"/>
<path fill="#FFFFFF" d="M285,83.1c0.1-0.4,0.1-0.7,0.1-1c0.2-3.7,0.2-3.7,3.8-4.8c0.5-0.2,1-0.3,1.7-0.5c0,2.1,0,4,0,6.2
	c2.1,0,4.1,0,6.2,0c0,1.6,0,2.9,0,4.3c-2,0-3.9,0-6.1,0c0,2.5,0,4.8,0,7.1c0,1.8,0,3.6,0,5.4c0.1,3.6,1.4,4.7,4.9,4.4
	c0.2,0,0.5,0,0.6,0c0.1,0.1,0.2,0.1,0.2,0.2c0.3,4.3,1.2,4.5-3.9,4.6c-4.5,0.1-7-2.1-7.2-6.6c-0.2-4.2-0.1-8.5-0.2-12.7
	c0-0.7,0-1.4,0-2.2c-1.3-0.1-2.4-0.1-3.6-0.2c0-1.4,0-2.7,0-4.1C282.7,83.2,283.8,83.2,285,83.1z"/>
<path fill="#FFFFFF" d="M334.6,83.4c0.1,1.4,0.2,2.6,0.3,4.2c0.7-1,1.2-1.8,1.8-2.5c0.8-0.7,1.6-1.4,2.6-1.9c3.1-1.4,4-0.8,4,2.6
	c0,0.7,0,1.4,0,2.2c-0.4,0-0.7,0.1-1,0.1c-4.2,0-6.6,2.1-6.7,6.3c-0.2,4.1-0.1,8.1-0.1,12.2c0,0.6,0,1.3,0,2c-2,0-3.7,0-5.7,0
	c0-8.4,0-16.8,0-25.2C331.4,83.4,333,83.4,334.6,83.4z"/>
<path fill="#FFFFFF" d="M89.7,41.4c1.5,6.8-5.3,15.4-12.2,15.6c-1.2,0-1.2-0.6-1.3-1.4C76.1,48.7,82.8,41.6,89.7,41.4z"/>
<path fill="#FFFFFF" d="M207.8,42.3c1,0,1.8,0,2.7,0c0,2.2,0,4.4,0,6.8c0.6-0.4,1-0.6,1.4-0.8c2.9-1.7,6.4-0.2,7.4,3.1
	c0.8,2.5,0.4,5-0.9,7.3c-1.6,2.8-5,3.1-7.7,1.1c-1.1,0.5-1.9,0.8-3,1.3C207.8,54.5,207.8,48.5,207.8,42.3z M210.6,54.2
	c0.1,0.6,0,1.4,0.2,2c0.6,2.2,3,3.2,4.4,2c1.7-1.5,2.2-4.6,1.2-6.6c-0.6-1.2-1.6-2-3-1.7c-1.4,0.2-2.2,1.1-2.5,2.4
	C210.6,52.9,210.6,53.5,210.6,54.2z"/>
<path fill="#FFFFFF" d="M147.2,60.5c-3,0.5-3.1,0.4-3.7-1.9c-0.3-1.1-0.5-2.8-1.2-3c-1.5-0.5-3.2-0.3-4.8-0.2
	c-0.3,0-0.7,0.5-0.8,0.8c-0.3,0.7-0.4,1.5-0.6,2.2c-0.6,2.5-0.6,2.5-3.5,2.2c0.2-1,0.4-2,0.7-3c1.4-4.4,2.9-8.9,4.2-13.3
	c0.4-1.2,1.1-1.2,2-1.2c0.9,0,1.9-0.2,2.3,1.1C143.7,49.6,145.4,55,147.2,60.5z M139.7,45.9c-0.8,2.6-1.4,4.8-2.1,7.1
	c1.5,0,2.8,0,4.3,0c-0.6-2-1.1-3.8-1.7-5.6C140.1,47,140,46.6,139.7,45.9z"/>
<path fill="#FFFFFF" d="M370.5,49.2c0.5-0.4,0.7-0.5,1-0.7c3-2.1,6.3-0.7,7,2.8c0.1,0.7,0.2,1.4,0.2,2.1c0,2.3,0,4.6,0,7.1
	c-1,0-1.8,0-2.9,0c0-2.2,0-4.5,0-6.8c0-2.7-0.8-4-2.6-3.9c-1.8,0.1-2.6,1.4-2.7,4c0,2.2,0,4.4,0,6.7c-1,0-1.8,0-2.7,0
	c0-6.1,0-12.2,0-18.3c0.9,0,1.7,0,2.7,0C370.5,44.6,370.5,46.8,370.5,49.2z"/>
<path fill="#FFFFFF" d="M330.8,54c0,4.3-2.3,7-6.2,7.1c-3.8,0-6.1-2.6-6.1-6.8c0-4,2.5-6.6,6.3-6.6C328.4,47.7,330.7,50.1,330.8,54z
	 M321.1,54.4c0.5,1.1,1.1,2.5,1.8,3.7c0.6,1,2.4,1,3.2,0.2c1.7-1.6,2.3-4.9,1-6.9c-0.5-0.8-1.6-1.6-2.5-1.6c-0.9,0-1.9,0.8-2.5,1.5
	C321.5,52.1,321.5,53.2,321.1,54.4z"/>
<path fill="#FFFFFF" d="M199.9,52c0-2.5-1.3-2.9-5.6-1.7c-0.9-1.2-0.7-2,0.8-2.3c1.4-0.2,2.9-0.4,4.3-0.3c2,0.2,3.3,1.6,3.4,3.8
	c0.1,3,0,6,0,9.3c-1-0.2-1.9-0.4-2.8-0.7c0-0.1,0-0.3,0.1-0.4c-0.4,0.3-0.8,0.5-1.2,0.8c-2.1,1.1-4.7,0.5-5.7-1.4
	c-1.1-2.1-0.3-5,2-5.9C196.7,52.6,198.4,52.4,199.9,52z M200,54.3c-1.5-0.2-3.1-0.2-3.9,1.3c-0.4,0.7-0.2,2,0.2,2.8
	c0.2,0.4,1.6,0.6,2.2,0.3C200.1,57.8,200.4,56.2,200,54.3z"/>
<path fill="#FFFFFF" d="M241.5,54.9c-2.6,0-5.3,0-7.9,0c0.3,3.3,2.3,4.8,7,3.6c0.2,0.5,0.4,1,0.5,1.6c-2.9,1.8-7.3,1.3-9.1-1
	c-2.1-2.8-1.7-7.8,0.9-10.1c1.7-1.5,4.7-1.7,6.5-0.5C241.3,49.6,242.2,52.2,241.5,54.9z M238.9,52.7c-0.1-2.1-1-3.1-2.5-3.1
	c-1.6,0-2.6,1.2-2.7,3.1C235.4,52.7,237.1,52.7,238.9,52.7z"/>
<path fill="#FFFFFF" d="M337.5,60.7c-0.9,0-1.7,0-2.5,0c-0.1-0.4-0.1-0.7-0.1-1c0-3.8,0-7.6,0-11.6c1.2-0.2,2.3-0.7,2.6,1.2
	c0.5-0.4,0.9-0.7,1.3-0.9c2.9-1.8,6.4-0.4,6.8,3c0.3,3,0.1,6.1,0.1,9.2c-0.8,0-1.6,0-2.7,0c0-1.9,0-3.8,0-5.7c0-0.7,0-1.3,0-2
	c-0.1-2-0.9-3-2.4-3c-1.5,0-2.7,1.3-2.8,3.1c-0.1,2.1,0,4.2,0,6.3C337.6,59.8,337.5,60.2,337.5,60.7z"/>
<path fill="#FFFFFF" d="M392.5,54.9c-2.7,0-5.3,0-8,0c0.2,2.7,1.6,4.8,7,3.6c0.9,1.3,0.4,2-1.1,2.3c-0.4,0-0.7,0.1-1.1,0.2
	c-2.5,0.2-5,0.1-6.5-2.1c-1.6-2.4-1.8-5-0.7-7.7c1.2-2.9,4.2-4.2,7.1-3.2C391.9,48.7,393.3,51.7,392.5,54.9z M390.1,52.7
	c-0.2-1.7-0.8-2.9-2.6-3.1c-1.5-0.1-2.6,1-2.9,3.1C386.4,52.7,388.1,52.7,390.1,52.7z"/>
<path fill="#FFFFFF" d="M173.5,60.9c-1-0.2-1.9-0.4-2.8-0.6c0-0.1,0.1-0.2,0.1-0.3c-1,0.4-2.1,0.9-3.1,1c-2.1,0.3-3.6-0.7-4.1-2.4
	c-0.7-2.1,0-4.3,1.8-5.1c1.5-0.7,3.3-1,5-1.5c0.3-2.3-1.5-2.9-5.4-1.6c-1-1.2-0.8-2.1,0.8-2.3c1.4-0.2,2.9-0.4,4.2-0.3
	c2.1,0.2,3.3,1.8,3.4,4.4C173.6,54.9,173.5,57.7,173.5,60.9z M170.6,54.3c-1.6-0.1-3.3-0.1-4,1.5c-0.3,0.7,0,2,0.4,2.6
	c0.3,0.4,1.7,0.5,2.2,0.2C170.8,57.7,171,56.1,170.6,54.3z"/>
<path fill="#FFFFFF" d="M149.2,48.1c2.9-0.4,2.9-0.4,3.6,1.8c0.7,2.3,1.5,4.5,2.4,7.3c0.9-2.8,1.6-5,2.3-7.3
	c0.8-2.3,0.8-2.4,3.5-1.8c-0.7,1.9-1.4,3.7-2,5.5c-0.7,2-1.4,4.1-2.2,6.1c-0.2,0.5-1,0.9-1.6,1c-0.6,0-1.6-0.3-1.8-0.7
	C152,56.1,150.6,52.2,149.2,48.1z"/>
<path fill="#FFFFFF" d="M363.5,58.8c0.6,1.5,0.2,2.2-1.5,2.2c-2.5,0-3.7-1-3.8-3.5c-0.1-2.4,0-4.9,0-7.4c-0.7-0.2-1.2-0.3-1.8-0.4
	c0-0.5,0-1-0.1-1.7c0.6-0.2,1.2-0.3,1.8-0.5c-0.4-2.1,0.8-2.6,2.7-2.7c0.1,0.9,0.1,1.7,0.2,2.8c0.9,0.1,1.9,0.2,2.9,0.3
	c0,0.6,0.1,1.1,0.1,1.8c-1,0.1-1.9,0.2-3,0.3c0,2.3-0.1,4.5,0,6.7C361,58.3,361.5,58.5,363.5,58.8z"/>
<path fill="#FFFFFF" d="M226.5,60.7c-0.9,0-1.7,0-2.6,0c0-6.2,0-12.3,0-18.5c0.9,0,1.7,0,2.6,0C226.5,48.4,226.5,54.4,226.5,60.7z"
	/>
<path fill="#FFFFFF" d="M186.1,42.2c0.9,0,1.7,0,2.6,0c0,6.2,0,12.2,0,18.4c-0.8,0-1.6,0-2.6,0C186.1,54.5,186.1,48.4,186.1,42.2z"
	/>
<path fill="#FFFFFF" d="M181,60.7c-0.8,0-1.6,0-2.7,0c0-2.1,0-4.1,0-6.2c0-2.1,0-4.2,0-6.4c0.9,0,1.7,0,2.7,0
	C181,52.2,181,56.3,181,60.7z"/>
<path fill="#FFFFFF" d="M181.7,44.7c-0.7,0.4-1.4,1.2-2,1.1c-0.6-0.1-1.1-1-1.7-1.6c0.6-0.5,1.1-1.4,1.7-1.5
	c0.6-0.1,1.3,0.8,1.9,1.2C181.7,44.1,181.7,44.4,181.7,44.7z"/>
<path fill="#FFFFFF" stroke="#FFFFFF" stroke-miterlimit="10" d="M254.2,58.4c0.7,0.4,1.8,0.9,2.9,0.9c1.6,0,2.3-0.8,2.3-1.8
	c0-1-0.6-1.6-2.2-2.2c-2.2-0.8-3.2-2-3.2-3.4c0-1.9,1.6-3.5,4.2-3.5c1.2,0,2.3,0.4,3,0.8l-0.5,1.6c-0.5-0.3-1.3-0.7-2.5-0.7
	c-1.3,0-2,0.7-2,1.6c0,1,0.7,1.4,2.3,2c2.1,0.8,3.2,1.8,3.2,3.6c0,2.1-1.6,3.6-4.5,3.6c-1.3,0-2.5-0.3-3.4-0.8L254.2,58.4z"/>
<path fill="#FFFFFF" stroke="#FFFFFF" stroke-miterlimit="10" d="M277.4,54.5c0,4.5-3.1,6.4-6,6.4c-3.3,0-5.8-2.4-5.8-6.2
	c0-4,2.6-6.4,6-6.4C275,48.3,277.4,50.8,277.4,54.5z M267.8,54.6c0,2.6,1.5,4.6,3.7,4.6c2.1,0,3.7-2,3.7-4.7c0-2-1-4.6-3.6-4.6
	S267.8,52.3,267.8,54.6z"/>
<path fill="#FFFFFF" stroke="#FFFFFF" stroke-miterlimit="10" d="M292.1,54.5c0,4.5-3.1,6.4-6,6.4c-3.3,0-5.8-2.4-5.8-6.2
	c0-4,2.6-6.4,6-6.4C289.8,48.3,292.1,50.8,292.1,54.5z M282.5,54.6c0,2.6,1.5,4.6,3.7,4.6c2.1,0,3.7-2,3.7-4.7c0-2-1-4.6-3.6-4.6
	S282.5,52.3,282.5,54.6z"/>
<path fill="#FFFFFF" stroke="#FFFFFF" stroke-miterlimit="10" d="M296.9,51.8c0-1.2,0-2.3-0.1-3.3h1.9l0.1,2h0c0.6-1.1,2-2.3,4-2.3
	c1.7,0,4.3,1,4.3,5.1v7.2H305v-7c0-1.9-0.7-3.6-2.8-3.6c-1.4,0-2.6,1-2.9,2.2c-0.1,0.3-0.1,0.6-0.1,1v7.3h-2.2V51.8z"/>
</svg>
