<?xml version="1.0" encoding="utf-8"?>
<!-- Generator: Adobe Illustrator 18.0.0, SVG Export Plug-In . SVG Version: 6.00 Build 0)  -->
<!DOCTYPE svg PUBLIC "-//W3C//DTD SVG 1.1//EN" "http://www.w3.org/Graphics/SVG/1.1/DTD/svg11.dtd">
<svg version="1.1" id="Layer_1" xmlns="http://www.w3.org/2000/svg" xmlns:xlink="http://www.w3.org/1999/xlink" x="0px" y="0px"
	 viewBox="0 0 1000 500" enable-background="new 0 0 1000 500" xml:space="preserve">
<g>
	<g>
		<linearGradient id="SVGID_1_" gradientUnits="userSpaceOnUse" x1="499.9984" y1="668.6559" x2="499.9984" y2="6.6194">
			<stop  offset="0.2092" style="stop-color:#5A73FF;stop-opacity:0"/>
			<stop  offset="0.3347" style="stop-color:#6078FF;stop-opacity:0.1587"/>
			<stop  offset="0.5004" style="stop-color:#7186FD;stop-opacity:0.3683"/>
			<stop  offset="0.6887" style="stop-color:#8C9DFB;stop-opacity:0.6064"/>
			<stop  offset="0.8921" style="stop-color:#B2BDF8;stop-opacity:0.8636"/>
			<stop  offset="1" style="stop-color:#C9D0F6"/>
		</linearGradient>
		<path fill="url(#SVGID_1_)" d="M500,6.6c-184.1,0-331,146.9-331,331s146.9,331,331,331s331-146.9,331-331S681.5,6.6,500,6.6z
			 M317.9,415.4c-43.2,0-79.8-36.6-78.4-79.8c0-43.2,36.6-79.8,79.8-78.4c43.2,0,79.8,36.6,78.4,79.8
			C396.3,380.2,361.7,415.4,317.9,415.4z M498,597.5c-43.2,0-79.8-36.6-78.4-79.8c0-43.2,36.6-79.8,79.8-78.4
			c43.2,0,79.8,36.6,78.4,79.8C578.4,560.3,541.2,597.5,498,597.5z M464.8,337.6c0-17.9,15.3-34.6,34.6-34.6
			c19.9,0,34.6,15.3,34.6,34.6c0,19.3-14,34.6-33.9,34.6S464.8,354.9,464.8,337.6z M500,235.3c-43.2,0-79.8-36.6-78.4-79.8
			c0-43.2,36.6-79.8,79.8-78.4c43.2,0,79.8,36.6,78.4,79.8C578.4,200.7,543.2,235.3,500,235.3z M680.1,417.4
			c-43.2,0-79.8-36.6-78.4-79.8c0-43.2,36.6-79.8,79.8-78.4c43.2,0,79.8,36.6,78.4,79.8C759.2,380.8,723.3,417.4,680.1,417.4z"/>
	</g>
	<path fill="#FFFFFF" d="M210.2,430.1c-1.1-20.6-2.4-45.4-2.2-63.9h-0.7c-5,17.3-11.2,35.8-18.7,56.2l-26.1,71.8H148l-23.9-70.5
		c-7-20.9-13-40-17.1-57.5h-0.4c-0.4,18.4-1.5,43.3-2.9,65.4l-4,63.5H81.5l10.3-148h24.4l25.2,71.6c6.1,18.2,11.2,34.5,14.9,49.8
		h0.7c3.7-14.9,9-31.2,15.6-49.8l26.3-71.6h24.4l9.2,148h-18.7L210.2,430.1z"/>
	<path fill="#FFFFFF" d="M358.8,441.1c0,39.3-27.2,56.4-52.9,56.4c-28.8,0-50.9-21.1-50.9-54.7c0-35.6,23.3-56.4,52.7-56.4
		C338.2,386.4,358.8,408.6,358.8,441.1z M274.5,442.2c0,23.3,13.4,40.8,32.3,40.8c18.4,0,32.3-17.3,32.3-41.3c0-18-9-40.8-31.8-40.8
		S274.5,422,274.5,442.2z"/>
	<path fill="#FFFFFF" d="M389.1,388.9l20.9,59.7c3.5,9.7,6.4,18.4,8.6,27.2h0.7c2.4-8.8,5.5-17.6,9-27.2l20.6-59.7H469l-41.7,106.3
		h-18.4l-40.4-106.3H389.1z"/>
	<path fill="#FFFFFF" d="M508.8,359c0.2,6.6-4.6,11.9-12.3,11.9c-6.8,0-11.6-5.3-11.6-11.9c0-6.8,5-12.1,12.1-12.1
		C504.2,346.9,508.8,352.2,508.8,359z M487.3,495.1V388.9h19.3v106.3H487.3z"/>
	<path fill="#FFFFFF" d="M538.2,349.1c10.1-1.8,25.2-3.1,40.8-3.1c21.3,0,35.8,3.5,45.7,11.9c8.1,6.8,12.7,17.1,12.7,29.6
		c0,19.1-13,32.1-26.8,37.1v0.7c10.5,4,16.9,14.3,20.6,28.5c4.6,18.4,8.6,35.6,11.6,41.3h-27.9c-2.2-4.4-5.7-16.5-9.9-34.9
		c-4.2-19.3-11.2-25.5-26.6-25.9H565v60.8h-26.8V349.1z M565,414.6h16c18.2,0,29.6-9.7,29.6-24.4c0-16.2-11.4-23.7-29-23.7
		c-8.6,0-14.1,0.7-16.7,1.3V414.6z"/>
	<path fill="#FFFFFF" d="M681.8,449.2c0.7,19.3,15.8,27.7,32.9,27.7c12.5,0,21.5-1.8,29.6-4.8l4,18.7c-9.2,3.7-22,6.6-37.3,6.6
		c-34.7,0-55.1-21.3-55.1-54c0-29.6,18-57.5,52.3-57.5c34.7,0,46.1,28.5,46.1,52c0,5-0.4,9-0.9,11.4H681.8z M728.8,430.4
		c0.2-9.9-4.2-26.1-22.2-26.1c-16.7,0-23.7,15.1-24.8,26.1H728.8z"/>
	<path fill="#FFFFFF" d="M795.1,449.2c0.7,19.3,15.8,27.7,32.9,27.7c12.5,0,21.5-1.8,29.6-4.8l4,18.7c-9.2,3.7-22,6.6-37.3,6.6
		c-34.7,0-55.1-21.3-55.1-54c0-29.6,18-57.5,52.3-57.5c34.7,0,46.1,28.5,46.1,52c0,5-0.4,9-0.9,11.4H795.1z M842.1,430.4
		c0.2-9.9-4.2-26.1-22.2-26.1c-16.7,0-23.7,15.1-24.8,26.1H842.1z"/>
	<path fill="#FFFFFF" d="M889.3,339.2h27.2v155.9h-27.2V339.2z"/>
</g>
</svg>
