<?xml version="1.0" encoding="utf-8"?>
<!-- Generator: Adobe Illustrator 18.0.0, SVG Export Plug-In . SVG Version: 6.00 Build 0)  -->
<!DOCTYPE svg PUBLIC "-//W3C//DTD SVG 1.1//EN" "http://www.w3.org/Graphics/SVG/1.1/DTD/svg11.dtd">
<svg version="1.1" id="Layer_1" xmlns="http://www.w3.org/2000/svg" xmlns:xlink="http://www.w3.org/1999/xlink" x="0px" y="0px"
	 viewBox="0 0 200 200" enable-background="new 0 0 200 200" xml:space="preserve">
<path fill="#FFFFFF" d="M100,0.4C45,0.4,0.4,45,0.4,100S45,199.6,100,199.6s99.6-44.6,99.6-99.6S155,0.4,100,0.4z M42.3,126.5
	c-14.6,0-26.5-11.9-26.5-26.5s11.9-26.5,26.5-26.5S68.8,85.4,68.8,100S56.9,126.5,42.3,126.5z M100.2,184.2
	c-14.6,0-26.5-11.9-26.5-26.5s11.9-26.5,26.5-26.5c14.6,0,26.5,11.9,26.5,26.5S114.8,184.2,100.2,184.2z M89.6,100.1
	c0-5.8,4.7-10.6,10.6-10.6c5.8,0,10.6,4.7,10.6,10.6c0,5.8-4.7,10.6-10.6,10.6C94.3,110.6,89.6,105.9,89.6,100.1z M100.2,68.8
	c-14.6,0-26.5-11.9-26.5-26.5s11.9-26.5,26.5-26.5c14.6,0,26.5,11.9,26.5,26.5S114.8,68.8,100.2,68.8z M157.7,126.5
	c-14.6,0-26.5-11.9-26.5-26.5s11.9-26.5,26.5-26.5c14.6,0,26.5,11.9,26.5,26.5S172.3,126.5,157.7,126.5z"/>
</svg>
