<?xml version="1.0" encoding="utf-8"?>
<!-- Generator: Adobe Illustrator 18.0.0, SVG Export Plug-In . SVG Version: 6.00 Build 0)  -->
<!DOCTYPE svg PUBLIC "-//W3C//DTD SVG 1.1//EN" "http://www.w3.org/Graphics/SVG/1.1/DTD/svg11.dtd">
<svg version="1.1" id="Layer_1" xmlns="http://www.w3.org/2000/svg" xmlns:xlink="http://www.w3.org/1999/xlink" x="0px" y="0px"
	 viewBox="0 0 100 100" enable-background="new 0 0 100 100" xml:space="preserve">
<path fill="#ED1C24" d="M50,100L50,100C22.4,100,0,77.6,0,50v0C0,22.4,22.4,0,50,0h0c27.6,0,50,22.4,50,50v0
	C100,77.6,77.6,100,50,100z"/>
<g>
	<path fill="#FFFFFF" d="M78.6,78.6L78.6,78.6c-1.4,1.4-3.7,1.4-5.1,0L21.4,26.5c-1.4-1.4-1.4-3.7,0-5.1l0,0c1.4-1.4,3.7-1.4,5.1,0
		l52.1,52.1C80,74.9,80,77.2,78.6,78.6z"/>
	<path fill="#FFFFFF" d="M21.4,78.6L21.4,78.6c1.4,1.4,3.7,1.4,5.1,0l52.1-52.1c1.4-1.4,1.4-3.7,0-5.1l0,0c-1.4-1.4-3.7-1.4-5.1,0
		L21.4,73.5C20,74.9,20,77.2,21.4,78.6z"/>
</g>
</svg>
